M48
;GenerationSoftware,Autodesk,EAGLE,9.5.2*%
;CreationDate,2021-02-27T22:46:28Z*%
FMAT,2
ICI,OFF
METRIC,TZ,000.000
T14C0.350
T13C0.500
T12C0.600
T11C0.800
T10C0.900
T9C1.000
T8C1.070
T7C1.250
T6C1.500
T5C1.800
T4C2.000
T3C3.000
T2C3.500
T1C5.000
%
G90
M71
T1
X45142Y67056
X52142Y67056
T2
X5390Y57785
X12690Y57785
X23170Y57785
X30470Y57785
T3
X121920Y64643
X153400Y46122
X106680Y34925
X153400Y70718
T4
X41641Y57404
X55641Y57404
T5
X151145Y39360
X151145Y31760
X80655Y64785
X88255Y64785
X65415Y64785
X73015Y64785
T6
X105664Y69977
X105664Y30353
X122936Y69977
X122936Y30353
T7
X86205Y60285
X146645Y37310
X146645Y33810
X67465Y60285
X70965Y60285
X82705Y60285
T8
X149325Y12410
X140325Y12410
X143325Y11470
X146325Y11470
X143325Y8470
X146325Y8470
X134325Y12410
X125325Y12410
X128325Y11470
X131325Y11470
X128325Y8470
X131325Y8470
X119325Y12410
X110325Y12410
X113325Y11470
X116325Y11470
X113325Y8470
X116325Y8470
T9
X151595Y50912
X151595Y58420
X151595Y65928
T10
X6985Y66680
X10795Y64135
X28575Y64135
X27305Y66680
X26035Y64135
X24765Y66680
X9525Y66680
X8255Y64135
T11
X46731Y36004
X48641Y36004
X50551Y36004
T12
X23530Y6685
X33930Y31585
X39130Y6685
X36530Y6685
X33930Y6685
X31330Y6685
X28730Y6685
X26130Y31585
X23530Y31585
X20930Y31585
X18330Y31585
X15730Y31585
X13130Y31585
X10530Y31585
X7930Y31585
X26130Y6685
X36530Y31585
X39130Y31585
X7930Y6685
X10530Y6685
X13130Y6685
X15730Y6685
X18330Y6685
X31330Y31585
X28730Y31585
X20930Y6685
T13
X55641Y55404
X54316Y55404
X45641Y55404
X51641Y55404
X50466Y55779
X49741Y56779
X49741Y58029
X50466Y59029
X51641Y59404
X52991Y59404
X54316Y59404
X55641Y59404
X56816Y59029
X40466Y55779
X41641Y55404
X42966Y55404
X44316Y55404
X52991Y55404
X46816Y55779
X47541Y56779
X47541Y58029
X46816Y59029
X45641Y59404
X44316Y59404
X42966Y59404
X41641Y59404
X40466Y59029
X39751Y58039
X57531Y58039
X57531Y56769
X39751Y56769
X56816Y55779
T14
X3429Y46990
X6020Y39116
X13335Y49276
X35433Y44577
X53340Y31115
X76200Y50800
X69215Y50165
X71120Y54229
X132207Y28575
X142367Y28448
X140335Y35560
X129794Y55118
X141478Y40513
X140970Y47625
X135890Y53975
X96266Y37846
X103505Y40005
X35560Y50800
X109728Y65913
X83871Y53111
X10795Y37465
X135890Y47625
X64135Y50800
X64770Y47625
X102235Y15240
X100965Y15240
X104140Y20320
X55880Y62865
X53340Y61595
X50800Y62865
X51435Y71120
X103251Y21082
X46355Y71120
X43815Y72390
X37465Y70485
X39370Y72390
X41275Y70485
X46355Y62865
X44450Y61595
X133350Y41275
X39370Y68580
X41275Y66675
X37465Y66675
X39370Y64770
X41275Y62865
X37465Y62865
X15875Y62865
X37465Y59055
X37465Y55245
X59690Y55245
X59690Y70485
X57785Y72390
X53975Y72390
X55880Y70485
X57785Y68580
X59690Y66675
X55880Y66675
X57785Y64770
X59690Y62865
X59690Y59055
X57785Y60960
X39370Y60960
M30