G04 EAGLE Gerber RS-274X export*
G75*
%MOMM*%
%FSLAX34Y34*%
%LPD*%
%INBottom Copper*%
%IPPOS*%
%AMOC8*
5,1,8,0,0,1.08239X$1,22.5*%
G01*
%ADD10C,1.108000*%
%ADD11C,1.875000*%
%ADD12R,2.500000X2.500000*%
%ADD13C,1.008000*%
%ADD14C,4.000000*%
%ADD15C,1.500000*%
%ADD16P,6.511658X8X202.500000*%
%ADD17C,3.200000*%
%ADD18C,1.408000*%
%ADD19C,1.620000*%
%ADD20C,1.016000*%
%ADD21C,1.270000*%
%ADD22C,0.756400*%
%ADD23C,0.812800*%
%ADD24C,0.508000*%
%ADD25C,0.609600*%

G36*
X1589098Y10164D02*
X1589098Y10164D01*
X1589117Y10162D01*
X1589219Y10184D01*
X1589321Y10200D01*
X1589338Y10210D01*
X1589358Y10214D01*
X1589447Y10267D01*
X1589538Y10316D01*
X1589552Y10330D01*
X1589569Y10340D01*
X1589636Y10419D01*
X1589708Y10494D01*
X1589716Y10512D01*
X1589729Y10527D01*
X1589768Y10623D01*
X1589811Y10717D01*
X1589813Y10737D01*
X1589821Y10755D01*
X1589839Y10922D01*
X1589839Y729078D01*
X1589836Y729098D01*
X1589838Y729117D01*
X1589816Y729219D01*
X1589800Y729321D01*
X1589790Y729338D01*
X1589786Y729358D01*
X1589733Y729447D01*
X1589684Y729538D01*
X1589670Y729552D01*
X1589660Y729569D01*
X1589581Y729636D01*
X1589506Y729708D01*
X1589488Y729716D01*
X1589473Y729729D01*
X1589377Y729768D01*
X1589283Y729811D01*
X1589263Y729813D01*
X1589245Y729821D01*
X1589078Y729839D01*
X1547915Y729839D01*
X1547868Y729832D01*
X1547820Y729833D01*
X1547748Y729812D01*
X1547673Y729800D01*
X1547630Y729777D01*
X1547584Y729763D01*
X1547522Y729720D01*
X1547455Y729684D01*
X1547422Y729650D01*
X1547383Y729622D01*
X1547338Y729561D01*
X1547286Y729506D01*
X1547266Y729463D01*
X1547237Y729424D01*
X1547214Y729352D01*
X1547182Y729283D01*
X1547177Y729235D01*
X1547162Y729190D01*
X1547164Y729114D01*
X1547155Y729039D01*
X1547165Y728992D01*
X1547166Y728944D01*
X1547191Y728872D01*
X1547208Y728798D01*
X1547232Y728757D01*
X1547248Y728712D01*
X1547295Y728652D01*
X1547334Y728587D01*
X1547370Y728556D01*
X1547400Y728518D01*
X1547504Y728442D01*
X1547521Y728427D01*
X1547527Y728425D01*
X1547535Y728419D01*
X1549449Y727314D01*
X1554134Y722629D01*
X1557446Y716892D01*
X1559161Y710492D01*
X1559161Y703868D01*
X1557446Y697468D01*
X1554134Y691731D01*
X1549449Y687046D01*
X1543712Y683734D01*
X1537312Y682019D01*
X1530688Y682019D01*
X1524288Y683734D01*
X1518551Y687046D01*
X1513866Y691731D01*
X1510554Y697468D01*
X1508839Y703868D01*
X1508839Y710492D01*
X1510554Y716892D01*
X1513866Y722629D01*
X1518551Y727314D01*
X1520465Y728419D01*
X1520502Y728449D01*
X1520545Y728472D01*
X1520597Y728526D01*
X1520655Y728575D01*
X1520681Y728615D01*
X1520714Y728650D01*
X1520746Y728719D01*
X1520786Y728783D01*
X1520797Y728830D01*
X1520818Y728873D01*
X1520826Y728948D01*
X1520844Y729022D01*
X1520839Y729070D01*
X1520845Y729117D01*
X1520829Y729192D01*
X1520822Y729267D01*
X1520803Y729311D01*
X1520792Y729358D01*
X1520754Y729423D01*
X1520723Y729492D01*
X1520691Y729528D01*
X1520666Y729569D01*
X1520609Y729618D01*
X1520558Y729674D01*
X1520516Y729698D01*
X1520479Y729729D01*
X1520409Y729757D01*
X1520343Y729794D01*
X1520296Y729803D01*
X1520251Y729821D01*
X1520123Y729835D01*
X1520101Y729839D01*
X1520095Y729838D01*
X1520085Y729839D01*
X612648Y729839D01*
X612628Y729836D01*
X612609Y729838D01*
X612507Y729816D01*
X612405Y729800D01*
X612388Y729790D01*
X612368Y729786D01*
X612279Y729733D01*
X612188Y729684D01*
X612174Y729670D01*
X612157Y729660D01*
X612090Y729581D01*
X612018Y729506D01*
X612010Y729488D01*
X611997Y729473D01*
X611958Y729377D01*
X611915Y729283D01*
X611913Y729263D01*
X611905Y729245D01*
X611887Y729078D01*
X611887Y541561D01*
X609059Y538733D01*
X490761Y538733D01*
X487933Y541561D01*
X487933Y546989D01*
X487930Y547009D01*
X487932Y547028D01*
X487910Y547130D01*
X487894Y547232D01*
X487884Y547249D01*
X487880Y547269D01*
X487827Y547358D01*
X487778Y547449D01*
X487764Y547463D01*
X487754Y547480D01*
X487675Y547547D01*
X487600Y547619D01*
X487582Y547627D01*
X487567Y547640D01*
X487471Y547679D01*
X487377Y547722D01*
X487357Y547724D01*
X487339Y547732D01*
X487172Y547750D01*
X485648Y547750D01*
X485628Y547747D01*
X485609Y547749D01*
X485507Y547727D01*
X485405Y547711D01*
X485388Y547701D01*
X485368Y547697D01*
X485279Y547644D01*
X485188Y547595D01*
X485174Y547581D01*
X485157Y547571D01*
X485090Y547492D01*
X485018Y547417D01*
X485010Y547399D01*
X484997Y547384D01*
X484958Y547288D01*
X484915Y547194D01*
X484913Y547174D01*
X484905Y547156D01*
X484887Y546989D01*
X484887Y541561D01*
X482059Y538733D01*
X363761Y538733D01*
X360933Y541561D01*
X360933Y729078D01*
X360930Y729098D01*
X360932Y729117D01*
X360910Y729219D01*
X360894Y729321D01*
X360884Y729338D01*
X360880Y729358D01*
X360827Y729447D01*
X360778Y729538D01*
X360764Y729552D01*
X360754Y729569D01*
X360675Y729636D01*
X360600Y729708D01*
X360582Y729716D01*
X360567Y729729D01*
X360471Y729768D01*
X360377Y729811D01*
X360357Y729813D01*
X360339Y729821D01*
X360172Y729839D01*
X10922Y729839D01*
X10902Y729836D01*
X10883Y729838D01*
X10781Y729816D01*
X10679Y729800D01*
X10662Y729790D01*
X10642Y729786D01*
X10553Y729733D01*
X10462Y729684D01*
X10448Y729670D01*
X10431Y729660D01*
X10364Y729581D01*
X10292Y729506D01*
X10284Y729488D01*
X10271Y729473D01*
X10232Y729377D01*
X10189Y729283D01*
X10187Y729263D01*
X10179Y729245D01*
X10161Y729078D01*
X10161Y10922D01*
X10164Y10902D01*
X10162Y10883D01*
X10184Y10781D01*
X10200Y10679D01*
X10210Y10662D01*
X10214Y10642D01*
X10267Y10553D01*
X10316Y10462D01*
X10330Y10448D01*
X10340Y10431D01*
X10419Y10364D01*
X10494Y10292D01*
X10512Y10284D01*
X10527Y10271D01*
X10623Y10232D01*
X10717Y10189D01*
X10737Y10187D01*
X10755Y10179D01*
X10922Y10161D01*
X1589078Y10161D01*
X1589098Y10164D01*
G37*
G36*
X480080Y542802D02*
X480080Y542802D01*
X480099Y542800D01*
X480201Y542822D01*
X480303Y542839D01*
X480320Y542848D01*
X480340Y542852D01*
X480429Y542905D01*
X480520Y542954D01*
X480534Y542968D01*
X480551Y542978D01*
X480618Y543057D01*
X480690Y543132D01*
X480698Y543150D01*
X480711Y543165D01*
X480750Y543261D01*
X480793Y543355D01*
X480795Y543375D01*
X480803Y543393D01*
X480821Y543560D01*
X480821Y556711D01*
X481236Y557235D01*
X481264Y557280D01*
X481298Y557319D01*
X481354Y557427D01*
X481418Y557529D01*
X481434Y557579D01*
X481459Y557626D01*
X481489Y557743D01*
X481527Y557857D01*
X481532Y557909D01*
X481545Y557960D01*
X481559Y558165D01*
X481559Y589915D01*
X481552Y589980D01*
X481554Y590045D01*
X481532Y590151D01*
X481519Y590258D01*
X481497Y590320D01*
X481484Y590384D01*
X481439Y590482D01*
X481402Y590584D01*
X481366Y590638D01*
X481339Y590697D01*
X481220Y590865D01*
X480821Y591352D01*
X480821Y729078D01*
X480818Y729098D01*
X480820Y729117D01*
X480798Y729219D01*
X480782Y729321D01*
X480772Y729338D01*
X480768Y729358D01*
X480715Y729447D01*
X480666Y729538D01*
X480652Y729552D01*
X480642Y729569D01*
X480563Y729636D01*
X480488Y729708D01*
X480470Y729716D01*
X480455Y729729D01*
X480359Y729768D01*
X480265Y729811D01*
X480245Y729813D01*
X480227Y729821D01*
X480060Y729839D01*
X365760Y729839D01*
X365740Y729836D01*
X365721Y729838D01*
X365619Y729816D01*
X365517Y729800D01*
X365500Y729790D01*
X365480Y729786D01*
X365391Y729733D01*
X365300Y729684D01*
X365286Y729670D01*
X365269Y729660D01*
X365202Y729581D01*
X365131Y729506D01*
X365122Y729488D01*
X365109Y729473D01*
X365070Y729377D01*
X365027Y729283D01*
X365025Y729263D01*
X365017Y729245D01*
X364999Y729078D01*
X364999Y543560D01*
X365002Y543540D01*
X365000Y543521D01*
X365022Y543419D01*
X365039Y543317D01*
X365048Y543300D01*
X365052Y543280D01*
X365105Y543191D01*
X365154Y543100D01*
X365168Y543086D01*
X365178Y543069D01*
X365257Y543002D01*
X365332Y542931D01*
X365350Y542922D01*
X365365Y542909D01*
X365461Y542870D01*
X365555Y542827D01*
X365575Y542825D01*
X365593Y542817D01*
X365760Y542799D01*
X480060Y542799D01*
X480080Y542802D01*
G37*
G36*
X607080Y542802D02*
X607080Y542802D01*
X607099Y542800D01*
X607201Y542822D01*
X607303Y542839D01*
X607320Y542848D01*
X607340Y542852D01*
X607429Y542905D01*
X607520Y542954D01*
X607534Y542968D01*
X607551Y542978D01*
X607618Y543057D01*
X607690Y543132D01*
X607698Y543150D01*
X607711Y543165D01*
X607750Y543261D01*
X607793Y543355D01*
X607795Y543375D01*
X607803Y543393D01*
X607821Y543560D01*
X607821Y729078D01*
X607818Y729098D01*
X607820Y729117D01*
X607798Y729219D01*
X607782Y729321D01*
X607772Y729338D01*
X607768Y729358D01*
X607715Y729447D01*
X607666Y729538D01*
X607652Y729552D01*
X607642Y729569D01*
X607563Y729636D01*
X607488Y729708D01*
X607470Y729716D01*
X607455Y729729D01*
X607359Y729768D01*
X607265Y729811D01*
X607245Y729813D01*
X607227Y729821D01*
X607060Y729839D01*
X492760Y729839D01*
X492740Y729836D01*
X492721Y729838D01*
X492619Y729816D01*
X492517Y729800D01*
X492500Y729790D01*
X492480Y729786D01*
X492391Y729733D01*
X492300Y729684D01*
X492286Y729670D01*
X492269Y729660D01*
X492202Y729581D01*
X492131Y729506D01*
X492122Y729488D01*
X492109Y729473D01*
X492070Y729377D01*
X492027Y729283D01*
X492025Y729263D01*
X492017Y729245D01*
X491999Y729078D01*
X491999Y591369D01*
X491584Y590845D01*
X491556Y590800D01*
X491522Y590761D01*
X491466Y590654D01*
X491402Y590551D01*
X491386Y590501D01*
X491361Y590454D01*
X491331Y590337D01*
X491293Y590223D01*
X491288Y590171D01*
X491275Y590120D01*
X491261Y589915D01*
X491261Y558165D01*
X491268Y558100D01*
X491266Y558035D01*
X491288Y557929D01*
X491301Y557822D01*
X491323Y557760D01*
X491336Y557696D01*
X491381Y557598D01*
X491418Y557496D01*
X491454Y557442D01*
X491481Y557383D01*
X491600Y557215D01*
X491999Y556728D01*
X491999Y543560D01*
X492002Y543540D01*
X492000Y543521D01*
X492022Y543419D01*
X492039Y543317D01*
X492048Y543300D01*
X492052Y543280D01*
X492105Y543191D01*
X492154Y543100D01*
X492168Y543086D01*
X492178Y543069D01*
X492257Y543002D01*
X492332Y542931D01*
X492350Y542922D01*
X492365Y542909D01*
X492461Y542870D01*
X492555Y542827D01*
X492575Y542825D01*
X492593Y542817D01*
X492760Y542799D01*
X607060Y542799D01*
X607080Y542802D01*
G37*
%LPC*%
G36*
X1007578Y141985D02*
X1007578Y141985D01*
X1003750Y143571D01*
X1000821Y146500D01*
X999235Y150328D01*
X999235Y190032D01*
X1000821Y193860D01*
X1026610Y219649D01*
X1030438Y221235D01*
X1034582Y221235D01*
X1038410Y219649D01*
X1041339Y216720D01*
X1042431Y214085D01*
X1042492Y213985D01*
X1042552Y213885D01*
X1042557Y213881D01*
X1042560Y213876D01*
X1042650Y213801D01*
X1042739Y213725D01*
X1042745Y213723D01*
X1042750Y213719D01*
X1042858Y213677D01*
X1042967Y213633D01*
X1042975Y213632D01*
X1042979Y213631D01*
X1042998Y213630D01*
X1043134Y213615D01*
X1043472Y213615D01*
X1047300Y212029D01*
X1050229Y209100D01*
X1051815Y205272D01*
X1051815Y201128D01*
X1050229Y197300D01*
X1032988Y180059D01*
X1032935Y179985D01*
X1032875Y179916D01*
X1032863Y179885D01*
X1032844Y179859D01*
X1032817Y179772D01*
X1032783Y179687D01*
X1032779Y179647D01*
X1032772Y179624D01*
X1032773Y179592D01*
X1032765Y179521D01*
X1032765Y150328D01*
X1031179Y146500D01*
X1028250Y143571D01*
X1024422Y141985D01*
X1020278Y141985D01*
X1016370Y143604D01*
X1016339Y143626D01*
X1016320Y143632D01*
X1016303Y143643D01*
X1016203Y143668D01*
X1016104Y143699D01*
X1016084Y143698D01*
X1016064Y143703D01*
X1015962Y143695D01*
X1015858Y143693D01*
X1015839Y143686D01*
X1015819Y143684D01*
X1015724Y143644D01*
X1015627Y143608D01*
X1015613Y143597D01*
X1011722Y141985D01*
X1007578Y141985D01*
G37*
%LPD*%
%LPC*%
G36*
X1495959Y564135D02*
X1495959Y564135D01*
X1488584Y567190D01*
X1482940Y572834D01*
X1479885Y580209D01*
X1479885Y588191D01*
X1482940Y595566D01*
X1488584Y601210D01*
X1495959Y604265D01*
X1535941Y604265D01*
X1543316Y601210D01*
X1548960Y595566D01*
X1552015Y588191D01*
X1552015Y580209D01*
X1548960Y572834D01*
X1543316Y567190D01*
X1535941Y564135D01*
X1495959Y564135D01*
G37*
%LPD*%
%LPC*%
G36*
X1495959Y489055D02*
X1495959Y489055D01*
X1488584Y492110D01*
X1482940Y497754D01*
X1479885Y505129D01*
X1479885Y513111D01*
X1482940Y520486D01*
X1488584Y526130D01*
X1495959Y529185D01*
X1535941Y529185D01*
X1543316Y526130D01*
X1548960Y520486D01*
X1552015Y513111D01*
X1552015Y505129D01*
X1548960Y497754D01*
X1543316Y492110D01*
X1535941Y489055D01*
X1495959Y489055D01*
G37*
%LPD*%
%LPC*%
G36*
X301058Y550189D02*
X301058Y550189D01*
X294023Y552074D01*
X287716Y555716D01*
X282566Y560866D01*
X278924Y567173D01*
X277039Y574208D01*
X277039Y581492D01*
X278924Y588527D01*
X282566Y594834D01*
X287716Y599984D01*
X294023Y603626D01*
X301058Y605511D01*
X308342Y605511D01*
X315377Y603626D01*
X321684Y599984D01*
X326834Y594834D01*
X330476Y588527D01*
X332361Y581492D01*
X332361Y574208D01*
X330476Y567173D01*
X326834Y560866D01*
X321684Y555716D01*
X315377Y552074D01*
X308342Y550189D01*
X301058Y550189D01*
G37*
%LPD*%
%LPC*%
G36*
X228058Y550189D02*
X228058Y550189D01*
X221023Y552074D01*
X214716Y555716D01*
X209566Y560866D01*
X205924Y567173D01*
X204039Y574208D01*
X204039Y581492D01*
X205924Y588527D01*
X209566Y594834D01*
X214716Y599984D01*
X221023Y603626D01*
X228058Y605511D01*
X235342Y605511D01*
X242377Y603626D01*
X248684Y599984D01*
X253834Y594834D01*
X257476Y588527D01*
X259361Y581492D01*
X259361Y574208D01*
X257476Y567173D01*
X253834Y560866D01*
X248684Y555716D01*
X242377Y552074D01*
X235342Y550189D01*
X228058Y550189D01*
G37*
%LPD*%
%LPC*%
G36*
X123258Y550189D02*
X123258Y550189D01*
X116223Y552074D01*
X109916Y555716D01*
X104766Y560866D01*
X101124Y567173D01*
X99239Y574208D01*
X99239Y581492D01*
X101124Y588527D01*
X104766Y594834D01*
X109916Y599984D01*
X116223Y603626D01*
X123258Y605511D01*
X130542Y605511D01*
X137577Y603626D01*
X143884Y599984D01*
X149034Y594834D01*
X152676Y588527D01*
X154561Y581492D01*
X154561Y574208D01*
X152676Y567173D01*
X149034Y560866D01*
X143884Y555716D01*
X137577Y552074D01*
X130542Y550189D01*
X123258Y550189D01*
G37*
%LPD*%
%LPC*%
G36*
X50258Y550189D02*
X50258Y550189D01*
X43223Y552074D01*
X36916Y555716D01*
X31766Y560866D01*
X28124Y567173D01*
X26239Y574208D01*
X26239Y581492D01*
X28124Y588527D01*
X31766Y594834D01*
X36916Y599984D01*
X43223Y603626D01*
X50258Y605511D01*
X57542Y605511D01*
X64577Y603626D01*
X70884Y599984D01*
X76034Y594834D01*
X79676Y588527D01*
X81561Y581492D01*
X81561Y574208D01*
X79676Y567173D01*
X76034Y560866D01*
X70884Y555716D01*
X64577Y552074D01*
X57542Y550189D01*
X50258Y550189D01*
G37*
%LPD*%
%LPC*%
G36*
X233390Y306245D02*
X233390Y306245D01*
X229859Y307708D01*
X227158Y310409D01*
X225695Y313940D01*
X225695Y317760D01*
X227163Y321303D01*
X227208Y321374D01*
X227268Y321458D01*
X227274Y321477D01*
X227285Y321494D01*
X227310Y321594D01*
X227341Y321693D01*
X227340Y321713D01*
X227345Y321732D01*
X227337Y321835D01*
X227334Y321939D01*
X227328Y321957D01*
X227326Y321977D01*
X227286Y322072D01*
X227250Y322170D01*
X227237Y322185D01*
X227230Y322204D01*
X227125Y322335D01*
X181637Y367822D01*
X181563Y367875D01*
X181494Y367935D01*
X181464Y367947D01*
X181437Y367966D01*
X181351Y367993D01*
X181266Y368027D01*
X181225Y368031D01*
X181202Y368038D01*
X181170Y368037D01*
X181099Y368045D01*
X112661Y368045D01*
X112596Y368035D01*
X112530Y368034D01*
X112450Y368011D01*
X112418Y368006D01*
X112401Y367996D01*
X112369Y367987D01*
X109511Y366803D01*
X106389Y366803D01*
X103505Y367998D01*
X101298Y370205D01*
X100103Y373089D01*
X100103Y376211D01*
X101298Y379095D01*
X103505Y381302D01*
X106389Y382497D01*
X109511Y382497D01*
X112369Y381313D01*
X112433Y381298D01*
X112494Y381273D01*
X112577Y381264D01*
X112609Y381257D01*
X112628Y381258D01*
X112661Y381255D01*
X185464Y381255D01*
X187891Y380249D01*
X189856Y378284D01*
X240899Y327241D01*
X241905Y324814D01*
X241905Y323144D01*
X241919Y323054D01*
X241927Y322963D01*
X241939Y322933D01*
X241944Y322901D01*
X241987Y322820D01*
X242023Y322736D01*
X242049Y322704D01*
X242060Y322684D01*
X242083Y322661D01*
X242128Y322605D01*
X243442Y321291D01*
X244905Y317760D01*
X244905Y313940D01*
X243442Y310409D01*
X240741Y307708D01*
X237210Y306245D01*
X233390Y306245D01*
G37*
%LPD*%
%LPC*%
G36*
X1063488Y324089D02*
X1063488Y324089D01*
X1057088Y325804D01*
X1051351Y329116D01*
X1046666Y333801D01*
X1043354Y339538D01*
X1041639Y345938D01*
X1041639Y352562D01*
X1043354Y358962D01*
X1046666Y364699D01*
X1051351Y369384D01*
X1057088Y372696D01*
X1063488Y374411D01*
X1070112Y374411D01*
X1076512Y372696D01*
X1082249Y369384D01*
X1086934Y364699D01*
X1090246Y358962D01*
X1091961Y352562D01*
X1091961Y345938D01*
X1090246Y339538D01*
X1086934Y333801D01*
X1082249Y329116D01*
X1076512Y325804D01*
X1070112Y324089D01*
X1063488Y324089D01*
G37*
%LPD*%
%LPC*%
G36*
X1530688Y436059D02*
X1530688Y436059D01*
X1524288Y437774D01*
X1518551Y441086D01*
X1513866Y445771D01*
X1510554Y451508D01*
X1508839Y457908D01*
X1508839Y464532D01*
X1510554Y470932D01*
X1513866Y476669D01*
X1518551Y481354D01*
X1524288Y484666D01*
X1530688Y486381D01*
X1537312Y486381D01*
X1543712Y484666D01*
X1549449Y481354D01*
X1554134Y476669D01*
X1557446Y470932D01*
X1559161Y464532D01*
X1559161Y457908D01*
X1557446Y451508D01*
X1554134Y445771D01*
X1549449Y441086D01*
X1543712Y437774D01*
X1537312Y436059D01*
X1530688Y436059D01*
G37*
%LPD*%
%LPC*%
G36*
X1215888Y621269D02*
X1215888Y621269D01*
X1209488Y622984D01*
X1203751Y626296D01*
X1199066Y630981D01*
X1195754Y636718D01*
X1194039Y643118D01*
X1194039Y649742D01*
X1195754Y656142D01*
X1199066Y661879D01*
X1203751Y666564D01*
X1209488Y669876D01*
X1215888Y671591D01*
X1222512Y671591D01*
X1228912Y669876D01*
X1234649Y666564D01*
X1239334Y661879D01*
X1242646Y656142D01*
X1244361Y649742D01*
X1244361Y643118D01*
X1242646Y636718D01*
X1239334Y630981D01*
X1234649Y626296D01*
X1228912Y622984D01*
X1222512Y621269D01*
X1215888Y621269D01*
G37*
%LPD*%
%LPC*%
G36*
X1331939Y404903D02*
X1331939Y404903D01*
X1329055Y406098D01*
X1326848Y408305D01*
X1325653Y411189D01*
X1325653Y414311D01*
X1326329Y415943D01*
X1326344Y416007D01*
X1326369Y416068D01*
X1326378Y416150D01*
X1326385Y416182D01*
X1326384Y416202D01*
X1326387Y416234D01*
X1326387Y452265D01*
X1327470Y454879D01*
X1351407Y478816D01*
X1351445Y478869D01*
X1351491Y478916D01*
X1351531Y478989D01*
X1351550Y479015D01*
X1351556Y479034D01*
X1351572Y479063D01*
X1352248Y480695D01*
X1354455Y482902D01*
X1357339Y484097D01*
X1360461Y484097D01*
X1363345Y482902D01*
X1365552Y480695D01*
X1366747Y477811D01*
X1366747Y474689D01*
X1365552Y471805D01*
X1363345Y469598D01*
X1361713Y468922D01*
X1361657Y468887D01*
X1361597Y468862D01*
X1361532Y468810D01*
X1361504Y468792D01*
X1361491Y468777D01*
X1361466Y468757D01*
X1340836Y448127D01*
X1340783Y448053D01*
X1340723Y447983D01*
X1340711Y447953D01*
X1340692Y447927D01*
X1340665Y447840D01*
X1340631Y447755D01*
X1340627Y447714D01*
X1340620Y447692D01*
X1340621Y447660D01*
X1340613Y447588D01*
X1340613Y416234D01*
X1340623Y416170D01*
X1340624Y416104D01*
X1340647Y416024D01*
X1340652Y415991D01*
X1340662Y415974D01*
X1340671Y415943D01*
X1341347Y414311D01*
X1341347Y411189D01*
X1340152Y408305D01*
X1337945Y406098D01*
X1335061Y404903D01*
X1331939Y404903D01*
G37*
%LPD*%
%LPC*%
G36*
X1507639Y374439D02*
X1507639Y374439D01*
X1500596Y377356D01*
X1495206Y382746D01*
X1492289Y389789D01*
X1492289Y397411D01*
X1495206Y404454D01*
X1500596Y409844D01*
X1507639Y412761D01*
X1515261Y412761D01*
X1522304Y409844D01*
X1527694Y404454D01*
X1530611Y397411D01*
X1530611Y389789D01*
X1527694Y382746D01*
X1522304Y377356D01*
X1515261Y374439D01*
X1507639Y374439D01*
G37*
%LPD*%
%LPC*%
G36*
X878739Y628689D02*
X878739Y628689D01*
X871696Y631606D01*
X866306Y636996D01*
X863389Y644039D01*
X863389Y651661D01*
X866306Y658704D01*
X871696Y664094D01*
X878739Y667011D01*
X886361Y667011D01*
X893404Y664094D01*
X898794Y658704D01*
X901711Y651661D01*
X901711Y644039D01*
X898794Y636996D01*
X893404Y631606D01*
X886361Y628689D01*
X878739Y628689D01*
G37*
%LPD*%
%LPC*%
G36*
X802739Y628689D02*
X802739Y628689D01*
X795696Y631606D01*
X790306Y636996D01*
X787389Y644039D01*
X787389Y651661D01*
X790306Y658704D01*
X795696Y664094D01*
X802739Y667011D01*
X810361Y667011D01*
X817404Y664094D01*
X822794Y658704D01*
X825711Y651661D01*
X825711Y644039D01*
X822794Y636996D01*
X817404Y631606D01*
X810361Y628689D01*
X802739Y628689D01*
G37*
%LPD*%
%LPC*%
G36*
X726339Y628689D02*
X726339Y628689D01*
X719296Y631606D01*
X713906Y636996D01*
X710989Y644039D01*
X710989Y651661D01*
X713906Y658704D01*
X719296Y664094D01*
X726339Y667011D01*
X733961Y667011D01*
X741004Y664094D01*
X746394Y658704D01*
X749311Y651661D01*
X749311Y644039D01*
X746394Y636996D01*
X741004Y631606D01*
X733961Y628689D01*
X726339Y628689D01*
G37*
%LPD*%
%LPC*%
G36*
X650339Y628689D02*
X650339Y628689D01*
X643296Y631606D01*
X637906Y636996D01*
X634989Y644039D01*
X634989Y651661D01*
X637906Y658704D01*
X643296Y664094D01*
X650339Y667011D01*
X657961Y667011D01*
X665004Y664094D01*
X670394Y658704D01*
X673311Y651661D01*
X673311Y644039D01*
X670394Y636996D01*
X665004Y631606D01*
X657961Y628689D01*
X650339Y628689D01*
G37*
%LPD*%
%LPC*%
G36*
X1507639Y298439D02*
X1507639Y298439D01*
X1500596Y301356D01*
X1495206Y306746D01*
X1492289Y313789D01*
X1492289Y321411D01*
X1495206Y328454D01*
X1500596Y333844D01*
X1507639Y336761D01*
X1515261Y336761D01*
X1522304Y333844D01*
X1527694Y328454D01*
X1530611Y321411D01*
X1530611Y313789D01*
X1527694Y306746D01*
X1522304Y301356D01*
X1515261Y298439D01*
X1507639Y298439D01*
G37*
%LPD*%
%LPC*%
G36*
X1215176Y683205D02*
X1215176Y683205D01*
X1212795Y685586D01*
X1212795Y713954D01*
X1215176Y716335D01*
X1243544Y716335D01*
X1245925Y713954D01*
X1245925Y685586D01*
X1243544Y683205D01*
X1215176Y683205D01*
G37*
%LPD*%
%LPC*%
G36*
X1215176Y286965D02*
X1215176Y286965D01*
X1212795Y289346D01*
X1212795Y317714D01*
X1215176Y320095D01*
X1243544Y320095D01*
X1245925Y317714D01*
X1245925Y289346D01*
X1243544Y286965D01*
X1215176Y286965D01*
G37*
%LPD*%
%LPC*%
G36*
X465010Y348475D02*
X465010Y348475D01*
X460759Y350236D01*
X457506Y353489D01*
X455745Y357740D01*
X455745Y362340D01*
X457506Y366591D01*
X460759Y369844D01*
X465010Y371605D01*
X469610Y371605D01*
X473861Y369844D01*
X477114Y366591D01*
X477191Y366405D01*
X477246Y366316D01*
X477298Y366224D01*
X477311Y366212D01*
X477321Y366196D01*
X477402Y366129D01*
X477479Y366058D01*
X477496Y366051D01*
X477510Y366039D01*
X477608Y366002D01*
X477705Y365959D01*
X477723Y365958D01*
X477740Y365951D01*
X477845Y365947D01*
X477950Y365937D01*
X477967Y365942D01*
X477985Y365941D01*
X478086Y365970D01*
X478189Y365995D01*
X478204Y366004D01*
X478222Y366009D01*
X478308Y366069D01*
X478397Y366125D01*
X478412Y366142D01*
X478424Y366150D01*
X478443Y366175D01*
X478510Y366249D01*
X478751Y366581D01*
X479869Y367699D01*
X481147Y368628D01*
X482556Y369345D01*
X484059Y369834D01*
X484887Y369965D01*
X484887Y360802D01*
X484890Y360782D01*
X484888Y360763D01*
X484910Y360661D01*
X484927Y360559D01*
X484936Y360542D01*
X484940Y360522D01*
X484993Y360433D01*
X485042Y360342D01*
X485056Y360328D01*
X485066Y360311D01*
X485145Y360244D01*
X485220Y360173D01*
X485238Y360164D01*
X485253Y360151D01*
X485349Y360113D01*
X485443Y360069D01*
X485463Y360067D01*
X485481Y360059D01*
X485648Y360041D01*
X487172Y360041D01*
X487192Y360044D01*
X487211Y360042D01*
X487313Y360064D01*
X487415Y360081D01*
X487432Y360090D01*
X487452Y360094D01*
X487541Y360147D01*
X487632Y360196D01*
X487646Y360210D01*
X487663Y360220D01*
X487730Y360299D01*
X487801Y360374D01*
X487810Y360392D01*
X487823Y360407D01*
X487862Y360503D01*
X487905Y360597D01*
X487907Y360617D01*
X487915Y360635D01*
X487933Y360802D01*
X487933Y369965D01*
X488761Y369834D01*
X490264Y369345D01*
X491673Y368628D01*
X492951Y367699D01*
X494069Y366581D01*
X494310Y366249D01*
X494385Y366175D01*
X494456Y366098D01*
X494472Y366089D01*
X494485Y366076D01*
X494579Y366030D01*
X494671Y365979D01*
X494689Y365976D01*
X494706Y365968D01*
X494810Y365954D01*
X494913Y365935D01*
X494931Y365938D01*
X494949Y365936D01*
X495052Y365956D01*
X495157Y365971D01*
X495173Y365979D01*
X495191Y365983D01*
X495282Y366035D01*
X495376Y366083D01*
X495389Y366096D01*
X495404Y366105D01*
X495475Y366183D01*
X495548Y366258D01*
X495559Y366278D01*
X495568Y366288D01*
X495581Y366317D01*
X495629Y366405D01*
X495706Y366591D01*
X498959Y369844D01*
X503210Y371605D01*
X507810Y371605D01*
X512061Y369844D01*
X515314Y366591D01*
X517075Y362340D01*
X517075Y357740D01*
X515314Y353489D01*
X512061Y350236D01*
X507810Y348475D01*
X503210Y348475D01*
X498959Y350236D01*
X495706Y353489D01*
X495629Y353675D01*
X495574Y353764D01*
X495522Y353856D01*
X495509Y353868D01*
X495499Y353884D01*
X495418Y353951D01*
X495341Y354022D01*
X495324Y354029D01*
X495310Y354041D01*
X495212Y354078D01*
X495115Y354121D01*
X495097Y354122D01*
X495080Y354129D01*
X494975Y354133D01*
X494870Y354143D01*
X494853Y354138D01*
X494835Y354139D01*
X494734Y354110D01*
X494631Y354085D01*
X494616Y354076D01*
X494598Y354071D01*
X494512Y354011D01*
X494423Y353955D01*
X494408Y353938D01*
X494396Y353930D01*
X494377Y353905D01*
X494310Y353831D01*
X494069Y353499D01*
X492951Y352381D01*
X491673Y351452D01*
X490264Y350735D01*
X488761Y350246D01*
X487933Y350115D01*
X487933Y359278D01*
X487930Y359298D01*
X487932Y359317D01*
X487910Y359419D01*
X487893Y359521D01*
X487884Y359538D01*
X487880Y359558D01*
X487827Y359647D01*
X487778Y359738D01*
X487764Y359752D01*
X487754Y359769D01*
X487675Y359836D01*
X487600Y359907D01*
X487582Y359916D01*
X487567Y359929D01*
X487471Y359967D01*
X487377Y360011D01*
X487357Y360013D01*
X487339Y360021D01*
X487172Y360039D01*
X485648Y360039D01*
X485628Y360036D01*
X485609Y360038D01*
X485507Y360016D01*
X485405Y359999D01*
X485388Y359990D01*
X485368Y359986D01*
X485279Y359933D01*
X485188Y359884D01*
X485174Y359870D01*
X485157Y359860D01*
X485090Y359781D01*
X485019Y359706D01*
X485010Y359688D01*
X484997Y359673D01*
X484958Y359577D01*
X484915Y359483D01*
X484913Y359463D01*
X484905Y359445D01*
X484887Y359278D01*
X484887Y350115D01*
X484059Y350246D01*
X482556Y350735D01*
X481147Y351452D01*
X479869Y352381D01*
X478751Y353499D01*
X478510Y353831D01*
X478435Y353905D01*
X478364Y353982D01*
X478348Y353991D01*
X478335Y354004D01*
X478241Y354050D01*
X478149Y354101D01*
X478131Y354104D01*
X478114Y354112D01*
X478010Y354126D01*
X477907Y354145D01*
X477889Y354142D01*
X477871Y354144D01*
X477768Y354124D01*
X477663Y354109D01*
X477647Y354101D01*
X477629Y354097D01*
X477538Y354045D01*
X477444Y353997D01*
X477431Y353984D01*
X477416Y353975D01*
X477345Y353897D01*
X477272Y353822D01*
X477261Y353802D01*
X477252Y353792D01*
X477239Y353763D01*
X477191Y353675D01*
X477114Y353489D01*
X473861Y350236D01*
X469610Y348475D01*
X465010Y348475D01*
G37*
%LPD*%
%LPC*%
G36*
X646139Y468403D02*
X646139Y468403D01*
X643255Y469598D01*
X641048Y471805D01*
X640372Y473437D01*
X640337Y473493D01*
X640312Y473553D01*
X640260Y473618D01*
X640242Y473646D01*
X640227Y473659D01*
X640207Y473684D01*
X635320Y478571D01*
X634237Y481185D01*
X634237Y504516D01*
X634227Y504580D01*
X634226Y504646D01*
X634203Y504726D01*
X634198Y504759D01*
X634188Y504776D01*
X634179Y504807D01*
X633503Y506439D01*
X633503Y509561D01*
X634698Y512445D01*
X636905Y514652D01*
X639789Y515847D01*
X642911Y515847D01*
X645795Y514652D01*
X648002Y512445D01*
X649197Y509561D01*
X649197Y506439D01*
X648521Y504807D01*
X648506Y504743D01*
X648481Y504682D01*
X648472Y504600D01*
X648465Y504568D01*
X648466Y504548D01*
X648463Y504516D01*
X648463Y485862D01*
X648477Y485771D01*
X648485Y485681D01*
X648497Y485651D01*
X648502Y485619D01*
X648545Y485538D01*
X648581Y485454D01*
X648607Y485422D01*
X648618Y485401D01*
X648641Y485379D01*
X648686Y485323D01*
X650266Y483743D01*
X650319Y483705D01*
X650366Y483659D01*
X650439Y483619D01*
X650465Y483600D01*
X650484Y483594D01*
X650513Y483578D01*
X652145Y482902D01*
X654352Y480695D01*
X655547Y477811D01*
X655547Y474689D01*
X654352Y471805D01*
X652145Y469598D01*
X649261Y468403D01*
X646139Y468403D01*
G37*
%LPD*%
%LPC*%
G36*
X1463777Y324660D02*
X1463777Y324660D01*
X1458837Y326706D01*
X1455056Y330487D01*
X1453010Y335427D01*
X1453010Y340773D01*
X1455056Y345713D01*
X1458837Y349494D01*
X1463777Y351540D01*
X1469123Y351540D01*
X1474063Y349494D01*
X1477844Y345713D01*
X1479890Y340773D01*
X1479890Y335427D01*
X1477844Y330487D01*
X1474063Y326706D01*
X1469123Y324660D01*
X1463777Y324660D01*
G37*
%LPD*%
%LPC*%
G36*
X1463777Y359660D02*
X1463777Y359660D01*
X1458837Y361706D01*
X1455056Y365487D01*
X1453010Y370427D01*
X1453010Y375773D01*
X1455056Y380713D01*
X1458837Y384494D01*
X1463777Y386540D01*
X1469123Y386540D01*
X1474063Y384494D01*
X1477844Y380713D01*
X1479890Y375773D01*
X1479890Y370427D01*
X1477844Y365487D01*
X1474063Y361706D01*
X1469123Y359660D01*
X1463777Y359660D01*
G37*
%LPD*%
%LPC*%
G36*
X859377Y589410D02*
X859377Y589410D01*
X854437Y591456D01*
X850656Y595237D01*
X848610Y600177D01*
X848610Y605523D01*
X850656Y610463D01*
X854437Y614244D01*
X859377Y616290D01*
X864723Y616290D01*
X869663Y614244D01*
X873444Y610463D01*
X875490Y605523D01*
X875490Y600177D01*
X873444Y595237D01*
X869663Y591456D01*
X864723Y589410D01*
X859377Y589410D01*
G37*
%LPD*%
%LPC*%
G36*
X706977Y589410D02*
X706977Y589410D01*
X702037Y591456D01*
X698256Y595237D01*
X696210Y600177D01*
X696210Y605523D01*
X698256Y610463D01*
X702037Y614244D01*
X706977Y616290D01*
X712323Y616290D01*
X717263Y614244D01*
X721044Y610463D01*
X723090Y605523D01*
X723090Y600177D01*
X721044Y595237D01*
X717263Y591456D01*
X712323Y589410D01*
X706977Y589410D01*
G37*
%LPD*%
%LPC*%
G36*
X1517473Y660803D02*
X1517473Y660803D01*
X1517473Y677821D01*
X1533165Y677821D01*
X1535575Y677503D01*
X1537922Y676874D01*
X1540168Y675944D01*
X1542273Y674729D01*
X1544201Y673250D01*
X1545920Y671531D01*
X1547399Y669603D01*
X1548614Y667498D01*
X1549544Y665252D01*
X1550173Y662905D01*
X1550450Y660803D01*
X1517473Y660803D01*
G37*
%LPD*%
%LPC*%
G36*
X1481450Y660803D02*
X1481450Y660803D01*
X1481727Y662905D01*
X1482356Y665252D01*
X1483286Y667498D01*
X1484501Y669603D01*
X1485980Y671531D01*
X1487699Y673250D01*
X1489627Y674729D01*
X1491732Y675944D01*
X1493978Y676874D01*
X1496325Y677503D01*
X1498735Y677821D01*
X1514427Y677821D01*
X1514427Y660803D01*
X1481450Y660803D01*
G37*
%LPD*%
%LPC*%
G36*
X1517473Y640739D02*
X1517473Y640739D01*
X1517473Y657757D01*
X1550450Y657757D01*
X1550173Y655655D01*
X1549544Y653308D01*
X1548614Y651062D01*
X1547399Y648957D01*
X1545920Y647029D01*
X1544201Y645310D01*
X1542273Y643831D01*
X1540168Y642616D01*
X1537922Y641686D01*
X1535575Y641057D01*
X1533165Y640739D01*
X1517473Y640739D01*
G37*
%LPD*%
%LPC*%
G36*
X1498735Y640739D02*
X1498735Y640739D01*
X1496325Y641057D01*
X1493978Y641686D01*
X1491732Y642616D01*
X1489627Y643831D01*
X1487699Y645310D01*
X1485980Y647029D01*
X1484501Y648957D01*
X1483286Y651062D01*
X1482356Y653308D01*
X1481727Y655655D01*
X1481450Y657757D01*
X1514427Y657757D01*
X1514427Y640739D01*
X1498735Y640739D01*
G37*
%LPD*%
%LPC*%
G36*
X1160830Y72535D02*
X1160830Y72535D01*
X1156359Y74387D01*
X1152937Y77809D01*
X1151085Y82280D01*
X1151085Y87120D01*
X1152937Y91591D01*
X1156359Y95013D01*
X1160830Y96865D01*
X1165670Y96865D01*
X1170141Y95013D01*
X1173563Y91591D01*
X1175415Y87120D01*
X1175415Y82280D01*
X1173563Y77809D01*
X1170141Y74387D01*
X1165670Y72535D01*
X1160830Y72535D01*
G37*
%LPD*%
%LPC*%
G36*
X1490830Y111935D02*
X1490830Y111935D01*
X1486359Y113787D01*
X1482937Y117209D01*
X1481085Y121680D01*
X1481085Y126520D01*
X1482937Y130991D01*
X1486359Y134413D01*
X1490830Y136265D01*
X1495670Y136265D01*
X1500141Y134413D01*
X1503563Y130991D01*
X1505415Y126520D01*
X1505415Y121680D01*
X1503563Y117209D01*
X1500141Y113787D01*
X1495670Y111935D01*
X1490830Y111935D01*
G37*
%LPD*%
%LPC*%
G36*
X1280830Y72535D02*
X1280830Y72535D01*
X1276359Y74387D01*
X1272937Y77809D01*
X1271085Y82280D01*
X1271085Y87120D01*
X1272937Y91591D01*
X1276359Y95013D01*
X1280830Y96865D01*
X1285670Y96865D01*
X1290141Y95013D01*
X1293563Y91591D01*
X1295415Y87120D01*
X1295415Y82280D01*
X1293563Y77809D01*
X1290141Y74387D01*
X1285670Y72535D01*
X1280830Y72535D01*
G37*
%LPD*%
%LPC*%
G36*
X1310830Y72535D02*
X1310830Y72535D01*
X1306359Y74387D01*
X1302937Y77809D01*
X1301085Y82280D01*
X1301085Y87120D01*
X1302937Y91591D01*
X1306359Y95013D01*
X1310830Y96865D01*
X1315670Y96865D01*
X1320141Y95013D01*
X1323563Y91591D01*
X1325415Y87120D01*
X1325415Y82280D01*
X1323563Y77809D01*
X1320141Y74387D01*
X1315670Y72535D01*
X1310830Y72535D01*
G37*
%LPD*%
%LPC*%
G36*
X1340830Y111935D02*
X1340830Y111935D01*
X1336359Y113787D01*
X1332937Y117209D01*
X1331085Y121680D01*
X1331085Y126520D01*
X1332937Y130991D01*
X1336359Y134413D01*
X1340830Y136265D01*
X1345670Y136265D01*
X1350141Y134413D01*
X1353563Y130991D01*
X1355415Y126520D01*
X1355415Y121680D01*
X1353563Y117209D01*
X1350141Y113787D01*
X1345670Y111935D01*
X1340830Y111935D01*
G37*
%LPD*%
%LPC*%
G36*
X1100830Y111935D02*
X1100830Y111935D01*
X1096359Y113787D01*
X1092937Y117209D01*
X1091085Y121680D01*
X1091085Y126520D01*
X1092937Y130991D01*
X1096359Y134413D01*
X1100830Y136265D01*
X1105670Y136265D01*
X1110141Y134413D01*
X1113563Y130991D01*
X1115415Y126520D01*
X1115415Y121680D01*
X1113563Y117209D01*
X1110141Y113787D01*
X1105670Y111935D01*
X1100830Y111935D01*
G37*
%LPD*%
%LPC*%
G36*
X1190830Y111935D02*
X1190830Y111935D01*
X1186359Y113787D01*
X1182937Y117209D01*
X1181085Y121680D01*
X1181085Y126520D01*
X1182937Y130991D01*
X1186359Y134413D01*
X1190830Y136265D01*
X1195670Y136265D01*
X1200141Y134413D01*
X1203563Y130991D01*
X1205415Y126520D01*
X1205415Y121680D01*
X1203563Y117209D01*
X1200141Y113787D01*
X1195670Y111935D01*
X1190830Y111935D01*
G37*
%LPD*%
%LPC*%
G36*
X1430830Y72535D02*
X1430830Y72535D01*
X1426359Y74387D01*
X1422937Y77809D01*
X1421085Y82280D01*
X1421085Y87120D01*
X1422937Y91591D01*
X1426359Y95013D01*
X1430830Y96865D01*
X1435670Y96865D01*
X1440141Y95013D01*
X1443563Y91591D01*
X1445415Y87120D01*
X1445415Y82280D01*
X1443563Y77809D01*
X1440141Y74387D01*
X1435670Y72535D01*
X1430830Y72535D01*
G37*
%LPD*%
%LPC*%
G36*
X1460830Y72535D02*
X1460830Y72535D01*
X1456359Y74387D01*
X1452937Y77809D01*
X1451085Y82280D01*
X1451085Y87120D01*
X1452937Y91591D01*
X1456359Y95013D01*
X1460830Y96865D01*
X1465670Y96865D01*
X1470141Y95013D01*
X1473563Y91591D01*
X1475415Y87120D01*
X1475415Y82280D01*
X1473563Y77809D01*
X1470141Y74387D01*
X1465670Y72535D01*
X1460830Y72535D01*
G37*
%LPD*%
%LPC*%
G36*
X1130830Y72535D02*
X1130830Y72535D01*
X1126359Y74387D01*
X1122937Y77809D01*
X1121085Y82280D01*
X1121085Y87120D01*
X1122937Y91591D01*
X1126359Y95013D01*
X1130830Y96865D01*
X1135670Y96865D01*
X1140141Y95013D01*
X1143563Y91591D01*
X1145415Y87120D01*
X1145415Y82280D01*
X1143563Y77809D01*
X1140141Y74387D01*
X1135670Y72535D01*
X1130830Y72535D01*
G37*
%LPD*%
%LPC*%
G36*
X1160830Y102535D02*
X1160830Y102535D01*
X1156359Y104387D01*
X1152937Y107809D01*
X1151085Y112280D01*
X1151085Y117120D01*
X1152937Y121591D01*
X1156359Y125013D01*
X1160830Y126865D01*
X1165670Y126865D01*
X1170141Y125013D01*
X1173563Y121591D01*
X1175415Y117120D01*
X1175415Y112280D01*
X1173563Y107809D01*
X1170141Y104387D01*
X1165670Y102535D01*
X1160830Y102535D01*
G37*
%LPD*%
%LPC*%
G36*
X1400830Y111935D02*
X1400830Y111935D01*
X1396359Y113787D01*
X1392937Y117209D01*
X1391085Y121680D01*
X1391085Y126520D01*
X1392937Y130991D01*
X1396359Y134413D01*
X1400830Y136265D01*
X1405670Y136265D01*
X1410141Y134413D01*
X1413563Y130991D01*
X1415415Y126520D01*
X1415415Y121680D01*
X1413563Y117209D01*
X1410141Y113787D01*
X1405670Y111935D01*
X1400830Y111935D01*
G37*
%LPD*%
%LPC*%
G36*
X1310830Y102535D02*
X1310830Y102535D01*
X1306359Y104387D01*
X1302937Y107809D01*
X1301085Y112280D01*
X1301085Y117120D01*
X1302937Y121591D01*
X1306359Y125013D01*
X1310830Y126865D01*
X1315670Y126865D01*
X1320141Y125013D01*
X1323563Y121591D01*
X1325415Y117120D01*
X1325415Y112280D01*
X1323563Y107809D01*
X1320141Y104387D01*
X1315670Y102535D01*
X1310830Y102535D01*
G37*
%LPD*%
%LPC*%
G36*
X1460830Y102535D02*
X1460830Y102535D01*
X1456359Y104387D01*
X1452937Y107809D01*
X1451085Y112280D01*
X1451085Y117120D01*
X1452937Y121591D01*
X1456359Y125013D01*
X1460830Y126865D01*
X1465670Y126865D01*
X1470141Y125013D01*
X1473563Y121591D01*
X1475415Y117120D01*
X1475415Y112280D01*
X1473563Y107809D01*
X1470141Y104387D01*
X1465670Y102535D01*
X1460830Y102535D01*
G37*
%LPD*%
%LPC*%
G36*
X1250830Y111935D02*
X1250830Y111935D01*
X1246359Y113787D01*
X1242937Y117209D01*
X1241085Y121680D01*
X1241085Y126520D01*
X1242937Y130991D01*
X1246359Y134413D01*
X1250830Y136265D01*
X1255670Y136265D01*
X1260141Y134413D01*
X1263563Y130991D01*
X1265415Y126520D01*
X1265415Y121680D01*
X1263563Y117209D01*
X1260141Y113787D01*
X1255670Y111935D01*
X1250830Y111935D01*
G37*
%LPD*%
%LPC*%
G36*
X67641Y655695D02*
X67641Y655695D01*
X63560Y657386D01*
X60436Y660510D01*
X58745Y664591D01*
X58745Y669009D01*
X60436Y673090D01*
X63560Y676214D01*
X67641Y677905D01*
X72059Y677905D01*
X76140Y676214D01*
X79264Y673090D01*
X80955Y669009D01*
X80955Y664591D01*
X79264Y660510D01*
X76140Y657386D01*
X72059Y655695D01*
X67641Y655695D01*
G37*
%LPD*%
%LPC*%
G36*
X245441Y655695D02*
X245441Y655695D01*
X241360Y657386D01*
X238236Y660510D01*
X236545Y664591D01*
X236545Y669009D01*
X238236Y673090D01*
X241360Y676214D01*
X245441Y677905D01*
X249859Y677905D01*
X253940Y676214D01*
X257064Y673090D01*
X258755Y669009D01*
X258755Y664591D01*
X257064Y660510D01*
X253940Y657386D01*
X249859Y655695D01*
X245441Y655695D01*
G37*
%LPD*%
%LPC*%
G36*
X258141Y630245D02*
X258141Y630245D01*
X254060Y631936D01*
X250936Y635060D01*
X249245Y639141D01*
X249245Y643559D01*
X250936Y647640D01*
X254060Y650764D01*
X258141Y652455D01*
X262559Y652455D01*
X266640Y650764D01*
X269764Y647640D01*
X271455Y643559D01*
X271455Y639141D01*
X269764Y635060D01*
X266640Y631936D01*
X262559Y630245D01*
X258141Y630245D01*
G37*
%LPD*%
%LPC*%
G36*
X80341Y630245D02*
X80341Y630245D01*
X76260Y631936D01*
X73136Y635060D01*
X71445Y639141D01*
X71445Y643559D01*
X73136Y647640D01*
X76260Y650764D01*
X80341Y652455D01*
X84759Y652455D01*
X88840Y650764D01*
X91964Y647640D01*
X93655Y643559D01*
X93655Y639141D01*
X91964Y635060D01*
X88840Y631936D01*
X84759Y630245D01*
X80341Y630245D01*
G37*
%LPD*%
%LPC*%
G36*
X283541Y630245D02*
X283541Y630245D01*
X279460Y631936D01*
X276336Y635060D01*
X274645Y639141D01*
X274645Y643559D01*
X276336Y647640D01*
X279460Y650764D01*
X283541Y652455D01*
X287959Y652455D01*
X292040Y650764D01*
X295164Y647640D01*
X296855Y643559D01*
X296855Y639141D01*
X295164Y635060D01*
X292040Y631936D01*
X287959Y630245D01*
X283541Y630245D01*
G37*
%LPD*%
%LPC*%
G36*
X105741Y630245D02*
X105741Y630245D01*
X101660Y631936D01*
X98536Y635060D01*
X96845Y639141D01*
X96845Y643559D01*
X98536Y647640D01*
X101660Y650764D01*
X105741Y652455D01*
X110159Y652455D01*
X114240Y650764D01*
X117364Y647640D01*
X119055Y643559D01*
X119055Y639141D01*
X117364Y635060D01*
X114240Y631936D01*
X110159Y630245D01*
X105741Y630245D01*
G37*
%LPD*%
%LPC*%
G36*
X103390Y306245D02*
X103390Y306245D01*
X99859Y307708D01*
X97158Y310409D01*
X95695Y313940D01*
X95695Y317760D01*
X97158Y321291D01*
X99859Y323992D01*
X103390Y325455D01*
X107210Y325455D01*
X110741Y323992D01*
X113442Y321291D01*
X114905Y317760D01*
X114905Y313940D01*
X113442Y310409D01*
X110741Y307708D01*
X107210Y306245D01*
X103390Y306245D01*
G37*
%LPD*%
%LPC*%
G36*
X285390Y306245D02*
X285390Y306245D01*
X281859Y307708D01*
X279158Y310409D01*
X277695Y313940D01*
X277695Y317760D01*
X279158Y321291D01*
X281859Y323992D01*
X285390Y325455D01*
X289210Y325455D01*
X292741Y323992D01*
X295442Y321291D01*
X296905Y317760D01*
X296905Y313940D01*
X295442Y310409D01*
X292741Y307708D01*
X289210Y306245D01*
X285390Y306245D01*
G37*
%LPD*%
%LPC*%
G36*
X311390Y306245D02*
X311390Y306245D01*
X307859Y307708D01*
X305158Y310409D01*
X303695Y313940D01*
X303695Y317760D01*
X305158Y321291D01*
X307859Y323992D01*
X311390Y325455D01*
X315210Y325455D01*
X318741Y323992D01*
X321442Y321291D01*
X322905Y317760D01*
X322905Y313940D01*
X321442Y310409D01*
X318741Y307708D01*
X315210Y306245D01*
X311390Y306245D01*
G37*
%LPD*%
%LPC*%
G36*
X363390Y306245D02*
X363390Y306245D01*
X359859Y307708D01*
X357158Y310409D01*
X355695Y313940D01*
X355695Y317760D01*
X357158Y321291D01*
X359859Y323992D01*
X363390Y325455D01*
X367210Y325455D01*
X370741Y323992D01*
X373442Y321291D01*
X374905Y317760D01*
X374905Y313940D01*
X373442Y310409D01*
X370741Y307708D01*
X367210Y306245D01*
X363390Y306245D01*
G37*
%LPD*%
%LPC*%
G36*
X77390Y306245D02*
X77390Y306245D01*
X73859Y307708D01*
X71158Y310409D01*
X69695Y313940D01*
X69695Y317760D01*
X71158Y321291D01*
X73859Y323992D01*
X77390Y325455D01*
X81210Y325455D01*
X84741Y323992D01*
X87442Y321291D01*
X88905Y317760D01*
X88905Y313940D01*
X87442Y310409D01*
X84741Y307708D01*
X81210Y306245D01*
X77390Y306245D01*
G37*
%LPD*%
%LPC*%
G36*
X155390Y306245D02*
X155390Y306245D01*
X151859Y307708D01*
X149158Y310409D01*
X147695Y313940D01*
X147695Y317760D01*
X149158Y321291D01*
X151859Y323992D01*
X155390Y325455D01*
X159210Y325455D01*
X162741Y323992D01*
X165442Y321291D01*
X166905Y317760D01*
X166905Y313940D01*
X165442Y310409D01*
X162741Y307708D01*
X159210Y306245D01*
X155390Y306245D01*
G37*
%LPD*%
%LPC*%
G36*
X259390Y57245D02*
X259390Y57245D01*
X255859Y58708D01*
X253158Y61409D01*
X251695Y64940D01*
X251695Y68760D01*
X253158Y72291D01*
X255859Y74992D01*
X259390Y76455D01*
X263210Y76455D01*
X266741Y74992D01*
X269442Y72291D01*
X270905Y68760D01*
X270905Y64940D01*
X269442Y61409D01*
X266741Y58708D01*
X263210Y57245D01*
X259390Y57245D01*
G37*
%LPD*%
%LPC*%
G36*
X129390Y306245D02*
X129390Y306245D01*
X125859Y307708D01*
X123158Y310409D01*
X121695Y313940D01*
X121695Y317760D01*
X123158Y321291D01*
X125859Y323992D01*
X129390Y325455D01*
X133210Y325455D01*
X136741Y323992D01*
X139442Y321291D01*
X140905Y317760D01*
X140905Y313940D01*
X139442Y310409D01*
X136741Y307708D01*
X133210Y306245D01*
X129390Y306245D01*
G37*
%LPD*%
%LPC*%
G36*
X181390Y306245D02*
X181390Y306245D01*
X177859Y307708D01*
X175158Y310409D01*
X173695Y313940D01*
X173695Y317760D01*
X175158Y321291D01*
X177859Y323992D01*
X181390Y325455D01*
X185210Y325455D01*
X188741Y323992D01*
X191442Y321291D01*
X192905Y317760D01*
X192905Y313940D01*
X191442Y310409D01*
X188741Y307708D01*
X185210Y306245D01*
X181390Y306245D01*
G37*
%LPD*%
%LPC*%
G36*
X337390Y306245D02*
X337390Y306245D01*
X333859Y307708D01*
X331158Y310409D01*
X329695Y313940D01*
X329695Y317760D01*
X331158Y321291D01*
X333859Y323992D01*
X337390Y325455D01*
X341210Y325455D01*
X344741Y323992D01*
X347442Y321291D01*
X348905Y317760D01*
X348905Y313940D01*
X347442Y310409D01*
X344741Y307708D01*
X341210Y306245D01*
X337390Y306245D01*
G37*
%LPD*%
%LPC*%
G36*
X389390Y306245D02*
X389390Y306245D01*
X385859Y307708D01*
X383158Y310409D01*
X381695Y313940D01*
X381695Y317760D01*
X383158Y321291D01*
X385859Y323992D01*
X389390Y325455D01*
X393210Y325455D01*
X396741Y323992D01*
X399442Y321291D01*
X400905Y317760D01*
X400905Y313940D01*
X399442Y310409D01*
X396741Y307708D01*
X393210Y306245D01*
X389390Y306245D01*
G37*
%LPD*%
%LPC*%
G36*
X389390Y57245D02*
X389390Y57245D01*
X385859Y58708D01*
X383158Y61409D01*
X381695Y64940D01*
X381695Y68760D01*
X383158Y72291D01*
X385859Y74992D01*
X389390Y76455D01*
X393210Y76455D01*
X396741Y74992D01*
X399442Y72291D01*
X400905Y68760D01*
X400905Y64940D01*
X399442Y61409D01*
X396741Y58708D01*
X393210Y57245D01*
X389390Y57245D01*
G37*
%LPD*%
%LPC*%
G36*
X337390Y57245D02*
X337390Y57245D01*
X333859Y58708D01*
X331158Y61409D01*
X329695Y64940D01*
X329695Y68760D01*
X331158Y72291D01*
X333859Y74992D01*
X337390Y76455D01*
X341210Y76455D01*
X344741Y74992D01*
X347442Y72291D01*
X348905Y68760D01*
X348905Y64940D01*
X347442Y61409D01*
X344741Y58708D01*
X341210Y57245D01*
X337390Y57245D01*
G37*
%LPD*%
%LPC*%
G36*
X311390Y57245D02*
X311390Y57245D01*
X307859Y58708D01*
X305158Y61409D01*
X303695Y64940D01*
X303695Y68760D01*
X305158Y72291D01*
X307859Y74992D01*
X311390Y76455D01*
X315210Y76455D01*
X318741Y74992D01*
X321442Y72291D01*
X322905Y68760D01*
X322905Y64940D01*
X321442Y61409D01*
X318741Y58708D01*
X315210Y57245D01*
X311390Y57245D01*
G37*
%LPD*%
%LPC*%
G36*
X285390Y57245D02*
X285390Y57245D01*
X281859Y58708D01*
X279158Y61409D01*
X277695Y64940D01*
X277695Y68760D01*
X279158Y72291D01*
X281859Y74992D01*
X285390Y76455D01*
X289210Y76455D01*
X292741Y74992D01*
X295442Y72291D01*
X296905Y68760D01*
X296905Y64940D01*
X295442Y61409D01*
X292741Y58708D01*
X289210Y57245D01*
X285390Y57245D01*
G37*
%LPD*%
%LPC*%
G36*
X233390Y57245D02*
X233390Y57245D01*
X229859Y58708D01*
X227158Y61409D01*
X225695Y64940D01*
X225695Y68760D01*
X227158Y72291D01*
X229859Y74992D01*
X233390Y76455D01*
X237210Y76455D01*
X240741Y74992D01*
X243442Y72291D01*
X244905Y68760D01*
X244905Y64940D01*
X243442Y61409D01*
X240741Y58708D01*
X237210Y57245D01*
X233390Y57245D01*
G37*
%LPD*%
%LPC*%
G36*
X207390Y57245D02*
X207390Y57245D01*
X203859Y58708D01*
X201158Y61409D01*
X199695Y64940D01*
X199695Y68760D01*
X201158Y72291D01*
X203859Y74992D01*
X207390Y76455D01*
X211210Y76455D01*
X214741Y74992D01*
X217442Y72291D01*
X218905Y68760D01*
X218905Y64940D01*
X217442Y61409D01*
X214741Y58708D01*
X211210Y57245D01*
X207390Y57245D01*
G37*
%LPD*%
%LPC*%
G36*
X181390Y57245D02*
X181390Y57245D01*
X177859Y58708D01*
X175158Y61409D01*
X173695Y64940D01*
X173695Y68760D01*
X175158Y72291D01*
X177859Y74992D01*
X181390Y76455D01*
X185210Y76455D01*
X188741Y74992D01*
X191442Y72291D01*
X192905Y68760D01*
X192905Y64940D01*
X191442Y61409D01*
X188741Y58708D01*
X185210Y57245D01*
X181390Y57245D01*
G37*
%LPD*%
%LPC*%
G36*
X155390Y57245D02*
X155390Y57245D01*
X151859Y58708D01*
X149158Y61409D01*
X147695Y64940D01*
X147695Y68760D01*
X149158Y72291D01*
X151859Y74992D01*
X155390Y76455D01*
X159210Y76455D01*
X162741Y74992D01*
X165442Y72291D01*
X166905Y68760D01*
X166905Y64940D01*
X165442Y61409D01*
X162741Y58708D01*
X159210Y57245D01*
X155390Y57245D01*
G37*
%LPD*%
%LPC*%
G36*
X129390Y57245D02*
X129390Y57245D01*
X125859Y58708D01*
X123158Y61409D01*
X121695Y64940D01*
X121695Y68760D01*
X123158Y72291D01*
X125859Y74992D01*
X129390Y76455D01*
X133210Y76455D01*
X136741Y74992D01*
X139442Y72291D01*
X140905Y68760D01*
X140905Y64940D01*
X139442Y61409D01*
X136741Y58708D01*
X133210Y57245D01*
X129390Y57245D01*
G37*
%LPD*%
%LPC*%
G36*
X103390Y57245D02*
X103390Y57245D01*
X99859Y58708D01*
X97158Y61409D01*
X95695Y64940D01*
X95695Y68760D01*
X97158Y72291D01*
X99859Y74992D01*
X103390Y76455D01*
X107210Y76455D01*
X110741Y74992D01*
X113442Y72291D01*
X114905Y68760D01*
X114905Y64940D01*
X113442Y61409D01*
X110741Y58708D01*
X107210Y57245D01*
X103390Y57245D01*
G37*
%LPD*%
%LPC*%
G36*
X77390Y57245D02*
X77390Y57245D01*
X73859Y58708D01*
X71158Y61409D01*
X69695Y64940D01*
X69695Y68760D01*
X71158Y72291D01*
X73859Y74992D01*
X77390Y76455D01*
X81210Y76455D01*
X84741Y74992D01*
X87442Y72291D01*
X88905Y68760D01*
X88905Y64940D01*
X87442Y61409D01*
X84741Y58708D01*
X81210Y57245D01*
X77390Y57245D01*
G37*
%LPD*%
%LPC*%
G36*
X1058163Y701293D02*
X1058163Y701293D01*
X1058163Y714811D01*
X1069474Y714811D01*
X1070121Y714638D01*
X1070700Y714303D01*
X1071173Y713830D01*
X1071508Y713251D01*
X1071681Y712604D01*
X1071681Y701293D01*
X1058163Y701293D01*
G37*
%LPD*%
%LPC*%
G36*
X1058163Y305053D02*
X1058163Y305053D01*
X1058163Y318571D01*
X1069474Y318571D01*
X1070121Y318398D01*
X1070700Y318063D01*
X1071173Y317590D01*
X1071508Y317011D01*
X1071681Y316364D01*
X1071681Y305053D01*
X1058163Y305053D01*
G37*
%LPD*%
%LPC*%
G36*
X1041599Y701293D02*
X1041599Y701293D01*
X1041599Y712604D01*
X1041772Y713251D01*
X1042107Y713830D01*
X1042580Y714303D01*
X1043159Y714638D01*
X1043806Y714811D01*
X1055117Y714811D01*
X1055117Y701293D01*
X1041599Y701293D01*
G37*
%LPD*%
%LPC*%
G36*
X1041599Y305053D02*
X1041599Y305053D01*
X1041599Y316364D01*
X1041772Y317011D01*
X1042107Y317590D01*
X1042580Y318063D01*
X1043159Y318398D01*
X1043806Y318571D01*
X1055117Y318571D01*
X1055117Y305053D01*
X1041599Y305053D01*
G37*
%LPD*%
%LPC*%
G36*
X1058163Y684729D02*
X1058163Y684729D01*
X1058163Y698247D01*
X1071681Y698247D01*
X1071681Y686936D01*
X1071508Y686289D01*
X1071173Y685710D01*
X1070700Y685237D01*
X1070121Y684902D01*
X1069474Y684729D01*
X1058163Y684729D01*
G37*
%LPD*%
%LPC*%
G36*
X1058163Y288489D02*
X1058163Y288489D01*
X1058163Y302007D01*
X1071681Y302007D01*
X1071681Y290696D01*
X1071508Y290049D01*
X1071173Y289470D01*
X1070700Y288997D01*
X1070121Y288662D01*
X1069474Y288489D01*
X1058163Y288489D01*
G37*
%LPD*%
%LPC*%
G36*
X1043806Y288489D02*
X1043806Y288489D01*
X1043159Y288662D01*
X1042580Y288997D01*
X1042107Y289470D01*
X1041772Y290049D01*
X1041599Y290696D01*
X1041599Y302007D01*
X1055117Y302007D01*
X1055117Y288489D01*
X1043806Y288489D01*
G37*
%LPD*%
%LPC*%
G36*
X1043806Y684729D02*
X1043806Y684729D01*
X1043159Y684902D01*
X1042580Y685237D01*
X1042107Y685710D01*
X1041772Y686289D01*
X1041599Y686936D01*
X1041599Y698247D01*
X1055117Y698247D01*
X1055117Y684729D01*
X1043806Y684729D01*
G37*
%LPD*%
%LPC*%
G36*
X828573Y604373D02*
X828573Y604373D01*
X828573Y614673D01*
X829840Y614472D01*
X831624Y613893D01*
X833295Y613041D01*
X834813Y611939D01*
X836139Y610613D01*
X837241Y609095D01*
X838093Y607424D01*
X838672Y605640D01*
X838873Y604373D01*
X828573Y604373D01*
G37*
%LPD*%
%LPC*%
G36*
X676173Y604373D02*
X676173Y604373D01*
X676173Y614673D01*
X677440Y614472D01*
X679224Y613893D01*
X680895Y613041D01*
X682413Y611939D01*
X683739Y610613D01*
X684841Y609095D01*
X685693Y607424D01*
X686272Y605640D01*
X686473Y604373D01*
X676173Y604373D01*
G37*
%LPD*%
%LPC*%
G36*
X662827Y604373D02*
X662827Y604373D01*
X663028Y605640D01*
X663607Y607424D01*
X664459Y609095D01*
X665561Y610613D01*
X666887Y611939D01*
X668405Y613041D01*
X670076Y613893D01*
X671860Y614472D01*
X673127Y614673D01*
X673127Y604373D01*
X662827Y604373D01*
G37*
%LPD*%
%LPC*%
G36*
X815227Y604373D02*
X815227Y604373D01*
X815428Y605640D01*
X816007Y607424D01*
X816859Y609095D01*
X817961Y610613D01*
X819287Y611939D01*
X820805Y613041D01*
X822476Y613893D01*
X824260Y614472D01*
X825527Y614673D01*
X825527Y604373D01*
X815227Y604373D01*
G37*
%LPD*%
%LPC*%
G36*
X676173Y601327D02*
X676173Y601327D01*
X686473Y601327D01*
X686272Y600060D01*
X685693Y598276D01*
X684841Y596605D01*
X683739Y595087D01*
X682413Y593761D01*
X680895Y592659D01*
X679224Y591807D01*
X677440Y591228D01*
X676173Y591027D01*
X676173Y601327D01*
G37*
%LPD*%
%LPC*%
G36*
X828573Y601327D02*
X828573Y601327D01*
X838873Y601327D01*
X838672Y600060D01*
X838093Y598276D01*
X837241Y596605D01*
X836139Y595087D01*
X834813Y593761D01*
X833295Y592659D01*
X831624Y591807D01*
X829840Y591228D01*
X828573Y591027D01*
X828573Y601327D01*
G37*
%LPD*%
%LPC*%
G36*
X824260Y591228D02*
X824260Y591228D01*
X822476Y591807D01*
X820805Y592659D01*
X819287Y593761D01*
X817961Y595087D01*
X816859Y596605D01*
X816007Y598276D01*
X815428Y600060D01*
X815227Y601327D01*
X825527Y601327D01*
X825527Y591027D01*
X824260Y591228D01*
G37*
%LPD*%
%LPC*%
G36*
X671860Y591228D02*
X671860Y591228D01*
X670076Y591807D01*
X668405Y592659D01*
X666887Y593761D01*
X665561Y595087D01*
X664459Y596605D01*
X663607Y598276D01*
X663028Y600060D01*
X662827Y601327D01*
X673127Y601327D01*
X673127Y591027D01*
X671860Y591228D01*
G37*
%LPD*%
%LPC*%
G36*
X1134773Y116223D02*
X1134773Y116223D01*
X1134773Y125232D01*
X1135742Y125079D01*
X1137335Y124561D01*
X1138827Y123801D01*
X1140182Y122816D01*
X1141366Y121632D01*
X1142351Y120277D01*
X1143111Y118785D01*
X1143629Y117192D01*
X1143782Y116223D01*
X1134773Y116223D01*
G37*
%LPD*%
%LPC*%
G36*
X1284773Y116223D02*
X1284773Y116223D01*
X1284773Y125232D01*
X1285742Y125079D01*
X1287335Y124561D01*
X1288827Y123801D01*
X1290182Y122816D01*
X1291366Y121632D01*
X1292351Y120277D01*
X1293111Y118785D01*
X1293629Y117192D01*
X1293782Y116223D01*
X1284773Y116223D01*
G37*
%LPD*%
%LPC*%
G36*
X1434773Y116223D02*
X1434773Y116223D01*
X1434773Y125232D01*
X1435742Y125079D01*
X1437335Y124561D01*
X1438827Y123801D01*
X1440182Y122816D01*
X1441366Y121632D01*
X1442351Y120277D01*
X1443111Y118785D01*
X1443629Y117192D01*
X1443782Y116223D01*
X1434773Y116223D01*
G37*
%LPD*%
%LPC*%
G36*
X1422718Y116223D02*
X1422718Y116223D01*
X1422871Y117192D01*
X1423389Y118785D01*
X1424149Y120277D01*
X1425134Y121632D01*
X1426318Y122816D01*
X1427673Y123801D01*
X1429165Y124561D01*
X1430758Y125079D01*
X1431727Y125232D01*
X1431727Y116223D01*
X1422718Y116223D01*
G37*
%LPD*%
%LPC*%
G36*
X1122718Y116223D02*
X1122718Y116223D01*
X1122871Y117192D01*
X1123389Y118785D01*
X1124149Y120277D01*
X1125134Y121632D01*
X1126318Y122816D01*
X1127673Y123801D01*
X1129165Y124561D01*
X1130758Y125079D01*
X1131727Y125232D01*
X1131727Y116223D01*
X1122718Y116223D01*
G37*
%LPD*%
%LPC*%
G36*
X1272718Y116223D02*
X1272718Y116223D01*
X1272871Y117192D01*
X1273389Y118785D01*
X1274149Y120277D01*
X1275134Y121632D01*
X1276318Y122816D01*
X1277673Y123801D01*
X1279165Y124561D01*
X1280758Y125079D01*
X1281727Y125232D01*
X1281727Y116223D01*
X1272718Y116223D01*
G37*
%LPD*%
%LPC*%
G36*
X1134773Y113177D02*
X1134773Y113177D01*
X1143782Y113177D01*
X1143629Y112208D01*
X1143111Y110615D01*
X1142351Y109123D01*
X1141366Y107768D01*
X1140182Y106584D01*
X1138827Y105599D01*
X1137335Y104839D01*
X1135742Y104321D01*
X1134773Y104168D01*
X1134773Y113177D01*
G37*
%LPD*%
%LPC*%
G36*
X1434773Y113177D02*
X1434773Y113177D01*
X1443782Y113177D01*
X1443629Y112208D01*
X1443111Y110615D01*
X1442351Y109123D01*
X1441366Y107768D01*
X1440182Y106584D01*
X1438827Y105599D01*
X1437335Y104839D01*
X1435742Y104321D01*
X1434773Y104168D01*
X1434773Y113177D01*
G37*
%LPD*%
%LPC*%
G36*
X1284773Y113177D02*
X1284773Y113177D01*
X1293782Y113177D01*
X1293629Y112208D01*
X1293111Y110615D01*
X1292351Y109123D01*
X1291366Y107768D01*
X1290182Y106584D01*
X1288827Y105599D01*
X1287335Y104839D01*
X1285742Y104321D01*
X1284773Y104168D01*
X1284773Y113177D01*
G37*
%LPD*%
%LPC*%
G36*
X1130758Y104321D02*
X1130758Y104321D01*
X1129165Y104839D01*
X1127673Y105599D01*
X1126318Y106584D01*
X1125134Y107768D01*
X1124149Y109123D01*
X1123389Y110615D01*
X1122871Y112208D01*
X1122718Y113177D01*
X1131727Y113177D01*
X1131727Y104168D01*
X1130758Y104321D01*
G37*
%LPD*%
%LPC*%
G36*
X1430758Y104321D02*
X1430758Y104321D01*
X1429165Y104839D01*
X1427673Y105599D01*
X1426318Y106584D01*
X1425134Y107768D01*
X1424149Y109123D01*
X1423389Y110615D01*
X1422871Y112208D01*
X1422718Y113177D01*
X1431727Y113177D01*
X1431727Y104168D01*
X1430758Y104321D01*
G37*
%LPD*%
%LPC*%
G36*
X1280758Y104321D02*
X1280758Y104321D01*
X1279165Y104839D01*
X1277673Y105599D01*
X1276318Y106584D01*
X1275134Y107768D01*
X1274149Y109123D01*
X1273389Y110615D01*
X1272871Y112208D01*
X1272718Y113177D01*
X1281727Y113177D01*
X1281727Y104168D01*
X1280758Y104321D01*
G37*
%LPD*%
%LPC*%
G36*
X96773Y668323D02*
X96773Y668323D01*
X96773Y676259D01*
X97493Y676145D01*
X98928Y675679D01*
X100271Y674994D01*
X101492Y674108D01*
X102558Y673042D01*
X103444Y671821D01*
X104129Y670478D01*
X104595Y669043D01*
X104709Y668323D01*
X96773Y668323D01*
G37*
%LPD*%
%LPC*%
G36*
X274573Y668323D02*
X274573Y668323D01*
X274573Y676259D01*
X275293Y676145D01*
X276728Y675679D01*
X278071Y674994D01*
X279292Y674108D01*
X280358Y673042D01*
X281244Y671821D01*
X281929Y670478D01*
X282395Y669043D01*
X282509Y668323D01*
X274573Y668323D01*
G37*
%LPD*%
%LPC*%
G36*
X263591Y668323D02*
X263591Y668323D01*
X263705Y669043D01*
X264171Y670478D01*
X264856Y671821D01*
X265742Y673042D01*
X266808Y674108D01*
X268029Y674994D01*
X269372Y675679D01*
X270807Y676145D01*
X271527Y676259D01*
X271527Y668323D01*
X263591Y668323D01*
G37*
%LPD*%
%LPC*%
G36*
X85791Y668323D02*
X85791Y668323D01*
X85905Y669043D01*
X86371Y670478D01*
X87056Y671821D01*
X87942Y673042D01*
X89008Y674108D01*
X90229Y674994D01*
X91572Y675679D01*
X93007Y676145D01*
X93727Y676259D01*
X93727Y668323D01*
X85791Y668323D01*
G37*
%LPD*%
%LPC*%
G36*
X96773Y665277D02*
X96773Y665277D01*
X104709Y665277D01*
X104595Y664557D01*
X104129Y663122D01*
X103444Y661779D01*
X102558Y660558D01*
X101492Y659492D01*
X100271Y658606D01*
X98928Y657921D01*
X97493Y657455D01*
X96773Y657341D01*
X96773Y665277D01*
G37*
%LPD*%
%LPC*%
G36*
X274573Y665277D02*
X274573Y665277D01*
X282509Y665277D01*
X282395Y664557D01*
X281929Y663122D01*
X281244Y661779D01*
X280358Y660558D01*
X279292Y659492D01*
X278071Y658606D01*
X276728Y657921D01*
X275293Y657455D01*
X274573Y657341D01*
X274573Y665277D01*
G37*
%LPD*%
%LPC*%
G36*
X93007Y657455D02*
X93007Y657455D01*
X91572Y657921D01*
X90229Y658606D01*
X89008Y659492D01*
X87942Y660558D01*
X87056Y661779D01*
X86371Y663122D01*
X85905Y664557D01*
X85791Y665277D01*
X93727Y665277D01*
X93727Y657341D01*
X93007Y657455D01*
G37*
%LPD*%
%LPC*%
G36*
X270807Y657455D02*
X270807Y657455D01*
X269372Y657921D01*
X268029Y658606D01*
X266808Y659492D01*
X265742Y660558D01*
X264856Y661779D01*
X264171Y663122D01*
X263705Y664557D01*
X263591Y665277D01*
X271527Y665277D01*
X271527Y657341D01*
X270807Y657455D01*
G37*
%LPD*%
%LPC*%
G36*
X262799Y317349D02*
X262799Y317349D01*
X262799Y323791D01*
X263657Y323620D01*
X265128Y323011D01*
X266451Y322127D01*
X267577Y321001D01*
X268461Y319678D01*
X269070Y318207D01*
X269241Y317349D01*
X262799Y317349D01*
G37*
%LPD*%
%LPC*%
G36*
X210799Y317349D02*
X210799Y317349D01*
X210799Y323791D01*
X211657Y323620D01*
X213128Y323011D01*
X214451Y322127D01*
X215577Y321001D01*
X216461Y319678D01*
X217070Y318207D01*
X217241Y317349D01*
X210799Y317349D01*
G37*
%LPD*%
%LPC*%
G36*
X366799Y68349D02*
X366799Y68349D01*
X366799Y74791D01*
X367657Y74620D01*
X369128Y74011D01*
X370451Y73127D01*
X371577Y72001D01*
X372461Y70678D01*
X373070Y69207D01*
X373241Y68349D01*
X366799Y68349D01*
G37*
%LPD*%
%LPC*%
G36*
X210799Y314351D02*
X210799Y314351D01*
X217241Y314351D01*
X217070Y313493D01*
X216461Y312022D01*
X215577Y310699D01*
X214451Y309573D01*
X213128Y308689D01*
X211657Y308080D01*
X210799Y307909D01*
X210799Y314351D01*
G37*
%LPD*%
%LPC*%
G36*
X201359Y317349D02*
X201359Y317349D01*
X201530Y318207D01*
X202139Y319678D01*
X203023Y321001D01*
X204149Y322127D01*
X205472Y323011D01*
X206943Y323620D01*
X207801Y323791D01*
X207801Y317349D01*
X201359Y317349D01*
G37*
%LPD*%
%LPC*%
G36*
X253359Y317349D02*
X253359Y317349D01*
X253530Y318207D01*
X254139Y319678D01*
X255023Y321001D01*
X256149Y322127D01*
X257472Y323011D01*
X258943Y323620D01*
X259801Y323791D01*
X259801Y317349D01*
X253359Y317349D01*
G37*
%LPD*%
%LPC*%
G36*
X262799Y314351D02*
X262799Y314351D01*
X269241Y314351D01*
X269070Y313493D01*
X268461Y312022D01*
X267577Y310699D01*
X266451Y309573D01*
X265128Y308689D01*
X263657Y308080D01*
X262799Y307909D01*
X262799Y314351D01*
G37*
%LPD*%
%LPC*%
G36*
X357359Y68349D02*
X357359Y68349D01*
X357530Y69207D01*
X358139Y70678D01*
X359023Y72001D01*
X360149Y73127D01*
X361472Y74011D01*
X362943Y74620D01*
X363801Y74791D01*
X363801Y68349D01*
X357359Y68349D01*
G37*
%LPD*%
%LPC*%
G36*
X366799Y65351D02*
X366799Y65351D01*
X373241Y65351D01*
X373070Y64493D01*
X372461Y63022D01*
X371577Y61699D01*
X370451Y60573D01*
X369128Y59689D01*
X367657Y59080D01*
X366799Y58909D01*
X366799Y65351D01*
G37*
%LPD*%
%LPC*%
G36*
X206943Y308080D02*
X206943Y308080D01*
X205472Y308689D01*
X204149Y309573D01*
X203023Y310699D01*
X202139Y312022D01*
X201530Y313493D01*
X201359Y314351D01*
X207801Y314351D01*
X207801Y307909D01*
X206943Y308080D01*
G37*
%LPD*%
%LPC*%
G36*
X362943Y59080D02*
X362943Y59080D01*
X361472Y59689D01*
X360149Y60573D01*
X359023Y61699D01*
X358139Y63022D01*
X357530Y64493D01*
X357359Y65351D01*
X363801Y65351D01*
X363801Y58909D01*
X362943Y59080D01*
G37*
%LPD*%
%LPC*%
G36*
X258943Y308080D02*
X258943Y308080D01*
X257472Y308689D01*
X256149Y309573D01*
X255023Y310699D01*
X254139Y312022D01*
X253530Y313493D01*
X253359Y314351D01*
X259801Y314351D01*
X259801Y307909D01*
X258943Y308080D01*
G37*
%LPD*%
%LPC*%
G36*
X1056639Y303529D02*
X1056639Y303529D01*
X1056639Y303531D01*
X1056641Y303531D01*
X1056641Y303529D01*
X1056639Y303529D01*
G37*
%LPD*%
%LPC*%
G36*
X95249Y666799D02*
X95249Y666799D01*
X95249Y666801D01*
X95251Y666801D01*
X95251Y666799D01*
X95249Y666799D01*
G37*
%LPD*%
%LPC*%
G36*
X1515949Y659279D02*
X1515949Y659279D01*
X1515949Y659281D01*
X1515951Y659281D01*
X1515951Y659279D01*
X1515949Y659279D01*
G37*
%LPD*%
%LPC*%
G36*
X1433249Y114699D02*
X1433249Y114699D01*
X1433249Y114701D01*
X1433251Y114701D01*
X1433251Y114699D01*
X1433249Y114699D01*
G37*
%LPD*%
%LPC*%
G36*
X827049Y602849D02*
X827049Y602849D01*
X827049Y602851D01*
X827051Y602851D01*
X827051Y602849D01*
X827049Y602849D01*
G37*
%LPD*%
%LPC*%
G36*
X273049Y666799D02*
X273049Y666799D01*
X273049Y666801D01*
X273051Y666801D01*
X273051Y666799D01*
X273049Y666799D01*
G37*
%LPD*%
%LPC*%
G36*
X674649Y602849D02*
X674649Y602849D01*
X674649Y602851D01*
X674651Y602851D01*
X674651Y602849D01*
X674649Y602849D01*
G37*
%LPD*%
%LPC*%
G36*
X1133249Y114699D02*
X1133249Y114699D01*
X1133249Y114701D01*
X1133251Y114701D01*
X1133251Y114699D01*
X1133249Y114699D01*
G37*
%LPD*%
%LPC*%
G36*
X1283249Y114699D02*
X1283249Y114699D01*
X1283249Y114701D01*
X1283251Y114701D01*
X1283251Y114699D01*
X1283249Y114699D01*
G37*
%LPD*%
%LPC*%
G36*
X1056639Y699769D02*
X1056639Y699769D01*
X1056639Y699771D01*
X1056641Y699771D01*
X1056641Y699769D01*
X1056639Y699769D01*
G37*
%LPD*%
D10*
X391300Y66850D03*
X365300Y66850D03*
X339300Y66850D03*
X313300Y66850D03*
X287300Y66850D03*
X261300Y66850D03*
X235300Y66850D03*
X209300Y66850D03*
X183300Y66850D03*
X157300Y66850D03*
X131300Y66850D03*
X105300Y66850D03*
X79300Y66850D03*
X391300Y315850D03*
X339300Y315850D03*
X313300Y315850D03*
X287300Y315850D03*
X261300Y315850D03*
X235300Y315850D03*
X209300Y315850D03*
X183300Y315850D03*
X157300Y315850D03*
X131300Y315850D03*
X105300Y315850D03*
X79300Y315850D03*
X365300Y315850D03*
D11*
X1466450Y338100D03*
X1466450Y373100D03*
D12*
X1229360Y699770D03*
X1056640Y699770D03*
X1056640Y303530D03*
X1229360Y303530D03*
D13*
X397510Y580390D03*
X575310Y580390D03*
D14*
X556410Y574040D02*
X516410Y574040D01*
X456410Y574040D02*
X416410Y574040D01*
D15*
X467310Y360040D03*
X486410Y360040D03*
X505510Y360040D03*
D13*
X575310Y567690D03*
X397510Y567690D03*
X568160Y557790D03*
X556410Y554040D03*
X543160Y554040D03*
X529910Y554040D03*
X516410Y554040D03*
X504660Y557790D03*
X497410Y567790D03*
X497410Y580290D03*
X504660Y590290D03*
X516410Y594040D03*
X529910Y594040D03*
X543160Y594040D03*
X556410Y594040D03*
X568160Y590290D03*
X404660Y557790D03*
X416410Y554040D03*
X429660Y554040D03*
X443160Y554040D03*
X456410Y554040D03*
X468160Y557790D03*
X475410Y567790D03*
X475410Y580290D03*
X468160Y590290D03*
X456410Y594040D03*
X443160Y594040D03*
X429660Y594040D03*
X416410Y594040D03*
X404660Y590290D03*
D16*
X521420Y670560D03*
X451420Y670560D03*
D11*
X862050Y602850D03*
X827050Y602850D03*
X709650Y602850D03*
X674650Y602850D03*
D17*
X1499950Y659280D02*
X1531950Y659280D01*
X1531950Y584200D02*
X1499950Y584200D01*
X1499950Y509120D02*
X1531950Y509120D01*
D18*
X69850Y666800D03*
X82550Y641350D03*
X95250Y666800D03*
X107950Y641350D03*
D19*
X1163250Y84700D03*
X1133250Y84700D03*
X1163250Y114700D03*
X1133250Y114700D03*
X1103250Y124100D03*
X1193250Y124100D03*
X1313250Y84700D03*
X1283250Y84700D03*
X1313250Y114700D03*
X1283250Y114700D03*
X1253250Y124100D03*
X1343250Y124100D03*
X1463250Y84700D03*
X1433250Y84700D03*
X1463250Y114700D03*
X1433250Y114700D03*
X1403250Y124100D03*
X1493250Y124100D03*
D18*
X247650Y666800D03*
X260350Y641350D03*
X273050Y666800D03*
X285750Y641350D03*
D20*
X1056640Y699770D02*
X1097280Y659130D01*
X1153160Y603250D01*
X1395880Y659280D02*
X1515950Y659280D01*
X1339850Y603250D02*
X1153160Y603250D01*
X1339850Y603250D02*
X1395880Y659280D01*
X1320800Y349250D02*
X1263650Y349250D01*
X1320800Y349250D02*
X1346200Y349250D01*
X1384300Y349250D01*
D21*
X1263650Y349250D02*
X1158784Y349250D01*
X1113064Y303530D02*
X1056640Y303530D01*
X1113064Y303530D02*
X1158784Y349250D01*
X1056640Y303530D02*
X1032510Y279400D01*
X228600Y279400D02*
X209300Y298700D01*
X209300Y315850D01*
X558800Y279400D02*
X1032510Y279400D01*
X558800Y279400D02*
X266700Y279400D01*
X228600Y279400D01*
X261300Y284800D02*
X266700Y279400D01*
X261300Y284800D02*
X261300Y315850D01*
D22*
X34290Y469900D03*
X60198Y391160D03*
X133350Y492760D03*
X354330Y445770D03*
X533400Y311150D03*
X762000Y508000D03*
X692150Y501650D03*
X711200Y542290D03*
X1322070Y285750D03*
X1423670Y284480D03*
X1403350Y355600D03*
X1297940Y551180D03*
X1414780Y405130D03*
X1409700Y476250D03*
X1358900Y539750D03*
X158750Y628650D03*
D23*
X692150Y501650D02*
X755650Y501650D01*
X762000Y508000D01*
X755650Y501650D02*
X715010Y542290D01*
X711200Y542290D01*
X755650Y501650D02*
X838708Y501650D01*
X839470Y501650D01*
X962660Y378460D01*
X1037590Y303530D01*
X1056640Y303530D01*
D22*
X962660Y378460D03*
X1035050Y400050D03*
D23*
X1263650Y349250D02*
X1322070Y290830D01*
X1322070Y285750D01*
X1384300Y349250D02*
X1397000Y349250D01*
X1403350Y355600D01*
X1402080Y405130D02*
X1346200Y349250D01*
X1402080Y405130D02*
X1414780Y405130D01*
D21*
X527050Y241300D02*
X365300Y79550D01*
X365300Y66850D01*
X527050Y241300D02*
X1009650Y241300D01*
X1056640Y288290D01*
X1056640Y303530D01*
X558800Y279400D02*
X533400Y304800D01*
X533400Y311150D01*
D23*
X450850Y445770D02*
X354330Y445770D01*
X450850Y445770D02*
X836930Y445770D01*
D24*
X979170Y303530D02*
X1056640Y303530D01*
D23*
X979170Y303530D02*
X836930Y445770D01*
D22*
X355600Y508000D03*
D23*
X387350Y508000D01*
X388620Y508000D02*
X403860Y492760D01*
X450850Y445770D01*
D21*
X1158784Y349250D02*
X1300117Y490583D01*
X1306467Y496933D01*
X1349284Y539750D01*
X1358900Y539750D01*
X1300117Y549003D02*
X1300117Y490583D01*
X1300117Y549003D02*
X1297940Y551180D01*
X1306467Y496933D02*
X1389017Y496933D01*
X1409700Y476250D01*
X1056640Y303530D02*
X1035050Y325120D01*
X1035050Y400050D01*
X1035050Y485140D01*
X1153160Y603250D01*
D22*
X1097280Y659130D03*
D25*
X838708Y531114D02*
X838708Y501650D01*
X838708Y531114D02*
X838708Y591192D01*
X827050Y602850D01*
X711200Y542290D02*
X674650Y578840D01*
X674650Y602850D01*
X1283250Y145500D02*
X1283250Y114700D01*
X1125220Y303530D02*
X1056640Y303530D01*
X1263650Y165100D02*
X1283250Y145500D01*
X1263650Y165100D02*
X1125220Y303530D01*
X1133250Y226920D02*
X1133250Y114700D01*
X1133250Y226920D02*
X1056640Y303530D01*
X1433250Y141550D02*
X1433250Y114700D01*
X1409700Y165100D02*
X1263650Y165100D01*
X1409700Y165100D02*
X1433250Y141550D01*
X1423670Y284480D02*
X1385570Y284480D01*
X1320800Y349250D01*
D21*
X1056640Y303530D02*
X915670Y303530D01*
X825500Y393700D01*
X508000Y393700D01*
X486410Y372110D02*
X486410Y360040D01*
X486410Y372110D02*
X508000Y393700D01*
D23*
X228600Y492760D02*
X133350Y492760D01*
X228600Y492760D02*
X266700Y492760D01*
X403860Y492760D01*
X158750Y562610D02*
X158750Y628650D01*
X158750Y562610D02*
X228600Y492760D01*
X60198Y419100D02*
X60198Y391160D01*
X29210Y419100D02*
X29210Y464820D01*
X34290Y469900D01*
X29210Y419100D02*
X60198Y419100D01*
X193040Y419100D01*
X266700Y492760D01*
X120600Y666800D02*
X95250Y666800D01*
X120600Y666800D02*
X158750Y628650D01*
X273050Y666800D02*
X285700Y666800D01*
X349250Y603250D02*
X349250Y546100D01*
X387350Y508000D01*
X388620Y508000D01*
X349250Y603250D02*
X285700Y666800D01*
D22*
X838708Y531114D03*
X107950Y374650D03*
D24*
X184150Y374650D01*
X235300Y323500D02*
X235300Y315850D01*
X235300Y323500D02*
X184150Y374650D01*
D22*
X1333500Y412750D03*
D25*
X1333500Y450850D01*
X1358900Y476250D01*
D22*
X1358900Y476250D03*
X641350Y508000D03*
D25*
X641350Y482600D01*
X647700Y476250D01*
D22*
X647700Y476250D03*
X1022350Y152400D03*
D21*
X1022350Y184150D01*
X1041400Y203200D01*
D22*
X1009650Y152400D03*
D21*
X1009650Y171450D01*
X1022350Y184150D01*
D22*
X1041400Y203200D03*
D21*
X1009650Y187960D02*
X1009650Y152400D01*
X1009650Y187960D02*
X1032510Y210820D01*
D22*
X1032510Y210820D03*
X514350Y711200D03*
X508000Y628650D03*
X533400Y615950D03*
X558800Y628650D03*
X577850Y609600D03*
X596900Y590550D03*
X596900Y628650D03*
X577850Y647700D03*
X558800Y666750D03*
X596900Y666750D03*
X577850Y685800D03*
X558800Y704850D03*
X539750Y723900D03*
X577850Y723900D03*
X596900Y704850D03*
X596900Y552450D03*
X374650Y552450D03*
X374650Y590550D03*
X393700Y609600D03*
X374650Y628650D03*
X412750Y628650D03*
X393700Y647700D03*
X374650Y666750D03*
X412750Y666750D03*
X393700Y685800D03*
X444500Y615950D03*
X463550Y628650D03*
X412750Y704850D03*
X393700Y723900D03*
X374650Y704850D03*
X438150Y723900D03*
X463550Y711200D03*
M02*
