G04 EAGLE Gerber RS-274X export*
G75*
%MOMM*%
%FSLAX34Y34*%
%LPD*%
%IN*%
%IPPOS*%
%AMOC8*
5,1,8,0,0,1.08239X$1,22.5*%
G01*
%ADD10C,0.254000*%


D10*
X0Y0D02*
X1600000Y0D01*
X1600000Y740000D01*
X0Y740000D01*
X0Y0D01*
X1495200Y504120D02*
X1536700Y504120D01*
X1537136Y504139D01*
X1537568Y504196D01*
X1537994Y504290D01*
X1538410Y504422D01*
X1538813Y504588D01*
X1539200Y504790D01*
X1539568Y505024D01*
X1539914Y505290D01*
X1540236Y505584D01*
X1540530Y505906D01*
X1540796Y506252D01*
X1541030Y506620D01*
X1541232Y507007D01*
X1541398Y507410D01*
X1541530Y507826D01*
X1541624Y508252D01*
X1541681Y508684D01*
X1541700Y509120D01*
X1541681Y509556D01*
X1541624Y509988D01*
X1541530Y510414D01*
X1541398Y510830D01*
X1541232Y511233D01*
X1541030Y511620D01*
X1540796Y511988D01*
X1540530Y512334D01*
X1540236Y512656D01*
X1539914Y512950D01*
X1539568Y513216D01*
X1539200Y513450D01*
X1538813Y513652D01*
X1538410Y513818D01*
X1537994Y513950D01*
X1537568Y514044D01*
X1537136Y514101D01*
X1536700Y514120D01*
X1495200Y514120D01*
X1494764Y514101D01*
X1494332Y514044D01*
X1493906Y513950D01*
X1493490Y513818D01*
X1493087Y513652D01*
X1492700Y513450D01*
X1492332Y513216D01*
X1491986Y512950D01*
X1491664Y512656D01*
X1491370Y512334D01*
X1491104Y511988D01*
X1490870Y511620D01*
X1490668Y511233D01*
X1490502Y510830D01*
X1490370Y510414D01*
X1490276Y509988D01*
X1490219Y509556D01*
X1490200Y509120D01*
X1490219Y508684D01*
X1490276Y508252D01*
X1490370Y507826D01*
X1490502Y507410D01*
X1490668Y507007D01*
X1490870Y506620D01*
X1491104Y506252D01*
X1491370Y505906D01*
X1491664Y505584D01*
X1491986Y505290D01*
X1492332Y505024D01*
X1492700Y504790D01*
X1493087Y504588D01*
X1493490Y504422D01*
X1493906Y504290D01*
X1494332Y504196D01*
X1494764Y504139D01*
X1495200Y504120D01*
X1495200Y579200D02*
X1536700Y579200D01*
X1537136Y579219D01*
X1537568Y579276D01*
X1537994Y579370D01*
X1538410Y579502D01*
X1538813Y579668D01*
X1539200Y579870D01*
X1539568Y580104D01*
X1539914Y580370D01*
X1540236Y580664D01*
X1540530Y580986D01*
X1540796Y581332D01*
X1541030Y581700D01*
X1541232Y582087D01*
X1541398Y582490D01*
X1541530Y582906D01*
X1541624Y583332D01*
X1541681Y583764D01*
X1541700Y584200D01*
X1541681Y584636D01*
X1541624Y585068D01*
X1541530Y585494D01*
X1541398Y585910D01*
X1541232Y586313D01*
X1541030Y586700D01*
X1540796Y587068D01*
X1540530Y587414D01*
X1540236Y587736D01*
X1539914Y588030D01*
X1539568Y588296D01*
X1539200Y588530D01*
X1538813Y588732D01*
X1538410Y588898D01*
X1537994Y589030D01*
X1537568Y589124D01*
X1537136Y589181D01*
X1536700Y589200D01*
X1495200Y589200D01*
X1494764Y589181D01*
X1494332Y589124D01*
X1493906Y589030D01*
X1493490Y588898D01*
X1493087Y588732D01*
X1492700Y588530D01*
X1492332Y588296D01*
X1491986Y588030D01*
X1491664Y587736D01*
X1491370Y587414D01*
X1491104Y587068D01*
X1490870Y586700D01*
X1490668Y586313D01*
X1490502Y585910D01*
X1490370Y585494D01*
X1490276Y585068D01*
X1490219Y584636D01*
X1490200Y584200D01*
X1490219Y583764D01*
X1490276Y583332D01*
X1490370Y582906D01*
X1490502Y582490D01*
X1490668Y582087D01*
X1490870Y581700D01*
X1491104Y581332D01*
X1491370Y580986D01*
X1491664Y580664D01*
X1491986Y580370D01*
X1492332Y580104D01*
X1492700Y579870D01*
X1493087Y579668D01*
X1493490Y579502D01*
X1493906Y579370D01*
X1494332Y579276D01*
X1494764Y579219D01*
X1495200Y579200D01*
X1495200Y654280D02*
X1536700Y654280D01*
X1537136Y654299D01*
X1537568Y654356D01*
X1537994Y654450D01*
X1538410Y654582D01*
X1538813Y654748D01*
X1539200Y654950D01*
X1539568Y655184D01*
X1539914Y655450D01*
X1540236Y655744D01*
X1540530Y656066D01*
X1540796Y656412D01*
X1541030Y656780D01*
X1541232Y657167D01*
X1541398Y657570D01*
X1541530Y657986D01*
X1541624Y658412D01*
X1541681Y658844D01*
X1541700Y659280D01*
X1541681Y659716D01*
X1541624Y660148D01*
X1541530Y660574D01*
X1541398Y660990D01*
X1541232Y661393D01*
X1541030Y661780D01*
X1540796Y662148D01*
X1540530Y662494D01*
X1540236Y662816D01*
X1539914Y663110D01*
X1539568Y663376D01*
X1539200Y663610D01*
X1538813Y663812D01*
X1538410Y663978D01*
X1537994Y664110D01*
X1537568Y664204D01*
X1537136Y664261D01*
X1536700Y664280D01*
X1495200Y664280D01*
X1494764Y664261D01*
X1494332Y664204D01*
X1493906Y664110D01*
X1493490Y663978D01*
X1493087Y663812D01*
X1492700Y663610D01*
X1492332Y663376D01*
X1491986Y663110D01*
X1491664Y662816D01*
X1491370Y662494D01*
X1491104Y662148D01*
X1490870Y661780D01*
X1490668Y661393D01*
X1490502Y660990D01*
X1490370Y660574D01*
X1490276Y660148D01*
X1490219Y659716D01*
X1490200Y659280D01*
X1490219Y658844D01*
X1490276Y658412D01*
X1490370Y657986D01*
X1490502Y657570D01*
X1490668Y657167D01*
X1490870Y656780D01*
X1491104Y656412D01*
X1491370Y656066D01*
X1491664Y655744D01*
X1491986Y655450D01*
X1492332Y655184D01*
X1492700Y654950D01*
X1493087Y654748D01*
X1493490Y654582D01*
X1493906Y654450D01*
X1494332Y654356D01*
X1494764Y654299D01*
X1495200Y654280D01*
X416410Y564040D02*
X456410Y564040D01*
X457282Y564078D01*
X458146Y564192D01*
X458998Y564381D01*
X459830Y564643D01*
X460636Y564977D01*
X461410Y565380D01*
X462146Y565848D01*
X462838Y566380D01*
X463481Y566969D01*
X464070Y567612D01*
X464602Y568304D01*
X465070Y569040D01*
X465473Y569814D01*
X465807Y570620D01*
X466069Y571452D01*
X466258Y572304D01*
X466372Y573168D01*
X466410Y574040D01*
X466372Y574912D01*
X466258Y575776D01*
X466069Y576628D01*
X465807Y577460D01*
X465473Y578266D01*
X465070Y579040D01*
X464602Y579776D01*
X464070Y580468D01*
X463481Y581111D01*
X462838Y581700D01*
X462146Y582232D01*
X461410Y582700D01*
X460636Y583103D01*
X459830Y583437D01*
X458998Y583699D01*
X458146Y583888D01*
X457282Y584002D01*
X456410Y584040D01*
X416410Y584040D01*
X415538Y584002D01*
X414674Y583888D01*
X413822Y583699D01*
X412990Y583437D01*
X412184Y583103D01*
X411410Y582700D01*
X410674Y582232D01*
X409982Y581700D01*
X409339Y581111D01*
X408750Y580468D01*
X408218Y579776D01*
X407750Y579040D01*
X407347Y578266D01*
X407013Y577460D01*
X406751Y576628D01*
X406562Y575776D01*
X406448Y574912D01*
X406410Y574040D01*
X406448Y573168D01*
X406562Y572304D01*
X406751Y571452D01*
X407013Y570620D01*
X407347Y569814D01*
X407750Y569040D01*
X408218Y568304D01*
X408750Y567612D01*
X409339Y566969D01*
X409982Y566380D01*
X410674Y565848D01*
X411410Y565380D01*
X412184Y564977D01*
X412990Y564643D01*
X413822Y564381D01*
X414674Y564192D01*
X415538Y564078D01*
X416410Y564040D01*
X516410Y564040D02*
X556410Y564040D01*
X557282Y564078D01*
X558146Y564192D01*
X558998Y564381D01*
X559830Y564643D01*
X560636Y564977D01*
X561410Y565380D01*
X562146Y565848D01*
X562838Y566380D01*
X563481Y566969D01*
X564070Y567612D01*
X564602Y568304D01*
X565070Y569040D01*
X565473Y569814D01*
X565807Y570620D01*
X566069Y571452D01*
X566258Y572304D01*
X566372Y573168D01*
X566410Y574040D01*
X566372Y574912D01*
X566258Y575776D01*
X566069Y576628D01*
X565807Y577460D01*
X565473Y578266D01*
X565070Y579040D01*
X564602Y579776D01*
X564070Y580468D01*
X563481Y581111D01*
X562838Y581700D01*
X562146Y582232D01*
X561410Y582700D01*
X560636Y583103D01*
X559830Y583437D01*
X558998Y583699D01*
X558146Y583888D01*
X557282Y584002D01*
X556410Y584040D01*
X516410Y584040D01*
X515538Y584002D01*
X514674Y583888D01*
X513822Y583699D01*
X512990Y583437D01*
X512184Y583103D01*
X511410Y582700D01*
X510674Y582232D01*
X509982Y581700D01*
X509339Y581111D01*
X508750Y580468D01*
X508218Y579776D01*
X507750Y579040D01*
X507347Y578266D01*
X507013Y577460D01*
X506751Y576628D01*
X506562Y575776D01*
X506448Y574912D01*
X506410Y574040D01*
X506448Y573168D01*
X506562Y572304D01*
X506751Y571452D01*
X507013Y570620D01*
X507347Y569814D01*
X507750Y569040D01*
X508218Y568304D01*
X508750Y567612D01*
X509339Y566969D01*
X509982Y566380D01*
X510674Y565848D01*
X511410Y565380D01*
X512184Y564977D01*
X512990Y564643D01*
X513822Y564381D01*
X514674Y564192D01*
X515538Y564078D01*
X516410Y564040D01*
X1511843Y402600D02*
X1512626Y402532D01*
X1513400Y402395D01*
X1514159Y402192D01*
X1514897Y401923D01*
X1515610Y401591D01*
X1516290Y401198D01*
X1516934Y400747D01*
X1517536Y400242D01*
X1518092Y399686D01*
X1518597Y399084D01*
X1519048Y398440D01*
X1519441Y397760D01*
X1519773Y397047D01*
X1520042Y396309D01*
X1520245Y395550D01*
X1520382Y394776D01*
X1520450Y393993D01*
X1520450Y393207D01*
X1520382Y392424D01*
X1520245Y391650D01*
X1520042Y390891D01*
X1519773Y390153D01*
X1519441Y389440D01*
X1519048Y388760D01*
X1518597Y388116D01*
X1518092Y387514D01*
X1517536Y386958D01*
X1516934Y386453D01*
X1516290Y386002D01*
X1515610Y385609D01*
X1514897Y385277D01*
X1514159Y385008D01*
X1513400Y384805D01*
X1512626Y384669D01*
X1511843Y384600D01*
X1511057Y384600D01*
X1510274Y384669D01*
X1509500Y384805D01*
X1508741Y385008D01*
X1508003Y385277D01*
X1507290Y385609D01*
X1506610Y386002D01*
X1505966Y386453D01*
X1505364Y386958D01*
X1504808Y387514D01*
X1504303Y388116D01*
X1503852Y388760D01*
X1503459Y389440D01*
X1503127Y390153D01*
X1502858Y390891D01*
X1502655Y391650D01*
X1502519Y392424D01*
X1502450Y393207D01*
X1502450Y393993D01*
X1502519Y394776D01*
X1502655Y395550D01*
X1502858Y396309D01*
X1503127Y397047D01*
X1503459Y397760D01*
X1503852Y398440D01*
X1504303Y399084D01*
X1504808Y399686D01*
X1505364Y400242D01*
X1505966Y400747D01*
X1506610Y401198D01*
X1507290Y401591D01*
X1508003Y401923D01*
X1508741Y402192D01*
X1509500Y402395D01*
X1510274Y402532D01*
X1511057Y402600D01*
X1511843Y402600D01*
X1511843Y326600D02*
X1512626Y326532D01*
X1513400Y326395D01*
X1514159Y326192D01*
X1514897Y325923D01*
X1515610Y325591D01*
X1516290Y325198D01*
X1516934Y324747D01*
X1517536Y324242D01*
X1518092Y323686D01*
X1518597Y323084D01*
X1519048Y322440D01*
X1519441Y321760D01*
X1519773Y321047D01*
X1520042Y320309D01*
X1520245Y319550D01*
X1520382Y318776D01*
X1520450Y317993D01*
X1520450Y317207D01*
X1520382Y316424D01*
X1520245Y315650D01*
X1520042Y314891D01*
X1519773Y314153D01*
X1519441Y313440D01*
X1519048Y312760D01*
X1518597Y312116D01*
X1518092Y311514D01*
X1517536Y310958D01*
X1516934Y310453D01*
X1516290Y310002D01*
X1515610Y309609D01*
X1514897Y309277D01*
X1514159Y309008D01*
X1513400Y308805D01*
X1512626Y308669D01*
X1511843Y308600D01*
X1511057Y308600D01*
X1510274Y308669D01*
X1509500Y308805D01*
X1508741Y309008D01*
X1508003Y309277D01*
X1507290Y309609D01*
X1506610Y310002D01*
X1505966Y310453D01*
X1505364Y310958D01*
X1504808Y311514D01*
X1504303Y312116D01*
X1503852Y312760D01*
X1503459Y313440D01*
X1503127Y314153D01*
X1502858Y314891D01*
X1502655Y315650D01*
X1502519Y316424D01*
X1502450Y317207D01*
X1502450Y317993D01*
X1502519Y318776D01*
X1502655Y319550D01*
X1502858Y320309D01*
X1503127Y321047D01*
X1503459Y321760D01*
X1503852Y322440D01*
X1504303Y323084D01*
X1504808Y323686D01*
X1505364Y324242D01*
X1505966Y324747D01*
X1506610Y325198D01*
X1507290Y325591D01*
X1508003Y325923D01*
X1508741Y326192D01*
X1509500Y326395D01*
X1510274Y326532D01*
X1511057Y326600D01*
X1511843Y326600D01*
X1218664Y631430D02*
X1217596Y631506D01*
X1216535Y631659D01*
X1215488Y631887D01*
X1214460Y632189D01*
X1213456Y632563D01*
X1212481Y633008D01*
X1211541Y633522D01*
X1210640Y634101D01*
X1209782Y634743D01*
X1208972Y635445D01*
X1208215Y636202D01*
X1207513Y637012D01*
X1206871Y637870D01*
X1206292Y638771D01*
X1205778Y639711D01*
X1205333Y640686D01*
X1204959Y641690D01*
X1204657Y642718D01*
X1204429Y643765D01*
X1204276Y644826D01*
X1204200Y645894D01*
X1204200Y646966D01*
X1204276Y648034D01*
X1204429Y649095D01*
X1204657Y650142D01*
X1204959Y651170D01*
X1205333Y652174D01*
X1205778Y653149D01*
X1206292Y654089D01*
X1206871Y654990D01*
X1207513Y655848D01*
X1208215Y656658D01*
X1208972Y657415D01*
X1209782Y658117D01*
X1210640Y658759D01*
X1211541Y659338D01*
X1212481Y659852D01*
X1213456Y660297D01*
X1214460Y660671D01*
X1215488Y660973D01*
X1216535Y661201D01*
X1217596Y661354D01*
X1218664Y661430D01*
X1219736Y661430D01*
X1220804Y661354D01*
X1221865Y661201D01*
X1222912Y660973D01*
X1223940Y660671D01*
X1224944Y660297D01*
X1225919Y659852D01*
X1226859Y659338D01*
X1227760Y658759D01*
X1228618Y658117D01*
X1229428Y657415D01*
X1230185Y656658D01*
X1230887Y655848D01*
X1231529Y654990D01*
X1232108Y654089D01*
X1232622Y653149D01*
X1233067Y652174D01*
X1233441Y651170D01*
X1233743Y650142D01*
X1233971Y649095D01*
X1234124Y648034D01*
X1234200Y646966D01*
X1234200Y645894D01*
X1234124Y644826D01*
X1233971Y643765D01*
X1233743Y642718D01*
X1233441Y641690D01*
X1233067Y640686D01*
X1232622Y639711D01*
X1232108Y638771D01*
X1231529Y637870D01*
X1230887Y637012D01*
X1230185Y636202D01*
X1229428Y635445D01*
X1228618Y634743D01*
X1227760Y634101D01*
X1226859Y633522D01*
X1225919Y633008D01*
X1224944Y632563D01*
X1223940Y632189D01*
X1222912Y631887D01*
X1221865Y631659D01*
X1220804Y631506D01*
X1219736Y631430D01*
X1218664Y631430D01*
X1066264Y334250D02*
X1065196Y334326D01*
X1064135Y334479D01*
X1063088Y334707D01*
X1062060Y335009D01*
X1061056Y335383D01*
X1060081Y335828D01*
X1059141Y336342D01*
X1058240Y336921D01*
X1057382Y337563D01*
X1056572Y338265D01*
X1055815Y339022D01*
X1055113Y339832D01*
X1054471Y340690D01*
X1053892Y341591D01*
X1053378Y342531D01*
X1052933Y343506D01*
X1052559Y344510D01*
X1052257Y345538D01*
X1052029Y346585D01*
X1051876Y347646D01*
X1051800Y348714D01*
X1051800Y349786D01*
X1051876Y350854D01*
X1052029Y351915D01*
X1052257Y352962D01*
X1052559Y353990D01*
X1052933Y354994D01*
X1053378Y355969D01*
X1053892Y356909D01*
X1054471Y357810D01*
X1055113Y358668D01*
X1055815Y359478D01*
X1056572Y360235D01*
X1057382Y360937D01*
X1058240Y361579D01*
X1059141Y362158D01*
X1060081Y362672D01*
X1061056Y363117D01*
X1062060Y363491D01*
X1063088Y363793D01*
X1064135Y364021D01*
X1065196Y364174D01*
X1066264Y364250D01*
X1067336Y364250D01*
X1068404Y364174D01*
X1069465Y364021D01*
X1070512Y363793D01*
X1071540Y363491D01*
X1072544Y363117D01*
X1073519Y362672D01*
X1074459Y362158D01*
X1075360Y361579D01*
X1076218Y360937D01*
X1077028Y360235D01*
X1077785Y359478D01*
X1078487Y358668D01*
X1079129Y357810D01*
X1079708Y356909D01*
X1080222Y355969D01*
X1080667Y354994D01*
X1081041Y353990D01*
X1081343Y352962D01*
X1081571Y351915D01*
X1081724Y350854D01*
X1081800Y349786D01*
X1081800Y348714D01*
X1081724Y347646D01*
X1081571Y346585D01*
X1081343Y345538D01*
X1081041Y344510D01*
X1080667Y343506D01*
X1080222Y342531D01*
X1079708Y341591D01*
X1079129Y340690D01*
X1078487Y339832D01*
X1077785Y339022D01*
X1077028Y338265D01*
X1076218Y337563D01*
X1075360Y336921D01*
X1074459Y336342D01*
X1073519Y335828D01*
X1072544Y335383D01*
X1071540Y335009D01*
X1070512Y334707D01*
X1069465Y334479D01*
X1068404Y334326D01*
X1067336Y334250D01*
X1066264Y334250D01*
X797550Y648243D02*
X797619Y649026D01*
X797755Y649800D01*
X797958Y650559D01*
X798227Y651297D01*
X798559Y652010D01*
X798952Y652690D01*
X799403Y653334D01*
X799908Y653936D01*
X800464Y654492D01*
X801066Y654997D01*
X801710Y655448D01*
X802390Y655841D01*
X803103Y656173D01*
X803841Y656442D01*
X804600Y656645D01*
X805374Y656782D01*
X806157Y656850D01*
X806943Y656850D01*
X807726Y656782D01*
X808500Y656645D01*
X809259Y656442D01*
X809997Y656173D01*
X810710Y655841D01*
X811390Y655448D01*
X812034Y654997D01*
X812636Y654492D01*
X813192Y653936D01*
X813697Y653334D01*
X814148Y652690D01*
X814541Y652010D01*
X814873Y651297D01*
X815142Y650559D01*
X815345Y649800D01*
X815482Y649026D01*
X815550Y648243D01*
X815550Y647457D01*
X815482Y646674D01*
X815345Y645900D01*
X815142Y645141D01*
X814873Y644403D01*
X814541Y643690D01*
X814148Y643010D01*
X813697Y642366D01*
X813192Y641764D01*
X812636Y641208D01*
X812034Y640703D01*
X811390Y640252D01*
X810710Y639859D01*
X809997Y639527D01*
X809259Y639258D01*
X808500Y639055D01*
X807726Y638919D01*
X806943Y638850D01*
X806157Y638850D01*
X805374Y638919D01*
X804600Y639055D01*
X803841Y639258D01*
X803103Y639527D01*
X802390Y639859D01*
X801710Y640252D01*
X801066Y640703D01*
X800464Y641208D01*
X799908Y641764D01*
X799403Y642366D01*
X798952Y643010D01*
X798559Y643690D01*
X798227Y644403D01*
X797958Y645141D01*
X797755Y645900D01*
X797619Y646674D01*
X797550Y647457D01*
X797550Y648243D01*
X873550Y648243D02*
X873619Y649026D01*
X873755Y649800D01*
X873958Y650559D01*
X874227Y651297D01*
X874559Y652010D01*
X874952Y652690D01*
X875403Y653334D01*
X875908Y653936D01*
X876464Y654492D01*
X877066Y654997D01*
X877710Y655448D01*
X878390Y655841D01*
X879103Y656173D01*
X879841Y656442D01*
X880600Y656645D01*
X881374Y656782D01*
X882157Y656850D01*
X882943Y656850D01*
X883726Y656782D01*
X884500Y656645D01*
X885259Y656442D01*
X885997Y656173D01*
X886710Y655841D01*
X887390Y655448D01*
X888034Y654997D01*
X888636Y654492D01*
X889192Y653936D01*
X889697Y653334D01*
X890148Y652690D01*
X890541Y652010D01*
X890873Y651297D01*
X891142Y650559D01*
X891345Y649800D01*
X891482Y649026D01*
X891550Y648243D01*
X891550Y647457D01*
X891482Y646674D01*
X891345Y645900D01*
X891142Y645141D01*
X890873Y644403D01*
X890541Y643690D01*
X890148Y643010D01*
X889697Y642366D01*
X889192Y641764D01*
X888636Y641208D01*
X888034Y640703D01*
X887390Y640252D01*
X886710Y639859D01*
X885997Y639527D01*
X885259Y639258D01*
X884500Y639055D01*
X883726Y638919D01*
X882943Y638850D01*
X882157Y638850D01*
X881374Y638919D01*
X880600Y639055D01*
X879841Y639258D01*
X879103Y639527D01*
X878390Y639859D01*
X877710Y640252D01*
X877066Y640703D01*
X876464Y641208D01*
X875908Y641764D01*
X875403Y642366D01*
X874952Y643010D01*
X874559Y643690D01*
X874227Y644403D01*
X873958Y645141D01*
X873755Y645900D01*
X873619Y646674D01*
X873550Y647457D01*
X873550Y648243D01*
X645150Y648243D02*
X645219Y649026D01*
X645355Y649800D01*
X645558Y650559D01*
X645827Y651297D01*
X646159Y652010D01*
X646552Y652690D01*
X647003Y653334D01*
X647508Y653936D01*
X648064Y654492D01*
X648666Y654997D01*
X649310Y655448D01*
X649990Y655841D01*
X650703Y656173D01*
X651441Y656442D01*
X652200Y656645D01*
X652974Y656782D01*
X653757Y656850D01*
X654543Y656850D01*
X655326Y656782D01*
X656100Y656645D01*
X656859Y656442D01*
X657597Y656173D01*
X658310Y655841D01*
X658990Y655448D01*
X659634Y654997D01*
X660236Y654492D01*
X660792Y653936D01*
X661297Y653334D01*
X661748Y652690D01*
X662141Y652010D01*
X662473Y651297D01*
X662742Y650559D01*
X662945Y649800D01*
X663082Y649026D01*
X663150Y648243D01*
X663150Y647457D01*
X663082Y646674D01*
X662945Y645900D01*
X662742Y645141D01*
X662473Y644403D01*
X662141Y643690D01*
X661748Y643010D01*
X661297Y642366D01*
X660792Y641764D01*
X660236Y641208D01*
X659634Y640703D01*
X658990Y640252D01*
X658310Y639859D01*
X657597Y639527D01*
X656859Y639258D01*
X656100Y639055D01*
X655326Y638919D01*
X654543Y638850D01*
X653757Y638850D01*
X652974Y638919D01*
X652200Y639055D01*
X651441Y639258D01*
X650703Y639527D01*
X649990Y639859D01*
X649310Y640252D01*
X648666Y640703D01*
X648064Y641208D01*
X647508Y641764D01*
X647003Y642366D01*
X646552Y643010D01*
X646159Y643690D01*
X645827Y644403D01*
X645558Y645141D01*
X645355Y645900D01*
X645219Y646674D01*
X645150Y647457D01*
X645150Y648243D01*
X721150Y648243D02*
X721219Y649026D01*
X721355Y649800D01*
X721558Y650559D01*
X721827Y651297D01*
X722159Y652010D01*
X722552Y652690D01*
X723003Y653334D01*
X723508Y653936D01*
X724064Y654492D01*
X724666Y654997D01*
X725310Y655448D01*
X725990Y655841D01*
X726703Y656173D01*
X727441Y656442D01*
X728200Y656645D01*
X728974Y656782D01*
X729757Y656850D01*
X730543Y656850D01*
X731326Y656782D01*
X732100Y656645D01*
X732859Y656442D01*
X733597Y656173D01*
X734310Y655841D01*
X734990Y655448D01*
X735634Y654997D01*
X736236Y654492D01*
X736792Y653936D01*
X737297Y653334D01*
X737748Y652690D01*
X738141Y652010D01*
X738473Y651297D01*
X738742Y650559D01*
X738945Y649800D01*
X739082Y649026D01*
X739150Y648243D01*
X739150Y647457D01*
X739082Y646674D01*
X738945Y645900D01*
X738742Y645141D01*
X738473Y644403D01*
X738141Y643690D01*
X737748Y643010D01*
X737297Y642366D01*
X736792Y641764D01*
X736236Y641208D01*
X735634Y640703D01*
X734990Y640252D01*
X734310Y639859D01*
X733597Y639527D01*
X732859Y639258D01*
X732100Y639055D01*
X731326Y638919D01*
X730543Y638850D01*
X729757Y638850D01*
X728974Y638919D01*
X728200Y639055D01*
X727441Y639258D01*
X726703Y639527D01*
X725990Y639859D01*
X725310Y640252D01*
X724666Y640703D01*
X724064Y641208D01*
X723508Y641764D01*
X723003Y642366D01*
X722552Y643010D01*
X722159Y643690D01*
X721827Y644403D01*
X721558Y645141D01*
X721355Y645900D01*
X721219Y646674D01*
X721150Y647457D01*
X721150Y648243D01*
X1534536Y722180D02*
X1535604Y722104D01*
X1536665Y721951D01*
X1537712Y721723D01*
X1538740Y721421D01*
X1539744Y721047D01*
X1540719Y720602D01*
X1541659Y720088D01*
X1542560Y719509D01*
X1543418Y718867D01*
X1544228Y718165D01*
X1544985Y717408D01*
X1545687Y716598D01*
X1546329Y715740D01*
X1546908Y714839D01*
X1547422Y713899D01*
X1547867Y712924D01*
X1548241Y711920D01*
X1548543Y710892D01*
X1548771Y709845D01*
X1548924Y708784D01*
X1549000Y707716D01*
X1549000Y706644D01*
X1548924Y705576D01*
X1548771Y704515D01*
X1548543Y703468D01*
X1548241Y702440D01*
X1547867Y701436D01*
X1547422Y700461D01*
X1546908Y699521D01*
X1546329Y698620D01*
X1545687Y697762D01*
X1544985Y696952D01*
X1544228Y696195D01*
X1543418Y695493D01*
X1542560Y694851D01*
X1541659Y694272D01*
X1540719Y693758D01*
X1539744Y693313D01*
X1538740Y692939D01*
X1537712Y692637D01*
X1536665Y692409D01*
X1535604Y692256D01*
X1534536Y692180D01*
X1533464Y692180D01*
X1532396Y692256D01*
X1531335Y692409D01*
X1530288Y692637D01*
X1529260Y692939D01*
X1528256Y693313D01*
X1527281Y693758D01*
X1526341Y694272D01*
X1525440Y694851D01*
X1524582Y695493D01*
X1523772Y696195D01*
X1523015Y696952D01*
X1522313Y697762D01*
X1521671Y698620D01*
X1521092Y699521D01*
X1520578Y700461D01*
X1520133Y701436D01*
X1519759Y702440D01*
X1519457Y703468D01*
X1519229Y704515D01*
X1519076Y705576D01*
X1519000Y706644D01*
X1519000Y707716D01*
X1519076Y708784D01*
X1519229Y709845D01*
X1519457Y710892D01*
X1519759Y711920D01*
X1520133Y712924D01*
X1520578Y713899D01*
X1521092Y714839D01*
X1521671Y715740D01*
X1522313Y716598D01*
X1523015Y717408D01*
X1523772Y718165D01*
X1524582Y718867D01*
X1525440Y719509D01*
X1526341Y720088D01*
X1527281Y720602D01*
X1528256Y721047D01*
X1529260Y721421D01*
X1530288Y721723D01*
X1531335Y721951D01*
X1532396Y722104D01*
X1533464Y722180D01*
X1534536Y722180D01*
X1534536Y476220D02*
X1535604Y476144D01*
X1536665Y475991D01*
X1537712Y475763D01*
X1538740Y475461D01*
X1539744Y475087D01*
X1540719Y474642D01*
X1541659Y474128D01*
X1542560Y473549D01*
X1543418Y472907D01*
X1544228Y472205D01*
X1544985Y471448D01*
X1545687Y470638D01*
X1546329Y469780D01*
X1546908Y468879D01*
X1547422Y467939D01*
X1547867Y466964D01*
X1548241Y465960D01*
X1548543Y464932D01*
X1548771Y463885D01*
X1548924Y462824D01*
X1549000Y461756D01*
X1549000Y460684D01*
X1548924Y459616D01*
X1548771Y458555D01*
X1548543Y457508D01*
X1548241Y456480D01*
X1547867Y455476D01*
X1547422Y454501D01*
X1546908Y453561D01*
X1546329Y452660D01*
X1545687Y451802D01*
X1544985Y450992D01*
X1544228Y450235D01*
X1543418Y449533D01*
X1542560Y448891D01*
X1541659Y448312D01*
X1540719Y447798D01*
X1539744Y447353D01*
X1538740Y446979D01*
X1537712Y446677D01*
X1536665Y446449D01*
X1535604Y446296D01*
X1534536Y446220D01*
X1533464Y446220D01*
X1532396Y446296D01*
X1531335Y446449D01*
X1530288Y446677D01*
X1529260Y446979D01*
X1528256Y447353D01*
X1527281Y447798D01*
X1526341Y448312D01*
X1525440Y448891D01*
X1524582Y449533D01*
X1523772Y450235D01*
X1523015Y450992D01*
X1522313Y451802D01*
X1521671Y452660D01*
X1521092Y453561D01*
X1520578Y454501D01*
X1520133Y455476D01*
X1519759Y456480D01*
X1519457Y457508D01*
X1519229Y458555D01*
X1519076Y459616D01*
X1519000Y460684D01*
X1519000Y461756D01*
X1519076Y462824D01*
X1519229Y463885D01*
X1519457Y464932D01*
X1519759Y465960D01*
X1520133Y466964D01*
X1520578Y467939D01*
X1521092Y468879D01*
X1521671Y469780D01*
X1522313Y470638D01*
X1523015Y471448D01*
X1523772Y472205D01*
X1524582Y472907D01*
X1525440Y473549D01*
X1526341Y474128D01*
X1527281Y474642D01*
X1528256Y475087D01*
X1529260Y475461D01*
X1530288Y475763D01*
X1531335Y475991D01*
X1532396Y476144D01*
X1533464Y476220D01*
X1534536Y476220D01*
X71400Y577277D02*
X71325Y576134D01*
X71176Y574998D01*
X70952Y573874D01*
X70655Y572767D01*
X70287Y571682D01*
X69849Y570624D01*
X69342Y569596D01*
X68769Y568604D01*
X68132Y567651D01*
X67435Y566742D01*
X66679Y565881D01*
X65869Y565071D01*
X65008Y564315D01*
X64099Y563618D01*
X63146Y562981D01*
X62154Y562408D01*
X61126Y561901D01*
X60068Y561463D01*
X58983Y561095D01*
X57876Y560798D01*
X56752Y560575D01*
X55616Y560425D01*
X54473Y560350D01*
X53327Y560350D01*
X52184Y560425D01*
X51048Y560575D01*
X49924Y560798D01*
X48817Y561095D01*
X47732Y561463D01*
X46674Y561901D01*
X45646Y562408D01*
X44654Y562981D01*
X43701Y563618D01*
X42792Y564315D01*
X41931Y565071D01*
X41121Y565881D01*
X40365Y566742D01*
X39668Y567651D01*
X39031Y568604D01*
X38458Y569596D01*
X37951Y570624D01*
X37513Y571682D01*
X37145Y572767D01*
X36848Y573874D01*
X36625Y574998D01*
X36475Y576134D01*
X36400Y577277D01*
X36400Y578423D01*
X36475Y579566D01*
X36625Y580702D01*
X36848Y581826D01*
X37145Y582933D01*
X37513Y584018D01*
X37951Y585076D01*
X38458Y586104D01*
X39031Y587096D01*
X39668Y588049D01*
X40365Y588958D01*
X41121Y589819D01*
X41931Y590629D01*
X42792Y591385D01*
X43701Y592082D01*
X44654Y592719D01*
X45646Y593292D01*
X46674Y593799D01*
X47732Y594237D01*
X48817Y594605D01*
X49924Y594902D01*
X51048Y595126D01*
X52184Y595275D01*
X53327Y595350D01*
X54473Y595350D01*
X55616Y595275D01*
X56752Y595126D01*
X57876Y594902D01*
X58983Y594605D01*
X60068Y594237D01*
X61126Y593799D01*
X62154Y593292D01*
X63146Y592719D01*
X64099Y592082D01*
X65008Y591385D01*
X65869Y590629D01*
X66679Y589819D01*
X67435Y588958D01*
X68132Y588049D01*
X68769Y587096D01*
X69342Y586104D01*
X69849Y585076D01*
X70287Y584018D01*
X70655Y582933D01*
X70952Y581826D01*
X71176Y580702D01*
X71325Y579566D01*
X71400Y578423D01*
X71400Y577277D01*
X144400Y577277D02*
X144325Y576134D01*
X144176Y574998D01*
X143952Y573874D01*
X143655Y572767D01*
X143287Y571682D01*
X142849Y570624D01*
X142342Y569596D01*
X141769Y568604D01*
X141132Y567651D01*
X140435Y566742D01*
X139679Y565881D01*
X138869Y565071D01*
X138008Y564315D01*
X137099Y563618D01*
X136146Y562981D01*
X135154Y562408D01*
X134126Y561901D01*
X133068Y561463D01*
X131983Y561095D01*
X130876Y560798D01*
X129752Y560575D01*
X128616Y560425D01*
X127473Y560350D01*
X126327Y560350D01*
X125184Y560425D01*
X124048Y560575D01*
X122924Y560798D01*
X121817Y561095D01*
X120732Y561463D01*
X119674Y561901D01*
X118646Y562408D01*
X117654Y562981D01*
X116701Y563618D01*
X115792Y564315D01*
X114931Y565071D01*
X114121Y565881D01*
X113365Y566742D01*
X112668Y567651D01*
X112031Y568604D01*
X111458Y569596D01*
X110951Y570624D01*
X110513Y571682D01*
X110145Y572767D01*
X109848Y573874D01*
X109625Y574998D01*
X109475Y576134D01*
X109400Y577277D01*
X109400Y578423D01*
X109475Y579566D01*
X109625Y580702D01*
X109848Y581826D01*
X110145Y582933D01*
X110513Y584018D01*
X110951Y585076D01*
X111458Y586104D01*
X112031Y587096D01*
X112668Y588049D01*
X113365Y588958D01*
X114121Y589819D01*
X114931Y590629D01*
X115792Y591385D01*
X116701Y592082D01*
X117654Y592719D01*
X118646Y593292D01*
X119674Y593799D01*
X120732Y594237D01*
X121817Y594605D01*
X122924Y594902D01*
X124048Y595126D01*
X125184Y595275D01*
X126327Y595350D01*
X127473Y595350D01*
X128616Y595275D01*
X129752Y595126D01*
X130876Y594902D01*
X131983Y594605D01*
X133068Y594237D01*
X134126Y593799D01*
X135154Y593292D01*
X136146Y592719D01*
X137099Y592082D01*
X138008Y591385D01*
X138869Y590629D01*
X139679Y589819D01*
X140435Y588958D01*
X141132Y588049D01*
X141769Y587096D01*
X142342Y586104D01*
X142849Y585076D01*
X143287Y584018D01*
X143655Y582933D01*
X143952Y581826D01*
X144176Y580702D01*
X144325Y579566D01*
X144400Y578423D01*
X144400Y577277D01*
X249200Y577277D02*
X249125Y576134D01*
X248976Y574998D01*
X248752Y573874D01*
X248455Y572767D01*
X248087Y571682D01*
X247649Y570624D01*
X247142Y569596D01*
X246569Y568604D01*
X245932Y567651D01*
X245235Y566742D01*
X244479Y565881D01*
X243669Y565071D01*
X242808Y564315D01*
X241899Y563618D01*
X240946Y562981D01*
X239954Y562408D01*
X238926Y561901D01*
X237868Y561463D01*
X236783Y561095D01*
X235676Y560798D01*
X234552Y560575D01*
X233416Y560425D01*
X232273Y560350D01*
X231127Y560350D01*
X229984Y560425D01*
X228848Y560575D01*
X227724Y560798D01*
X226617Y561095D01*
X225532Y561463D01*
X224474Y561901D01*
X223446Y562408D01*
X222454Y562981D01*
X221501Y563618D01*
X220592Y564315D01*
X219731Y565071D01*
X218921Y565881D01*
X218165Y566742D01*
X217468Y567651D01*
X216831Y568604D01*
X216258Y569596D01*
X215751Y570624D01*
X215313Y571682D01*
X214945Y572767D01*
X214648Y573874D01*
X214425Y574998D01*
X214275Y576134D01*
X214200Y577277D01*
X214200Y578423D01*
X214275Y579566D01*
X214425Y580702D01*
X214648Y581826D01*
X214945Y582933D01*
X215313Y584018D01*
X215751Y585076D01*
X216258Y586104D01*
X216831Y587096D01*
X217468Y588049D01*
X218165Y588958D01*
X218921Y589819D01*
X219731Y590629D01*
X220592Y591385D01*
X221501Y592082D01*
X222454Y592719D01*
X223446Y593292D01*
X224474Y593799D01*
X225532Y594237D01*
X226617Y594605D01*
X227724Y594902D01*
X228848Y595126D01*
X229984Y595275D01*
X231127Y595350D01*
X232273Y595350D01*
X233416Y595275D01*
X234552Y595126D01*
X235676Y594902D01*
X236783Y594605D01*
X237868Y594237D01*
X238926Y593799D01*
X239954Y593292D01*
X240946Y592719D01*
X241899Y592082D01*
X242808Y591385D01*
X243669Y590629D01*
X244479Y589819D01*
X245235Y588958D01*
X245932Y588049D01*
X246569Y587096D01*
X247142Y586104D01*
X247649Y585076D01*
X248087Y584018D01*
X248455Y582933D01*
X248752Y581826D01*
X248976Y580702D01*
X249125Y579566D01*
X249200Y578423D01*
X249200Y577277D01*
X322200Y577277D02*
X322125Y576134D01*
X321976Y574998D01*
X321752Y573874D01*
X321455Y572767D01*
X321087Y571682D01*
X320649Y570624D01*
X320142Y569596D01*
X319569Y568604D01*
X318932Y567651D01*
X318235Y566742D01*
X317479Y565881D01*
X316669Y565071D01*
X315808Y564315D01*
X314899Y563618D01*
X313946Y562981D01*
X312954Y562408D01*
X311926Y561901D01*
X310868Y561463D01*
X309783Y561095D01*
X308676Y560798D01*
X307552Y560575D01*
X306416Y560425D01*
X305273Y560350D01*
X304127Y560350D01*
X302984Y560425D01*
X301848Y560575D01*
X300724Y560798D01*
X299617Y561095D01*
X298532Y561463D01*
X297474Y561901D01*
X296446Y562408D01*
X295454Y562981D01*
X294501Y563618D01*
X293592Y564315D01*
X292731Y565071D01*
X291921Y565881D01*
X291165Y566742D01*
X290468Y567651D01*
X289831Y568604D01*
X289258Y569596D01*
X288751Y570624D01*
X288313Y571682D01*
X287945Y572767D01*
X287648Y573874D01*
X287425Y574998D01*
X287275Y576134D01*
X287200Y577277D01*
X287200Y578423D01*
X287275Y579566D01*
X287425Y580702D01*
X287648Y581826D01*
X287945Y582933D01*
X288313Y584018D01*
X288751Y585076D01*
X289258Y586104D01*
X289831Y587096D01*
X290468Y588049D01*
X291165Y588958D01*
X291921Y589819D01*
X292731Y590629D01*
X293592Y591385D01*
X294501Y592082D01*
X295454Y592719D01*
X296446Y593292D01*
X297474Y593799D01*
X298532Y594237D01*
X299617Y594605D01*
X300724Y594902D01*
X301848Y595126D01*
X302984Y595275D01*
X304127Y595350D01*
X305273Y595350D01*
X306416Y595275D01*
X307552Y595126D01*
X308676Y594902D01*
X309783Y594605D01*
X310868Y594237D01*
X311926Y593799D01*
X312954Y593292D01*
X313946Y592719D01*
X314899Y592082D01*
X315808Y591385D01*
X316669Y590629D01*
X317479Y589819D01*
X318235Y588958D01*
X318932Y588049D01*
X319569Y587096D01*
X320142Y586104D01*
X320649Y585076D01*
X321087Y584018D01*
X321455Y582933D01*
X321752Y581826D01*
X321976Y580702D01*
X322125Y579566D01*
X322200Y578423D01*
X322200Y577277D01*
M02*
