G04 EAGLE Gerber RS-274X export*
G75*
%MOMM*%
%FSLAX34Y34*%
%LPD*%
%INSilkscreen Bottom*%
%IPPOS*%
%AMOC8*
5,1,8,0,0,1.08239X$1,22.5*%
G01*
%ADD10R,0.063500X0.063500*%
%ADD11R,0.952500X0.063500*%
%ADD12R,0.762000X0.063500*%
%ADD13R,0.695963X0.063500*%
%ADD14R,0.129537X0.063500*%
%ADD15R,0.256538X0.063500*%
%ADD16R,0.060963X0.063500*%
%ADD17R,0.383538X0.063500*%
%ADD18R,0.127000X0.063500*%
%ADD19R,0.571500X0.063500*%
%ADD20R,0.320038X0.063500*%
%ADD21R,0.698500X0.063500*%
%ADD22R,0.825500X0.063500*%
%ADD23R,0.955038X0.063500*%
%ADD24R,0.574037X0.063500*%
%ADD25R,0.505463X0.063500*%
%ADD26R,1.016000X0.063500*%
%ADD27R,0.193038X0.063500*%
%ADD28R,0.378463X0.063500*%
%ADD29R,0.066037X0.063500*%
%ADD30R,0.637537X0.063500*%
%ADD31R,0.187963X0.063500*%
%ADD32R,0.254000X0.063500*%
%ADD33R,0.828038X0.063500*%
%ADD34R,1.018538X0.063500*%
%ADD35R,0.314963X0.063500*%
%ADD36R,1.079500X0.063500*%
%ADD37R,1.143000X0.063500*%
%ADD38R,1.270000X0.063500*%
%ADD39R,1.336037X0.063500*%
%ADD40R,1.209037X0.063500*%
%ADD41R,0.889000X0.063500*%
%ADD42R,0.508000X0.063500*%
%ADD43R,0.444500X0.063500*%
%ADD44R,0.190500X0.063500*%
%ADD45R,0.317500X0.063500*%
%ADD46R,0.251463X0.063500*%
%ADD47R,0.381000X0.063500*%
%ADD48R,0.891538X0.063500*%
%ADD49R,0.441963X0.063500*%
%ADD50R,0.635000X0.063500*%
%ADD51R,0.510537X0.063500*%
%ADD52R,0.447038X0.063500*%
%ADD53R,0.632463X0.063500*%
%ADD54C,0.101600*%


D10*
X883907Y97155D03*
D11*
X900417Y97155D03*
D12*
X888035Y97155D03*
D13*
X875665Y97155D03*
D12*
X863905Y97155D03*
D10*
X883907Y97790D03*
D14*
X907733Y97790D03*
D11*
X900417Y97790D03*
D12*
X888035Y97790D03*
D13*
X875665Y97790D03*
D12*
X863905Y97790D03*
D10*
X883907Y98425D03*
D15*
X908368Y98425D03*
D11*
X900417Y98425D03*
D12*
X888035Y98425D03*
D13*
X875665Y98425D03*
D12*
X863905Y98425D03*
D16*
X911225Y99060D03*
D10*
X883907Y99060D03*
X853453Y99060D03*
D17*
X909003Y99060D03*
D11*
X900417Y99060D03*
D12*
X888035Y99060D03*
D13*
X875665Y99060D03*
D12*
X863905Y99060D03*
D18*
X854405Y99060D03*
D10*
X883907Y99695D03*
D19*
X909942Y99695D03*
D11*
X900417Y99695D03*
D12*
X888035Y99695D03*
D13*
X875665Y99695D03*
D12*
X863905Y99695D03*
D20*
X853440Y99695D03*
D10*
X850887Y100330D03*
D21*
X910577Y100330D03*
D11*
X900417Y100330D03*
D22*
X887717Y100330D03*
D13*
X875665Y100330D03*
D12*
X863905Y100330D03*
D17*
X853123Y100330D03*
D10*
X879462Y110490D03*
D23*
X923925Y110490D03*
X911860Y110490D03*
D11*
X900417Y110490D03*
D22*
X887717Y110490D03*
D13*
X875665Y110490D03*
D12*
X863905Y110490D03*
D24*
X852170Y110490D03*
D25*
X839788Y110490D03*
D10*
X883907Y111125D03*
D26*
X924230Y111125D03*
D23*
X911860Y111125D03*
D11*
X900417Y111125D03*
D12*
X888035Y111125D03*
D13*
X875665Y111125D03*
D12*
X863905Y111125D03*
D24*
X852170Y111125D03*
D25*
X839788Y111125D03*
D16*
X929005Y111760D03*
D10*
X883907Y111760D03*
D23*
X923925Y111760D03*
X911860Y111760D03*
D11*
X900417Y111760D03*
D12*
X888035Y111760D03*
D13*
X875665Y111760D03*
D12*
X863905Y111760D03*
D24*
X852170Y111760D03*
D25*
X839788Y111760D03*
D16*
X929005Y112395D03*
D10*
X883907Y112395D03*
X930897Y112395D03*
D23*
X923925Y112395D03*
X911860Y112395D03*
D11*
X900417Y112395D03*
D12*
X888035Y112395D03*
D13*
X875665Y112395D03*
D12*
X863905Y112395D03*
D24*
X852170Y112395D03*
D25*
X839788Y112395D03*
D16*
X929005Y113030D03*
D10*
X883907Y113030D03*
D18*
X931215Y113030D03*
D23*
X923925Y113030D03*
X911860Y113030D03*
D11*
X900417Y113030D03*
D12*
X888035Y113030D03*
D13*
X875665Y113030D03*
D12*
X863905Y113030D03*
D24*
X852170Y113030D03*
D25*
X839788Y113030D03*
D16*
X929005Y113665D03*
D10*
X883907Y113665D03*
D27*
X931545Y113665D03*
D23*
X923925Y113665D03*
X911860Y113665D03*
D11*
X900417Y113665D03*
D12*
X888035Y113665D03*
D13*
X875665Y113665D03*
D12*
X863905Y113665D03*
D24*
X852170Y113665D03*
D25*
X839788Y113665D03*
D15*
X931863Y114300D03*
D26*
X924230Y114300D03*
D23*
X911860Y114300D03*
D11*
X900417Y114300D03*
D22*
X887717Y114300D03*
D13*
X875665Y114300D03*
D12*
X863905Y114300D03*
D24*
X852170Y114300D03*
D25*
X839788Y114300D03*
D26*
X935660Y123190D03*
X924230Y123190D03*
D23*
X911860Y123190D03*
D11*
X900417Y123190D03*
D22*
X887717Y123190D03*
D13*
X875665Y123190D03*
D12*
X863905Y123190D03*
D24*
X852170Y123190D03*
D25*
X839788Y123190D03*
D28*
X827723Y123190D03*
D16*
X929005Y123825D03*
D10*
X883907Y123825D03*
D26*
X935660Y123825D03*
D23*
X923925Y123825D03*
X911860Y123825D03*
D11*
X900417Y123825D03*
D12*
X888035Y123825D03*
D13*
X875665Y123825D03*
D12*
X863905Y123825D03*
D24*
X852170Y123825D03*
D25*
X839788Y123825D03*
D28*
X827723Y123825D03*
D16*
X929005Y124460D03*
D10*
X883907Y124460D03*
D26*
X935660Y124460D03*
D23*
X923925Y124460D03*
X911860Y124460D03*
D11*
X900417Y124460D03*
D12*
X888035Y124460D03*
D13*
X875665Y124460D03*
D12*
X863905Y124460D03*
D24*
X852170Y124460D03*
D25*
X839788Y124460D03*
D28*
X827723Y124460D03*
D16*
X929005Y125095D03*
D10*
X883907Y125095D03*
D26*
X935660Y125095D03*
D23*
X923925Y125095D03*
X911860Y125095D03*
D11*
X900417Y125095D03*
D12*
X888035Y125095D03*
D13*
X875665Y125095D03*
D12*
X863905Y125095D03*
D24*
X852170Y125095D03*
D25*
X839788Y125095D03*
D28*
X827723Y125095D03*
D16*
X929005Y125730D03*
D10*
X883907Y125730D03*
D26*
X935660Y125730D03*
D23*
X923925Y125730D03*
X911860Y125730D03*
D11*
X900417Y125730D03*
D12*
X888035Y125730D03*
D13*
X875665Y125730D03*
D12*
X863905Y125730D03*
D24*
X852170Y125730D03*
D25*
X839788Y125730D03*
D28*
X827723Y125730D03*
D16*
X942340Y126365D03*
X929005Y126365D03*
D10*
X883907Y126365D03*
D26*
X935660Y126365D03*
D23*
X923925Y126365D03*
X911860Y126365D03*
D11*
X900417Y126365D03*
D12*
X888035Y126365D03*
D13*
X875665Y126365D03*
D12*
X863905Y126365D03*
D24*
X852170Y126365D03*
D25*
X839788Y126365D03*
D28*
X827723Y126365D03*
D16*
X929005Y127000D03*
D10*
X883907Y127000D03*
X942962Y127000D03*
D26*
X935660Y127000D03*
D23*
X923925Y127000D03*
X911860Y127000D03*
D11*
X900417Y127000D03*
D12*
X888035Y127000D03*
D13*
X875665Y127000D03*
D12*
X863905Y127000D03*
D24*
X852170Y127000D03*
D25*
X839788Y127000D03*
D28*
X827723Y127000D03*
D10*
X942962Y127635D03*
D26*
X935660Y127635D03*
X924230Y127635D03*
D23*
X911860Y127635D03*
D11*
X900417Y127635D03*
D22*
X887717Y127635D03*
D13*
X875665Y127635D03*
D12*
X863905Y127635D03*
D24*
X852170Y127635D03*
D25*
X839788Y127635D03*
D28*
X827723Y127635D03*
D10*
X930897Y128270D03*
D29*
X916305Y128270D03*
D10*
X904862Y128270D03*
X895972Y128270D03*
X872503Y128270D03*
X867397Y128270D03*
X860412Y128270D03*
X854723Y128270D03*
D16*
X842010Y128270D03*
D10*
X837578Y128270D03*
D16*
X826135Y128270D03*
X942340Y135890D03*
D10*
X879462Y135890D03*
D19*
X945502Y135890D03*
D26*
X935660Y135890D03*
X924230Y135890D03*
D23*
X911860Y135890D03*
D11*
X900417Y135890D03*
D22*
X887717Y135890D03*
D13*
X875665Y135890D03*
D12*
X863905Y135890D03*
D24*
X852170Y135890D03*
D25*
X839788Y135890D03*
D28*
X827723Y135890D03*
D16*
X929005Y136525D03*
D10*
X883907Y136525D03*
D19*
X945502Y136525D03*
D26*
X935660Y136525D03*
D23*
X923925Y136525D03*
X911860Y136525D03*
D11*
X900417Y136525D03*
D12*
X888035Y136525D03*
D13*
X875665Y136525D03*
D12*
X863905Y136525D03*
D24*
X852170Y136525D03*
D25*
X839788Y136525D03*
D28*
X827723Y136525D03*
D16*
X816610Y136525D03*
X929005Y137160D03*
D10*
X883907Y137160D03*
D19*
X945502Y137160D03*
D26*
X935660Y137160D03*
D23*
X923925Y137160D03*
X911860Y137160D03*
D11*
X900417Y137160D03*
D12*
X888035Y137160D03*
D13*
X875665Y137160D03*
D12*
X863905Y137160D03*
D24*
X852170Y137160D03*
D25*
X839788Y137160D03*
D28*
X827723Y137160D03*
D16*
X816610Y137160D03*
D29*
X948690Y137795D03*
D16*
X929005Y137795D03*
D10*
X883907Y137795D03*
D29*
X815975Y137795D03*
D19*
X945502Y137795D03*
D26*
X935660Y137795D03*
D23*
X923925Y137795D03*
X911860Y137795D03*
D11*
X900417Y137795D03*
D12*
X888035Y137795D03*
D13*
X875665Y137795D03*
D12*
X863905Y137795D03*
D24*
X852170Y137795D03*
D25*
X839788Y137795D03*
D28*
X827723Y137795D03*
D16*
X816610Y137795D03*
X929005Y138430D03*
D10*
X883907Y138430D03*
D30*
X945833Y138430D03*
D26*
X935660Y138430D03*
D23*
X923925Y138430D03*
X911860Y138430D03*
D11*
X900417Y138430D03*
D12*
X888035Y138430D03*
D13*
X875665Y138430D03*
D12*
X863905Y138430D03*
D24*
X852170Y138430D03*
D25*
X839788Y138430D03*
D28*
X827723Y138430D03*
D18*
X816280Y138430D03*
D16*
X929005Y139065D03*
D10*
X883907Y139065D03*
D30*
X945833Y139065D03*
D26*
X935660Y139065D03*
D23*
X923925Y139065D03*
X911860Y139065D03*
D11*
X900417Y139065D03*
D12*
X888035Y139065D03*
D13*
X875665Y139065D03*
D12*
X863905Y139065D03*
D24*
X852170Y139065D03*
D25*
X839788Y139065D03*
D28*
X827723Y139065D03*
D18*
X816280Y139065D03*
D16*
X929005Y139700D03*
D10*
X883907Y139700D03*
D21*
X946137Y139700D03*
D26*
X935660Y139700D03*
D23*
X923925Y139700D03*
X911860Y139700D03*
D11*
X900417Y139700D03*
D12*
X888035Y139700D03*
D13*
X875665Y139700D03*
D12*
X863905Y139700D03*
D24*
X852170Y139700D03*
D25*
X839788Y139700D03*
D28*
X827723Y139700D03*
D31*
X815975Y139700D03*
D16*
X929005Y140335D03*
D10*
X883907Y140335D03*
D21*
X946137Y140335D03*
D26*
X935660Y140335D03*
D23*
X923925Y140335D03*
X911860Y140335D03*
D11*
X900417Y140335D03*
D12*
X888035Y140335D03*
D13*
X875665Y140335D03*
D12*
X863905Y140335D03*
D24*
X852170Y140335D03*
D25*
X839788Y140335D03*
D28*
X827723Y140335D03*
D31*
X815975Y140335D03*
D16*
X929005Y140970D03*
D10*
X883907Y140970D03*
D12*
X946455Y140970D03*
D26*
X935660Y140970D03*
D23*
X923925Y140970D03*
X911860Y140970D03*
D11*
X900417Y140970D03*
D12*
X888035Y140970D03*
D13*
X875665Y140970D03*
D12*
X863905Y140970D03*
D24*
X852170Y140970D03*
D25*
X839788Y140970D03*
D28*
X827723Y140970D03*
D32*
X815645Y140970D03*
D16*
X929005Y141605D03*
D10*
X883907Y141605D03*
D12*
X946455Y141605D03*
D26*
X935660Y141605D03*
D23*
X923925Y141605D03*
X911860Y141605D03*
D11*
X900417Y141605D03*
D12*
X888035Y141605D03*
D13*
X875665Y141605D03*
D12*
X863905Y141605D03*
D24*
X852170Y141605D03*
D25*
X839788Y141605D03*
D28*
X827723Y141605D03*
D32*
X815645Y141605D03*
D16*
X942340Y142240D03*
D33*
X946785Y142240D03*
D26*
X935660Y142240D03*
X924230Y142240D03*
D23*
X911860Y142240D03*
D11*
X900417Y142240D03*
D22*
X887717Y142240D03*
D13*
X875665Y142240D03*
D12*
X863905Y142240D03*
D24*
X852170Y142240D03*
D25*
X839788Y142240D03*
D28*
X827723Y142240D03*
D32*
X815645Y142240D03*
D10*
X951852Y147955D03*
X942962Y147955D03*
D16*
X940435Y147955D03*
D10*
X928383Y147955D03*
X919467Y147955D03*
D29*
X916305Y147955D03*
X908050Y147955D03*
D10*
X904862Y147955D03*
X895972Y147955D03*
X891527Y147955D03*
D29*
X884555Y147955D03*
D10*
X878827Y147955D03*
X872503Y147955D03*
X849617Y147955D03*
X829297Y147955D03*
D16*
X826135Y147955D03*
X816610Y147955D03*
D10*
X930897Y147955D03*
X867397Y147955D03*
X860412Y147955D03*
X854723Y147955D03*
D16*
X842010Y147955D03*
D10*
X837578Y147955D03*
D34*
X947738Y148590D03*
D26*
X935660Y148590D03*
X924230Y148590D03*
D23*
X911860Y148590D03*
D11*
X900417Y148590D03*
D22*
X887717Y148590D03*
D13*
X875665Y148590D03*
D12*
X863905Y148590D03*
D24*
X852170Y148590D03*
D25*
X839788Y148590D03*
D28*
X827723Y148590D03*
D35*
X815340Y148590D03*
D16*
X929005Y149225D03*
D10*
X883907Y149225D03*
D34*
X947738Y149225D03*
D26*
X935660Y149225D03*
D23*
X923925Y149225D03*
X911860Y149225D03*
D11*
X900417Y149225D03*
D12*
X888035Y149225D03*
D13*
X875665Y149225D03*
D12*
X863905Y149225D03*
D24*
X852170Y149225D03*
D25*
X839788Y149225D03*
D28*
X827723Y149225D03*
D35*
X815340Y149225D03*
D16*
X953135Y149860D03*
X929005Y149860D03*
D10*
X883907Y149860D03*
D34*
X947738Y149860D03*
D26*
X935660Y149860D03*
D23*
X923925Y149860D03*
X911860Y149860D03*
D11*
X900417Y149860D03*
D12*
X888035Y149860D03*
D13*
X875665Y149860D03*
D12*
X863905Y149860D03*
D24*
X852170Y149860D03*
D25*
X839788Y149860D03*
D28*
X827723Y149860D03*
D35*
X815340Y149860D03*
D16*
X929005Y150495D03*
D10*
X883907Y150495D03*
D36*
X948042Y150495D03*
D26*
X935660Y150495D03*
D23*
X923925Y150495D03*
X911860Y150495D03*
D11*
X900417Y150495D03*
D12*
X888035Y150495D03*
D13*
X875665Y150495D03*
D12*
X863905Y150495D03*
D24*
X852170Y150495D03*
D25*
X839788Y150495D03*
D28*
X827723Y150495D03*
D35*
X815340Y150495D03*
D16*
X929005Y151130D03*
D10*
X883907Y151130D03*
D36*
X948042Y151130D03*
D26*
X935660Y151130D03*
D23*
X923925Y151130D03*
X911860Y151130D03*
D11*
X900417Y151130D03*
D12*
X888035Y151130D03*
D13*
X875665Y151130D03*
D12*
X863905Y151130D03*
D24*
X852170Y151130D03*
D25*
X839788Y151130D03*
D28*
X827723Y151130D03*
D35*
X815340Y151130D03*
D16*
X929005Y151765D03*
D10*
X883907Y151765D03*
D36*
X948042Y151765D03*
D26*
X935660Y151765D03*
D23*
X923925Y151765D03*
X911860Y151765D03*
D11*
X900417Y151765D03*
D12*
X888035Y151765D03*
D13*
X875665Y151765D03*
D12*
X863905Y151765D03*
D24*
X852170Y151765D03*
D25*
X839788Y151765D03*
D28*
X827723Y151765D03*
D35*
X815340Y151765D03*
D16*
X929005Y152400D03*
D10*
X883907Y152400D03*
D36*
X948042Y152400D03*
D26*
X935660Y152400D03*
D23*
X923925Y152400D03*
X911860Y152400D03*
D11*
X900417Y152400D03*
D12*
X888035Y152400D03*
D13*
X875665Y152400D03*
D12*
X863905Y152400D03*
D24*
X852170Y152400D03*
D25*
X839788Y152400D03*
D28*
X827723Y152400D03*
D35*
X815340Y152400D03*
D16*
X929005Y153035D03*
D10*
X883907Y153035D03*
D36*
X948042Y153035D03*
D26*
X935660Y153035D03*
D23*
X923925Y153035D03*
X911860Y153035D03*
D11*
X900417Y153035D03*
D12*
X888035Y153035D03*
D13*
X875665Y153035D03*
D12*
X863905Y153035D03*
D24*
X852170Y153035D03*
D25*
X839788Y153035D03*
D28*
X827723Y153035D03*
D35*
X815340Y153035D03*
D10*
X953757Y153670D03*
D16*
X929005Y153670D03*
D10*
X883907Y153670D03*
D36*
X948042Y153670D03*
D26*
X935660Y153670D03*
D23*
X923925Y153670D03*
X911860Y153670D03*
D11*
X900417Y153670D03*
D12*
X888035Y153670D03*
D13*
X875665Y153670D03*
D12*
X863905Y153670D03*
D24*
X852170Y153670D03*
D25*
X839788Y153670D03*
D28*
X827723Y153670D03*
D35*
X815340Y153670D03*
D16*
X929005Y154305D03*
D10*
X883907Y154305D03*
D37*
X948360Y154305D03*
D26*
X935660Y154305D03*
D23*
X923925Y154305D03*
X911860Y154305D03*
D11*
X900417Y154305D03*
D12*
X888035Y154305D03*
D13*
X875665Y154305D03*
D12*
X863905Y154305D03*
D24*
X852170Y154305D03*
D25*
X839788Y154305D03*
D28*
X827723Y154305D03*
D35*
X815340Y154305D03*
D16*
X929005Y154940D03*
D10*
X883907Y154940D03*
D37*
X948360Y154940D03*
D26*
X935660Y154940D03*
D23*
X923925Y154940D03*
X911860Y154940D03*
D11*
X900417Y154940D03*
D12*
X888035Y154940D03*
D13*
X875665Y154940D03*
D12*
X863905Y154940D03*
D24*
X852170Y154940D03*
D25*
X839788Y154940D03*
D28*
X827723Y154940D03*
D35*
X815340Y154940D03*
D37*
X948360Y155575D03*
D26*
X935660Y155575D03*
X924230Y155575D03*
D23*
X911860Y155575D03*
D11*
X900417Y155575D03*
D22*
X887717Y155575D03*
D13*
X875665Y155575D03*
D12*
X863905Y155575D03*
D24*
X852170Y155575D03*
D25*
X839788Y155575D03*
D28*
X827723Y155575D03*
D35*
X815340Y155575D03*
D16*
X942340Y161290D03*
D10*
X879462Y161290D03*
D38*
X948995Y161290D03*
D26*
X935660Y161290D03*
X924230Y161290D03*
D23*
X911860Y161290D03*
D11*
X900417Y161290D03*
D22*
X887717Y161290D03*
D13*
X875665Y161290D03*
D12*
X863905Y161290D03*
D24*
X852170Y161290D03*
D25*
X839788Y161290D03*
D28*
X827723Y161290D03*
D35*
X815340Y161290D03*
D16*
X929005Y161925D03*
D10*
X883907Y161925D03*
D38*
X948995Y161925D03*
D26*
X935660Y161925D03*
D23*
X923925Y161925D03*
X911860Y161925D03*
D11*
X900417Y161925D03*
D12*
X888035Y161925D03*
D13*
X875665Y161925D03*
D12*
X863905Y161925D03*
D24*
X852170Y161925D03*
D25*
X839788Y161925D03*
D28*
X827723Y161925D03*
D35*
X815340Y161925D03*
D16*
X929005Y162560D03*
D10*
X883907Y162560D03*
D38*
X948995Y162560D03*
D26*
X935660Y162560D03*
D23*
X923925Y162560D03*
X911860Y162560D03*
D11*
X900417Y162560D03*
D12*
X888035Y162560D03*
D13*
X875665Y162560D03*
D12*
X863905Y162560D03*
D24*
X852170Y162560D03*
D25*
X839788Y162560D03*
D28*
X827723Y162560D03*
D35*
X815340Y162560D03*
D16*
X929005Y163195D03*
D10*
X883907Y163195D03*
D38*
X948995Y163195D03*
D26*
X935660Y163195D03*
D23*
X923925Y163195D03*
X911860Y163195D03*
D11*
X900417Y163195D03*
D12*
X888035Y163195D03*
D13*
X875665Y163195D03*
D12*
X863905Y163195D03*
D24*
X852170Y163195D03*
D25*
X839788Y163195D03*
D28*
X827723Y163195D03*
D35*
X815340Y163195D03*
D16*
X929005Y163830D03*
D10*
X883907Y163830D03*
D38*
X948995Y163830D03*
D26*
X935660Y163830D03*
D23*
X923925Y163830D03*
X911860Y163830D03*
D11*
X900417Y163830D03*
D12*
X888035Y163830D03*
D13*
X875665Y163830D03*
D12*
X863905Y163830D03*
D24*
X852170Y163830D03*
D25*
X839788Y163830D03*
D28*
X827723Y163830D03*
D35*
X815340Y163830D03*
D16*
X929005Y164465D03*
D10*
X883907Y164465D03*
D38*
X948995Y164465D03*
D26*
X935660Y164465D03*
D23*
X923925Y164465D03*
X911860Y164465D03*
D11*
X900417Y164465D03*
D12*
X888035Y164465D03*
D13*
X875665Y164465D03*
D12*
X863905Y164465D03*
D24*
X852170Y164465D03*
D25*
X839788Y164465D03*
D28*
X827723Y164465D03*
D35*
X815340Y164465D03*
D16*
X929005Y165100D03*
D10*
X883907Y165100D03*
D38*
X948995Y165100D03*
D26*
X935660Y165100D03*
D23*
X923925Y165100D03*
X911860Y165100D03*
D11*
X900417Y165100D03*
D12*
X888035Y165100D03*
D13*
X875665Y165100D03*
D12*
X863905Y165100D03*
D24*
X852170Y165100D03*
D25*
X839788Y165100D03*
D28*
X827723Y165100D03*
D35*
X815340Y165100D03*
D16*
X929005Y165735D03*
D10*
X883907Y165735D03*
D38*
X948995Y165735D03*
D26*
X935660Y165735D03*
D23*
X923925Y165735D03*
X911860Y165735D03*
D11*
X900417Y165735D03*
D12*
X888035Y165735D03*
D13*
X875665Y165735D03*
D12*
X863905Y165735D03*
D24*
X852170Y165735D03*
D25*
X839788Y165735D03*
D28*
X827723Y165735D03*
D35*
X815340Y165735D03*
D16*
X929005Y166370D03*
D10*
X883907Y166370D03*
D38*
X948995Y166370D03*
D26*
X935660Y166370D03*
D23*
X923925Y166370D03*
X911860Y166370D03*
D11*
X900417Y166370D03*
D12*
X888035Y166370D03*
D13*
X875665Y166370D03*
D12*
X863905Y166370D03*
D24*
X852170Y166370D03*
D25*
X839788Y166370D03*
D28*
X827723Y166370D03*
D35*
X815340Y166370D03*
D16*
X929005Y167005D03*
D10*
X883907Y167005D03*
D38*
X948995Y167005D03*
D26*
X935660Y167005D03*
D23*
X923925Y167005D03*
X911860Y167005D03*
D11*
X900417Y167005D03*
D12*
X888035Y167005D03*
D13*
X875665Y167005D03*
D12*
X863905Y167005D03*
D24*
X852170Y167005D03*
D25*
X839788Y167005D03*
D28*
X827723Y167005D03*
D35*
X815340Y167005D03*
D16*
X929005Y167640D03*
D10*
X883907Y167640D03*
D38*
X948995Y167640D03*
D26*
X935660Y167640D03*
D23*
X923925Y167640D03*
X911860Y167640D03*
D11*
X900417Y167640D03*
D12*
X888035Y167640D03*
D13*
X875665Y167640D03*
D12*
X863905Y167640D03*
D24*
X852170Y167640D03*
D25*
X839788Y167640D03*
D28*
X827723Y167640D03*
D35*
X815340Y167640D03*
D16*
X929005Y168275D03*
D10*
X883907Y168275D03*
D39*
X949325Y168275D03*
D26*
X935660Y168275D03*
D23*
X923925Y168275D03*
X911860Y168275D03*
D11*
X900417Y168275D03*
D12*
X888035Y168275D03*
D13*
X875665Y168275D03*
D12*
X863905Y168275D03*
D24*
X852170Y168275D03*
D25*
X839788Y168275D03*
D28*
X827723Y168275D03*
D35*
X815340Y168275D03*
D39*
X949325Y168910D03*
D26*
X935660Y168910D03*
X924230Y168910D03*
D23*
X911860Y168910D03*
D11*
X900417Y168910D03*
D22*
X887717Y168910D03*
D13*
X875665Y168910D03*
D12*
X863905Y168910D03*
D24*
X852170Y168910D03*
D25*
X839788Y168910D03*
D28*
X827723Y168910D03*
D35*
X815340Y168910D03*
D39*
X949325Y173355D03*
D26*
X935660Y173355D03*
X924230Y173355D03*
D23*
X911860Y173355D03*
D11*
X900417Y173355D03*
D22*
X887717Y173355D03*
D13*
X875665Y173355D03*
D12*
X863905Y173355D03*
D24*
X852170Y173355D03*
D25*
X839788Y173355D03*
D28*
X827723Y173355D03*
D35*
X815340Y173355D03*
D16*
X929005Y173990D03*
D10*
X883907Y173990D03*
D39*
X949325Y173990D03*
D26*
X935660Y173990D03*
D23*
X923925Y173990D03*
X911860Y173990D03*
D11*
X900417Y173990D03*
D12*
X888035Y173990D03*
D13*
X875665Y173990D03*
D12*
X863905Y173990D03*
D24*
X852170Y173990D03*
D25*
X839788Y173990D03*
D28*
X827723Y173990D03*
D35*
X815340Y173990D03*
D16*
X929005Y174625D03*
D10*
X883907Y174625D03*
D38*
X948995Y174625D03*
D26*
X935660Y174625D03*
D23*
X923925Y174625D03*
X911860Y174625D03*
D11*
X900417Y174625D03*
D12*
X888035Y174625D03*
D13*
X875665Y174625D03*
D12*
X863905Y174625D03*
D24*
X852170Y174625D03*
D25*
X839788Y174625D03*
D28*
X827723Y174625D03*
D35*
X815340Y174625D03*
D16*
X929005Y175260D03*
D10*
X883907Y175260D03*
D38*
X948995Y175260D03*
D26*
X935660Y175260D03*
D23*
X923925Y175260D03*
X911860Y175260D03*
D11*
X900417Y175260D03*
D12*
X888035Y175260D03*
D13*
X875665Y175260D03*
D12*
X863905Y175260D03*
D24*
X852170Y175260D03*
D25*
X839788Y175260D03*
D28*
X827723Y175260D03*
D35*
X815340Y175260D03*
D16*
X929005Y175895D03*
D10*
X883907Y175895D03*
D38*
X948995Y175895D03*
D26*
X935660Y175895D03*
D23*
X923925Y175895D03*
X911860Y175895D03*
D11*
X900417Y175895D03*
D12*
X888035Y175895D03*
D13*
X875665Y175895D03*
D12*
X863905Y175895D03*
D24*
X852170Y175895D03*
D25*
X839788Y175895D03*
D28*
X827723Y175895D03*
D35*
X815340Y175895D03*
D16*
X929005Y176530D03*
D10*
X883907Y176530D03*
D38*
X948995Y176530D03*
D26*
X935660Y176530D03*
D23*
X923925Y176530D03*
X911860Y176530D03*
D11*
X900417Y176530D03*
D12*
X888035Y176530D03*
D13*
X875665Y176530D03*
D12*
X863905Y176530D03*
D24*
X852170Y176530D03*
D25*
X839788Y176530D03*
D28*
X827723Y176530D03*
D35*
X815340Y176530D03*
D16*
X929005Y177165D03*
D10*
X883907Y177165D03*
D38*
X948995Y177165D03*
D26*
X935660Y177165D03*
D23*
X923925Y177165D03*
X911860Y177165D03*
D11*
X900417Y177165D03*
D12*
X888035Y177165D03*
D13*
X875665Y177165D03*
D12*
X863905Y177165D03*
D24*
X852170Y177165D03*
D25*
X839788Y177165D03*
D28*
X827723Y177165D03*
D35*
X815340Y177165D03*
D16*
X929005Y177800D03*
D10*
X883907Y177800D03*
D38*
X948995Y177800D03*
D26*
X935660Y177800D03*
D23*
X923925Y177800D03*
X911860Y177800D03*
D11*
X900417Y177800D03*
D12*
X888035Y177800D03*
D13*
X875665Y177800D03*
D12*
X863905Y177800D03*
D24*
X852170Y177800D03*
D25*
X839788Y177800D03*
D28*
X827723Y177800D03*
D35*
X815340Y177800D03*
D16*
X929005Y178435D03*
D10*
X883907Y178435D03*
D38*
X948995Y178435D03*
D26*
X935660Y178435D03*
D23*
X923925Y178435D03*
X911860Y178435D03*
D11*
X900417Y178435D03*
D12*
X888035Y178435D03*
D13*
X875665Y178435D03*
D12*
X863905Y178435D03*
D24*
X852170Y178435D03*
D25*
X839788Y178435D03*
D28*
X827723Y178435D03*
D35*
X815340Y178435D03*
D16*
X929005Y179070D03*
D10*
X883907Y179070D03*
D38*
X948995Y179070D03*
D26*
X935660Y179070D03*
D23*
X923925Y179070D03*
X911860Y179070D03*
D11*
X900417Y179070D03*
D12*
X888035Y179070D03*
D13*
X875665Y179070D03*
D12*
X863905Y179070D03*
D24*
X852170Y179070D03*
D25*
X839788Y179070D03*
D28*
X827723Y179070D03*
D35*
X815340Y179070D03*
D16*
X929005Y179705D03*
D10*
X883907Y179705D03*
D38*
X948995Y179705D03*
D26*
X935660Y179705D03*
D23*
X923925Y179705D03*
X911860Y179705D03*
D11*
X900417Y179705D03*
D12*
X888035Y179705D03*
D13*
X875665Y179705D03*
D12*
X863905Y179705D03*
D24*
X852170Y179705D03*
D25*
X839788Y179705D03*
D28*
X827723Y179705D03*
D35*
X815340Y179705D03*
D16*
X929005Y180340D03*
D10*
X883907Y180340D03*
D38*
X948995Y180340D03*
D26*
X935660Y180340D03*
D23*
X923925Y180340D03*
X911860Y180340D03*
D11*
X900417Y180340D03*
D12*
X888035Y180340D03*
D13*
X875665Y180340D03*
D12*
X863905Y180340D03*
D24*
X852170Y180340D03*
D25*
X839788Y180340D03*
D28*
X827723Y180340D03*
D35*
X815340Y180340D03*
D16*
X929005Y180975D03*
D10*
X883907Y180975D03*
D38*
X948995Y180975D03*
D26*
X935660Y180975D03*
D23*
X923925Y180975D03*
X911860Y180975D03*
D11*
X900417Y180975D03*
D12*
X888035Y180975D03*
D13*
X875665Y180975D03*
D12*
X863905Y180975D03*
D24*
X852170Y180975D03*
D25*
X839788Y180975D03*
D28*
X827723Y180975D03*
D35*
X815340Y180975D03*
D16*
X929005Y181610D03*
D10*
X883907Y181610D03*
D38*
X948995Y181610D03*
D26*
X935660Y181610D03*
D23*
X923925Y181610D03*
X911860Y181610D03*
D11*
X900417Y181610D03*
D12*
X888035Y181610D03*
D13*
X875665Y181610D03*
D12*
X863905Y181610D03*
D24*
X852170Y181610D03*
D25*
X839788Y181610D03*
D28*
X827723Y181610D03*
D35*
X815340Y181610D03*
D10*
X883907Y182245D03*
D40*
X948690Y182245D03*
D26*
X935660Y182245D03*
X924230Y182245D03*
D23*
X911860Y182245D03*
D11*
X900417Y182245D03*
D12*
X888035Y182245D03*
D13*
X875665Y182245D03*
D12*
X863905Y182245D03*
D24*
X852170Y182245D03*
D25*
X839788Y182245D03*
D28*
X827723Y182245D03*
D35*
X815340Y182245D03*
D16*
X942340Y182880D03*
D40*
X948690Y182880D03*
D26*
X935660Y182880D03*
X924230Y182880D03*
D23*
X911860Y182880D03*
D11*
X900417Y182880D03*
D22*
X887717Y182880D03*
D13*
X875665Y182880D03*
D12*
X863905Y182880D03*
D24*
X852170Y182880D03*
D25*
X839788Y182880D03*
D28*
X827723Y182880D03*
D35*
X815340Y182880D03*
D16*
X942340Y186690D03*
D10*
X879462Y186690D03*
D37*
X948360Y186690D03*
D26*
X935660Y186690D03*
X924230Y186690D03*
D23*
X911860Y186690D03*
D11*
X900417Y186690D03*
D22*
X887717Y186690D03*
D13*
X875665Y186690D03*
D12*
X863905Y186690D03*
D24*
X852170Y186690D03*
D25*
X839788Y186690D03*
D28*
X827723Y186690D03*
D35*
X815340Y186690D03*
D16*
X929005Y187325D03*
D10*
X883907Y187325D03*
D37*
X948360Y187325D03*
D26*
X935660Y187325D03*
D23*
X923925Y187325D03*
X911860Y187325D03*
D11*
X900417Y187325D03*
D12*
X888035Y187325D03*
D13*
X875665Y187325D03*
D12*
X863905Y187325D03*
D24*
X852170Y187325D03*
D25*
X839788Y187325D03*
D28*
X827723Y187325D03*
D35*
X815340Y187325D03*
D16*
X929005Y187960D03*
D10*
X883907Y187960D03*
D37*
X948360Y187960D03*
D26*
X935660Y187960D03*
D23*
X923925Y187960D03*
X911860Y187960D03*
D11*
X900417Y187960D03*
D12*
X888035Y187960D03*
D13*
X875665Y187960D03*
D12*
X863905Y187960D03*
D24*
X852170Y187960D03*
D25*
X839788Y187960D03*
D28*
X827723Y187960D03*
D35*
X815340Y187960D03*
D10*
X953757Y188595D03*
D16*
X929005Y188595D03*
D10*
X883907Y188595D03*
D36*
X948042Y188595D03*
D26*
X935660Y188595D03*
D23*
X923925Y188595D03*
X911860Y188595D03*
D11*
X900417Y188595D03*
D12*
X888035Y188595D03*
D13*
X875665Y188595D03*
D12*
X863905Y188595D03*
D24*
X852170Y188595D03*
D25*
X839788Y188595D03*
D28*
X827723Y188595D03*
D35*
X815340Y188595D03*
D16*
X929005Y189230D03*
D10*
X883907Y189230D03*
D36*
X948042Y189230D03*
D26*
X935660Y189230D03*
D23*
X923925Y189230D03*
X911860Y189230D03*
D11*
X900417Y189230D03*
D12*
X888035Y189230D03*
D13*
X875665Y189230D03*
D12*
X863905Y189230D03*
D24*
X852170Y189230D03*
D25*
X839788Y189230D03*
D28*
X827723Y189230D03*
D35*
X815340Y189230D03*
D16*
X929005Y189865D03*
D10*
X883907Y189865D03*
D36*
X948042Y189865D03*
D26*
X935660Y189865D03*
D23*
X923925Y189865D03*
X911860Y189865D03*
D11*
X900417Y189865D03*
D12*
X888035Y189865D03*
D13*
X875665Y189865D03*
D12*
X863905Y189865D03*
D24*
X852170Y189865D03*
D25*
X839788Y189865D03*
D28*
X827723Y189865D03*
D35*
X815340Y189865D03*
D16*
X929005Y190500D03*
D10*
X883907Y190500D03*
D36*
X948042Y190500D03*
D26*
X935660Y190500D03*
D23*
X923925Y190500D03*
X911860Y190500D03*
D11*
X900417Y190500D03*
D12*
X888035Y190500D03*
D13*
X875665Y190500D03*
D12*
X863905Y190500D03*
D24*
X852170Y190500D03*
D25*
X839788Y190500D03*
D28*
X827723Y190500D03*
D35*
X815340Y190500D03*
D16*
X929005Y191135D03*
D10*
X883907Y191135D03*
D36*
X948042Y191135D03*
D26*
X935660Y191135D03*
D23*
X923925Y191135D03*
X911860Y191135D03*
D11*
X900417Y191135D03*
D12*
X888035Y191135D03*
D13*
X875665Y191135D03*
D12*
X863905Y191135D03*
D24*
X852170Y191135D03*
D25*
X839788Y191135D03*
D28*
X827723Y191135D03*
D35*
X815340Y191135D03*
D16*
X929005Y191770D03*
D10*
X883907Y191770D03*
D36*
X948042Y191770D03*
D26*
X935660Y191770D03*
D23*
X923925Y191770D03*
X911860Y191770D03*
D11*
X900417Y191770D03*
D12*
X888035Y191770D03*
D13*
X875665Y191770D03*
D12*
X863905Y191770D03*
D24*
X852170Y191770D03*
D25*
X839788Y191770D03*
D28*
X827723Y191770D03*
D35*
X815340Y191770D03*
D16*
X929005Y192405D03*
D10*
X883907Y192405D03*
D34*
X947738Y192405D03*
D26*
X935660Y192405D03*
D23*
X923925Y192405D03*
X911860Y192405D03*
D11*
X900417Y192405D03*
D12*
X888035Y192405D03*
D13*
X875665Y192405D03*
D12*
X863905Y192405D03*
D24*
X852170Y192405D03*
D25*
X839788Y192405D03*
D28*
X827723Y192405D03*
D35*
X815340Y192405D03*
D16*
X929005Y193040D03*
D10*
X883907Y193040D03*
D34*
X947738Y193040D03*
D26*
X935660Y193040D03*
D23*
X923925Y193040D03*
X911860Y193040D03*
D11*
X900417Y193040D03*
D12*
X888035Y193040D03*
D13*
X875665Y193040D03*
D12*
X863905Y193040D03*
D24*
X852170Y193040D03*
D25*
X839788Y193040D03*
D28*
X827723Y193040D03*
D35*
X815340Y193040D03*
D16*
X929005Y193675D03*
D10*
X883907Y193675D03*
D34*
X947738Y193675D03*
D26*
X935660Y193675D03*
D23*
X923925Y193675D03*
X911860Y193675D03*
D11*
X900417Y193675D03*
D12*
X888035Y193675D03*
D13*
X875665Y193675D03*
D12*
X863905Y193675D03*
D24*
X852170Y193675D03*
D25*
X839788Y193675D03*
D28*
X827723Y193675D03*
D35*
X815340Y193675D03*
D16*
X929005Y194310D03*
D10*
X883907Y194310D03*
D11*
X947407Y194310D03*
D26*
X935660Y194310D03*
D23*
X923925Y194310D03*
X911860Y194310D03*
D11*
X900417Y194310D03*
D12*
X888035Y194310D03*
D13*
X875665Y194310D03*
D12*
X863905Y194310D03*
D24*
X852170Y194310D03*
D25*
X839788Y194310D03*
D28*
X827723Y194310D03*
D35*
X815340Y194310D03*
D16*
X929005Y194945D03*
D10*
X883907Y194945D03*
D11*
X947407Y194945D03*
D26*
X935660Y194945D03*
D23*
X923925Y194945D03*
X911860Y194945D03*
D11*
X900417Y194945D03*
D12*
X888035Y194945D03*
D13*
X875665Y194945D03*
D12*
X863905Y194945D03*
D24*
X852170Y194945D03*
D25*
X839788Y194945D03*
D28*
X827723Y194945D03*
D35*
X815340Y194945D03*
D16*
X929005Y195580D03*
D10*
X883907Y195580D03*
D11*
X947407Y195580D03*
D26*
X935660Y195580D03*
D23*
X923925Y195580D03*
X911860Y195580D03*
D11*
X900417Y195580D03*
D12*
X888035Y195580D03*
D13*
X875665Y195580D03*
D12*
X863905Y195580D03*
D24*
X852170Y195580D03*
D25*
X839788Y195580D03*
D28*
X827723Y195580D03*
D35*
X815340Y195580D03*
D41*
X947090Y196215D03*
D26*
X935660Y196215D03*
X924230Y196215D03*
D23*
X911860Y196215D03*
D11*
X900417Y196215D03*
D22*
X887717Y196215D03*
D13*
X875665Y196215D03*
D12*
X863905Y196215D03*
D24*
X852170Y196215D03*
D25*
X839788Y196215D03*
D28*
X827723Y196215D03*
D35*
X815340Y196215D03*
D16*
X942340Y199390D03*
D10*
X879462Y199390D03*
D33*
X946785Y199390D03*
D26*
X935660Y199390D03*
X924230Y199390D03*
D23*
X911860Y199390D03*
D11*
X900417Y199390D03*
D22*
X887717Y199390D03*
D13*
X875665Y199390D03*
D12*
X863905Y199390D03*
D24*
X852170Y199390D03*
D25*
X839788Y199390D03*
D28*
X827723Y199390D03*
D35*
X815340Y199390D03*
D16*
X929005Y200025D03*
D10*
X883907Y200025D03*
D16*
X814070Y200025D03*
D33*
X946785Y200025D03*
D26*
X935660Y200025D03*
D23*
X923925Y200025D03*
X911860Y200025D03*
D11*
X900417Y200025D03*
D12*
X888035Y200025D03*
D13*
X875665Y200025D03*
D12*
X863905Y200025D03*
D24*
X852170Y200025D03*
D25*
X839788Y200025D03*
D28*
X827723Y200025D03*
D32*
X815645Y200025D03*
D16*
X929005Y200660D03*
D10*
X883907Y200660D03*
D12*
X946455Y200660D03*
D26*
X935660Y200660D03*
D23*
X923925Y200660D03*
X911860Y200660D03*
D11*
X900417Y200660D03*
D12*
X888035Y200660D03*
D13*
X875665Y200660D03*
D12*
X863905Y200660D03*
D24*
X852170Y200660D03*
D25*
X839788Y200660D03*
D28*
X827723Y200660D03*
D32*
X815645Y200660D03*
D16*
X929005Y201295D03*
D10*
X883907Y201295D03*
D12*
X946455Y201295D03*
D26*
X935660Y201295D03*
D23*
X923925Y201295D03*
X911860Y201295D03*
D11*
X900417Y201295D03*
D12*
X888035Y201295D03*
D13*
X875665Y201295D03*
D12*
X863905Y201295D03*
D24*
X852170Y201295D03*
D25*
X839788Y201295D03*
D28*
X827723Y201295D03*
D32*
X815645Y201295D03*
D16*
X929005Y201930D03*
D10*
X883907Y201930D03*
D21*
X946137Y201930D03*
D26*
X935660Y201930D03*
D23*
X923925Y201930D03*
X911860Y201930D03*
D11*
X900417Y201930D03*
D12*
X888035Y201930D03*
D13*
X875665Y201930D03*
D12*
X863905Y201930D03*
D24*
X852170Y201930D03*
D25*
X839788Y201930D03*
D28*
X827723Y201930D03*
D31*
X815975Y201930D03*
D16*
X929005Y202565D03*
D10*
X883907Y202565D03*
D21*
X946137Y202565D03*
D26*
X935660Y202565D03*
D23*
X923925Y202565D03*
X911860Y202565D03*
D11*
X900417Y202565D03*
D12*
X888035Y202565D03*
D13*
X875665Y202565D03*
D12*
X863905Y202565D03*
D24*
X852170Y202565D03*
D25*
X839788Y202565D03*
D28*
X827723Y202565D03*
D31*
X815975Y202565D03*
D16*
X929005Y203200D03*
D10*
X883907Y203200D03*
D30*
X945833Y203200D03*
D26*
X935660Y203200D03*
D23*
X923925Y203200D03*
X911860Y203200D03*
D11*
X900417Y203200D03*
D12*
X888035Y203200D03*
D13*
X875665Y203200D03*
D12*
X863905Y203200D03*
D24*
X852170Y203200D03*
D25*
X839788Y203200D03*
D28*
X827723Y203200D03*
D18*
X816280Y203200D03*
D16*
X929005Y203835D03*
D10*
X883907Y203835D03*
D30*
X945833Y203835D03*
D26*
X935660Y203835D03*
D23*
X923925Y203835D03*
X911860Y203835D03*
D11*
X900417Y203835D03*
D12*
X888035Y203835D03*
D13*
X875665Y203835D03*
D12*
X863905Y203835D03*
D24*
X852170Y203835D03*
D25*
X839788Y203835D03*
D28*
X827723Y203835D03*
D18*
X816280Y203835D03*
D29*
X948690Y204470D03*
D16*
X929005Y204470D03*
D10*
X883907Y204470D03*
D29*
X815975Y204470D03*
D19*
X945502Y204470D03*
D26*
X935660Y204470D03*
D23*
X923925Y204470D03*
X911860Y204470D03*
D11*
X900417Y204470D03*
D12*
X888035Y204470D03*
D13*
X875665Y204470D03*
D12*
X863905Y204470D03*
D24*
X852170Y204470D03*
D25*
X839788Y204470D03*
D28*
X827723Y204470D03*
D16*
X816610Y204470D03*
X929005Y205105D03*
D10*
X883907Y205105D03*
D19*
X945502Y205105D03*
D26*
X935660Y205105D03*
D23*
X923925Y205105D03*
X911860Y205105D03*
D11*
X900417Y205105D03*
D12*
X888035Y205105D03*
D13*
X875665Y205105D03*
D12*
X863905Y205105D03*
D24*
X852170Y205105D03*
D25*
X839788Y205105D03*
D28*
X827723Y205105D03*
D16*
X816610Y205105D03*
X929005Y205740D03*
D10*
X883907Y205740D03*
D19*
X945502Y205740D03*
D26*
X935660Y205740D03*
D23*
X923925Y205740D03*
X911860Y205740D03*
D11*
X900417Y205740D03*
D12*
X888035Y205740D03*
D13*
X875665Y205740D03*
D12*
X863905Y205740D03*
D24*
X852170Y205740D03*
D25*
X839788Y205740D03*
D28*
X827723Y205740D03*
D16*
X816610Y205740D03*
X929005Y206375D03*
D10*
X883907Y206375D03*
D42*
X945185Y206375D03*
D26*
X935660Y206375D03*
D23*
X923925Y206375D03*
X911860Y206375D03*
D11*
X900417Y206375D03*
D12*
X888035Y206375D03*
D13*
X875665Y206375D03*
D12*
X863905Y206375D03*
D24*
X852170Y206375D03*
D25*
X839788Y206375D03*
D28*
X827723Y206375D03*
D16*
X816610Y206375D03*
X929005Y207010D03*
D10*
X883907Y207010D03*
D42*
X945185Y207010D03*
D26*
X935660Y207010D03*
D23*
X923925Y207010D03*
X911860Y207010D03*
D11*
X900417Y207010D03*
D12*
X888035Y207010D03*
D13*
X875665Y207010D03*
D12*
X863905Y207010D03*
D24*
X852170Y207010D03*
D25*
X839788Y207010D03*
D28*
X827723Y207010D03*
D16*
X929005Y207645D03*
D10*
X883907Y207645D03*
D43*
X944867Y207645D03*
D26*
X935660Y207645D03*
D23*
X923925Y207645D03*
X911860Y207645D03*
D11*
X900417Y207645D03*
D12*
X888035Y207645D03*
D13*
X875665Y207645D03*
D12*
X863905Y207645D03*
D24*
X852170Y207645D03*
D25*
X839788Y207645D03*
D28*
X827723Y207645D03*
D16*
X929005Y208280D03*
D10*
X883907Y208280D03*
D43*
X944867Y208280D03*
D26*
X935660Y208280D03*
D23*
X923925Y208280D03*
X911860Y208280D03*
D11*
X900417Y208280D03*
D12*
X888035Y208280D03*
D13*
X875665Y208280D03*
D12*
X863905Y208280D03*
D24*
X852170Y208280D03*
D25*
X839788Y208280D03*
D28*
X827723Y208280D03*
D16*
X929005Y208915D03*
D10*
X883907Y208915D03*
D17*
X944563Y208915D03*
D26*
X935660Y208915D03*
D23*
X923925Y208915D03*
X911860Y208915D03*
D11*
X900417Y208915D03*
D12*
X888035Y208915D03*
D13*
X875665Y208915D03*
D12*
X863905Y208915D03*
D24*
X852170Y208915D03*
D25*
X839788Y208915D03*
D28*
X827723Y208915D03*
D17*
X944563Y209550D03*
D26*
X935660Y209550D03*
X924230Y209550D03*
D23*
X911860Y209550D03*
D11*
X900417Y209550D03*
D22*
X887717Y209550D03*
D13*
X875665Y209550D03*
D12*
X863905Y209550D03*
D24*
X852170Y209550D03*
D25*
X839788Y209550D03*
D28*
X827723Y209550D03*
D32*
X943915Y212090D03*
D26*
X935660Y212090D03*
X924230Y212090D03*
D23*
X911860Y212090D03*
D11*
X900417Y212090D03*
D22*
X887717Y212090D03*
D13*
X875665Y212090D03*
D12*
X863905Y212090D03*
D24*
X852170Y212090D03*
D25*
X839788Y212090D03*
D28*
X827723Y212090D03*
D16*
X929005Y212725D03*
D10*
X883907Y212725D03*
D44*
X943597Y212725D03*
D26*
X935660Y212725D03*
D23*
X923925Y212725D03*
X911860Y212725D03*
D11*
X900417Y212725D03*
D12*
X888035Y212725D03*
D13*
X875665Y212725D03*
D12*
X863905Y212725D03*
D24*
X852170Y212725D03*
D25*
X839788Y212725D03*
D28*
X827723Y212725D03*
D16*
X929005Y213360D03*
D10*
X883907Y213360D03*
D14*
X943293Y213360D03*
D26*
X935660Y213360D03*
D23*
X923925Y213360D03*
X911860Y213360D03*
D11*
X900417Y213360D03*
D12*
X888035Y213360D03*
D13*
X875665Y213360D03*
D12*
X863905Y213360D03*
D24*
X852170Y213360D03*
D25*
X839788Y213360D03*
D28*
X827723Y213360D03*
D16*
X929005Y213995D03*
D10*
X883907Y213995D03*
D14*
X943293Y213995D03*
D26*
X935660Y213995D03*
D23*
X923925Y213995D03*
X911860Y213995D03*
D11*
X900417Y213995D03*
D12*
X888035Y213995D03*
D13*
X875665Y213995D03*
D12*
X863905Y213995D03*
D24*
X852170Y213995D03*
D25*
X839788Y213995D03*
D28*
X827723Y213995D03*
D16*
X929005Y214630D03*
D10*
X883907Y214630D03*
X942962Y214630D03*
D26*
X935660Y214630D03*
D23*
X923925Y214630D03*
X911860Y214630D03*
D11*
X900417Y214630D03*
D12*
X888035Y214630D03*
D13*
X875665Y214630D03*
D12*
X863905Y214630D03*
D24*
X852170Y214630D03*
D25*
X839788Y214630D03*
D28*
X827723Y214630D03*
D16*
X929005Y215265D03*
D10*
X883907Y215265D03*
X942962Y215265D03*
D26*
X935660Y215265D03*
D23*
X923925Y215265D03*
X911860Y215265D03*
D11*
X900417Y215265D03*
D12*
X888035Y215265D03*
D13*
X875665Y215265D03*
D12*
X863905Y215265D03*
D24*
X852170Y215265D03*
D25*
X839788Y215265D03*
D28*
X827723Y215265D03*
D16*
X942340Y215900D03*
X929005Y215900D03*
D10*
X883907Y215900D03*
D26*
X935660Y215900D03*
D23*
X923925Y215900D03*
X911860Y215900D03*
D11*
X900417Y215900D03*
D12*
X888035Y215900D03*
D13*
X875665Y215900D03*
D12*
X863905Y215900D03*
D24*
X852170Y215900D03*
D25*
X839788Y215900D03*
D28*
X827723Y215900D03*
D16*
X929005Y216535D03*
D10*
X883907Y216535D03*
D26*
X935660Y216535D03*
D23*
X923925Y216535D03*
X911860Y216535D03*
D11*
X900417Y216535D03*
D12*
X888035Y216535D03*
D13*
X875665Y216535D03*
D12*
X863905Y216535D03*
D24*
X852170Y216535D03*
D25*
X839788Y216535D03*
D28*
X827723Y216535D03*
D16*
X929005Y217170D03*
D10*
X883907Y217170D03*
D26*
X935660Y217170D03*
D23*
X923925Y217170D03*
X911860Y217170D03*
D11*
X900417Y217170D03*
D12*
X888035Y217170D03*
D13*
X875665Y217170D03*
D12*
X863905Y217170D03*
D24*
X852170Y217170D03*
D25*
X839788Y217170D03*
D28*
X827723Y217170D03*
D16*
X929005Y217805D03*
D10*
X883907Y217805D03*
D26*
X935660Y217805D03*
D23*
X923925Y217805D03*
X911860Y217805D03*
D11*
X900417Y217805D03*
D12*
X888035Y217805D03*
D13*
X875665Y217805D03*
D12*
X863905Y217805D03*
D24*
X852170Y217805D03*
D25*
X839788Y217805D03*
D28*
X827723Y217805D03*
D16*
X929005Y218440D03*
D10*
X883907Y218440D03*
D26*
X935660Y218440D03*
D23*
X923925Y218440D03*
X911860Y218440D03*
D11*
X900417Y218440D03*
D12*
X888035Y218440D03*
D13*
X875665Y218440D03*
D12*
X863905Y218440D03*
D24*
X852170Y218440D03*
D25*
X839788Y218440D03*
D28*
X827723Y218440D03*
D16*
X929005Y219075D03*
D10*
X883907Y219075D03*
D26*
X935660Y219075D03*
D23*
X923925Y219075D03*
X911860Y219075D03*
D11*
X900417Y219075D03*
D12*
X888035Y219075D03*
D13*
X875665Y219075D03*
D12*
X863905Y219075D03*
D24*
X852170Y219075D03*
D25*
X839788Y219075D03*
D28*
X827723Y219075D03*
D16*
X929005Y219710D03*
D10*
X883907Y219710D03*
D23*
X935355Y219710D03*
X923925Y219710D03*
X911860Y219710D03*
D11*
X900417Y219710D03*
D12*
X888035Y219710D03*
D13*
X875665Y219710D03*
D12*
X863905Y219710D03*
D24*
X852170Y219710D03*
D25*
X839788Y219710D03*
D28*
X827723Y219710D03*
D16*
X929005Y220345D03*
D10*
X883907Y220345D03*
D41*
X935025Y220345D03*
D23*
X923925Y220345D03*
X911860Y220345D03*
D11*
X900417Y220345D03*
D12*
X888035Y220345D03*
D13*
X875665Y220345D03*
D12*
X863905Y220345D03*
D24*
X852170Y220345D03*
D25*
X839788Y220345D03*
D28*
X827723Y220345D03*
D16*
X929005Y220980D03*
D10*
X883907Y220980D03*
D22*
X934707Y220980D03*
D23*
X923925Y220980D03*
X911860Y220980D03*
D11*
X900417Y220980D03*
D12*
X888035Y220980D03*
D13*
X875665Y220980D03*
D12*
X863905Y220980D03*
D24*
X852170Y220980D03*
D25*
X839788Y220980D03*
D28*
X827723Y220980D03*
D16*
X929005Y221615D03*
D10*
X883907Y221615D03*
D16*
X826135Y221615D03*
D12*
X934390Y221615D03*
D23*
X923925Y221615D03*
X911860Y221615D03*
D11*
X900417Y221615D03*
D12*
X888035Y221615D03*
D13*
X875665Y221615D03*
D12*
X863905Y221615D03*
D24*
X852170Y221615D03*
D25*
X839788Y221615D03*
D45*
X828027Y221615D03*
D16*
X929005Y222250D03*
D10*
X883907Y222250D03*
D12*
X934390Y222250D03*
D23*
X923925Y222250D03*
X911860Y222250D03*
D11*
X900417Y222250D03*
D12*
X888035Y222250D03*
D13*
X875665Y222250D03*
D12*
X863905Y222250D03*
D24*
X852170Y222250D03*
D25*
X839788Y222250D03*
D45*
X828027Y222250D03*
D16*
X929005Y222885D03*
D10*
X883907Y222885D03*
D21*
X934072Y222885D03*
D23*
X923925Y222885D03*
X911860Y222885D03*
D11*
X900417Y222885D03*
D12*
X888035Y222885D03*
D13*
X875665Y222885D03*
D12*
X863905Y222885D03*
D24*
X852170Y222885D03*
D25*
X839788Y222885D03*
D46*
X828358Y222885D03*
D30*
X933768Y223520D03*
D26*
X924230Y223520D03*
D23*
X911860Y223520D03*
D11*
X900417Y223520D03*
D22*
X887717Y223520D03*
D13*
X875665Y223520D03*
D12*
X863905Y223520D03*
D24*
X852170Y223520D03*
D25*
X839788Y223520D03*
D44*
X828662Y223520D03*
D10*
X829932Y226060D03*
D43*
X932802Y226060D03*
D26*
X924230Y226060D03*
D23*
X911860Y226060D03*
D11*
X900417Y226060D03*
D22*
X887717Y226060D03*
D13*
X875665Y226060D03*
D12*
X863905Y226060D03*
D24*
X852170Y226060D03*
D25*
X839788Y226060D03*
D16*
X929005Y226695D03*
D10*
X883907Y226695D03*
D47*
X932485Y226695D03*
D23*
X923925Y226695D03*
X911860Y226695D03*
D11*
X900417Y226695D03*
D12*
X888035Y226695D03*
D13*
X875665Y226695D03*
D12*
X863905Y226695D03*
D24*
X852170Y226695D03*
D25*
X839788Y226695D03*
D16*
X929005Y227330D03*
D10*
X883907Y227330D03*
D45*
X932167Y227330D03*
D23*
X923925Y227330D03*
X911860Y227330D03*
D11*
X900417Y227330D03*
D12*
X888035Y227330D03*
D13*
X875665Y227330D03*
D12*
X863905Y227330D03*
D24*
X852170Y227330D03*
D25*
X839788Y227330D03*
D16*
X929005Y227965D03*
D10*
X883907Y227965D03*
D15*
X931863Y227965D03*
D23*
X923925Y227965D03*
X911860Y227965D03*
D11*
X900417Y227965D03*
D12*
X888035Y227965D03*
D13*
X875665Y227965D03*
D12*
X863905Y227965D03*
D24*
X852170Y227965D03*
D25*
X839788Y227965D03*
D16*
X929005Y228600D03*
D10*
X883907Y228600D03*
D27*
X931545Y228600D03*
D23*
X923925Y228600D03*
X911860Y228600D03*
D11*
X900417Y228600D03*
D12*
X888035Y228600D03*
D13*
X875665Y228600D03*
D12*
X863905Y228600D03*
D24*
X852170Y228600D03*
D25*
X839788Y228600D03*
D16*
X929005Y229235D03*
D10*
X883907Y229235D03*
D18*
X931215Y229235D03*
D23*
X923925Y229235D03*
X911860Y229235D03*
D11*
X900417Y229235D03*
D12*
X888035Y229235D03*
D13*
X875665Y229235D03*
D12*
X863905Y229235D03*
D24*
X852170Y229235D03*
D25*
X839788Y229235D03*
D16*
X929005Y229870D03*
D10*
X883907Y229870D03*
X930897Y229870D03*
D23*
X923925Y229870D03*
X911860Y229870D03*
D11*
X900417Y229870D03*
D12*
X888035Y229870D03*
D13*
X875665Y229870D03*
D12*
X863905Y229870D03*
D24*
X852170Y229870D03*
D25*
X839788Y229870D03*
D16*
X929005Y230505D03*
D10*
X883907Y230505D03*
D23*
X923925Y230505D03*
X911860Y230505D03*
D11*
X900417Y230505D03*
D12*
X888035Y230505D03*
D13*
X875665Y230505D03*
D12*
X863905Y230505D03*
D24*
X852170Y230505D03*
D25*
X839788Y230505D03*
D10*
X883907Y231140D03*
D26*
X924230Y231140D03*
D23*
X911860Y231140D03*
D11*
X900417Y231140D03*
D12*
X888035Y231140D03*
D13*
X875665Y231140D03*
D12*
X863905Y231140D03*
D24*
X852170Y231140D03*
D25*
X839788Y231140D03*
D10*
X883907Y231775D03*
D23*
X923925Y231775D03*
X911860Y231775D03*
D11*
X900417Y231775D03*
D12*
X888035Y231775D03*
D13*
X875665Y231775D03*
D12*
X863905Y231775D03*
D24*
X852170Y231775D03*
D25*
X839788Y231775D03*
D10*
X883907Y232410D03*
D48*
X923608Y232410D03*
D23*
X911860Y232410D03*
D11*
X900417Y232410D03*
D12*
X888035Y232410D03*
D13*
X875665Y232410D03*
D12*
X863905Y232410D03*
D24*
X852170Y232410D03*
D25*
X839788Y232410D03*
D10*
X883907Y233045D03*
D22*
X923277Y233045D03*
D23*
X911860Y233045D03*
D11*
X900417Y233045D03*
D12*
X888035Y233045D03*
D13*
X875665Y233045D03*
D12*
X863905Y233045D03*
D24*
X852170Y233045D03*
D25*
X839788Y233045D03*
D10*
X883907Y233680D03*
D12*
X922960Y233680D03*
D23*
X911860Y233680D03*
D11*
X900417Y233680D03*
D12*
X888035Y233680D03*
D13*
X875665Y233680D03*
D12*
X863905Y233680D03*
D24*
X852170Y233680D03*
D49*
X840105Y233680D03*
D10*
X925817Y234315D03*
X883907Y234315D03*
D50*
X922325Y234315D03*
D23*
X911860Y234315D03*
D11*
X900417Y234315D03*
D12*
X888035Y234315D03*
D13*
X875665Y234315D03*
D12*
X863905Y234315D03*
D24*
X852170Y234315D03*
D28*
X840423Y234315D03*
D10*
X883907Y234950D03*
D24*
X922020Y234950D03*
D23*
X911860Y234950D03*
D11*
X900417Y234950D03*
D12*
X888035Y234950D03*
D13*
X875665Y234950D03*
D12*
X863905Y234950D03*
D24*
X852170Y234950D03*
D46*
X841058Y234950D03*
D10*
X883907Y235585D03*
D51*
X921703Y235585D03*
D23*
X911860Y235585D03*
D11*
X900417Y235585D03*
D12*
X888035Y235585D03*
D13*
X875665Y235585D03*
D12*
X863905Y235585D03*
D24*
X852170Y235585D03*
D31*
X841375Y235585D03*
D10*
X923277Y236220D03*
X883907Y236220D03*
X841388Y236220D03*
D47*
X921055Y236220D03*
D23*
X911860Y236220D03*
D11*
X900417Y236220D03*
D12*
X888035Y236220D03*
D13*
X875665Y236220D03*
D12*
X863905Y236220D03*
D24*
X852170Y236220D03*
D16*
X842010Y236220D03*
D10*
X922642Y236855D03*
X879462Y236855D03*
D45*
X920737Y236855D03*
D23*
X911860Y236855D03*
D11*
X900417Y236855D03*
D22*
X887717Y236855D03*
D13*
X875665Y236855D03*
D12*
X863905Y236855D03*
D24*
X852170Y236855D03*
D16*
X842010Y236855D03*
D10*
X883907Y238760D03*
X919467Y238760D03*
D23*
X911860Y238760D03*
D11*
X900417Y238760D03*
D12*
X888035Y238760D03*
D13*
X875665Y238760D03*
D12*
X863905Y238760D03*
D24*
X852170Y238760D03*
D10*
X883907Y239395D03*
D23*
X911860Y239395D03*
D11*
X900417Y239395D03*
D12*
X888035Y239395D03*
D13*
X875665Y239395D03*
D12*
X863905Y239395D03*
D24*
X852170Y239395D03*
D10*
X883907Y240030D03*
D23*
X911860Y240030D03*
D11*
X900417Y240030D03*
D12*
X888035Y240030D03*
D13*
X875665Y240030D03*
D12*
X863905Y240030D03*
D24*
X852170Y240030D03*
D10*
X883907Y240665D03*
D41*
X911530Y240665D03*
D11*
X900417Y240665D03*
D12*
X888035Y240665D03*
D13*
X875665Y240665D03*
D12*
X863905Y240665D03*
D24*
X852170Y240665D03*
D10*
X883907Y241300D03*
D22*
X911212Y241300D03*
D11*
X900417Y241300D03*
D12*
X888035Y241300D03*
D13*
X875665Y241300D03*
D12*
X863905Y241300D03*
D24*
X852170Y241300D03*
D10*
X883907Y241935D03*
D21*
X910577Y241935D03*
D11*
X900417Y241935D03*
D12*
X888035Y241935D03*
D13*
X875665Y241935D03*
D12*
X863905Y241935D03*
D52*
X852805Y241935D03*
D10*
X912482Y242570D03*
X883907Y242570D03*
X852157Y242570D03*
D42*
X909625Y242570D03*
D11*
X900417Y242570D03*
D12*
X888035Y242570D03*
D13*
X875665Y242570D03*
D12*
X863905Y242570D03*
D15*
X853758Y242570D03*
D16*
X911225Y243205D03*
D10*
X883907Y243205D03*
D17*
X909003Y243205D03*
D11*
X900417Y243205D03*
D12*
X888035Y243205D03*
D13*
X875665Y243205D03*
D12*
X863905Y243205D03*
D44*
X854088Y243205D03*
D10*
X909968Y243840D03*
X883907Y243840D03*
D15*
X908368Y243840D03*
D11*
X900417Y243840D03*
D12*
X888035Y243840D03*
D13*
X875665Y243840D03*
D12*
X863905Y243840D03*
D10*
X854723Y243840D03*
X908698Y244475D03*
X883907Y244475D03*
D14*
X907733Y244475D03*
D11*
X900417Y244475D03*
D12*
X888035Y244475D03*
D13*
X875665Y244475D03*
D12*
X863905Y244475D03*
D10*
X883907Y245110D03*
D11*
X900417Y245110D03*
D12*
X888035Y245110D03*
D13*
X875665Y245110D03*
D12*
X863905Y245110D03*
D10*
X904862Y245745D03*
X883907Y245745D03*
D41*
X900100Y245745D03*
D12*
X888035Y245745D03*
D13*
X875665Y245745D03*
D12*
X863905Y245745D03*
D10*
X883907Y246380D03*
D12*
X899465Y246380D03*
X888035Y246380D03*
D13*
X875665Y246380D03*
D50*
X864540Y246380D03*
D10*
X883907Y247015D03*
D24*
X898525Y247015D03*
D12*
X888035Y247015D03*
D13*
X875665Y247015D03*
D43*
X865492Y247015D03*
D18*
X898195Y247650D03*
D10*
X883907Y247650D03*
D18*
X865810Y247650D03*
D44*
X896607Y247650D03*
D12*
X888035Y247650D03*
D13*
X875665Y247650D03*
D18*
X867080Y247650D03*
D10*
X883907Y248285D03*
D12*
X888035Y248285D03*
D13*
X875665Y248285D03*
D10*
X883907Y248920D03*
X872503Y248920D03*
D12*
X888035Y248920D03*
D53*
X875983Y248920D03*
D10*
X883907Y249555D03*
D29*
X884555Y249555D03*
D54*
X796246Y211242D02*
X796246Y199558D01*
X799492Y211242D02*
X793001Y211242D01*
X786990Y199558D02*
X783744Y199558D01*
X786990Y199558D02*
X787077Y199560D01*
X787165Y199566D01*
X787251Y199576D01*
X787338Y199589D01*
X787423Y199607D01*
X787508Y199628D01*
X787592Y199653D01*
X787674Y199682D01*
X787755Y199715D01*
X787835Y199751D01*
X787913Y199790D01*
X787989Y199834D01*
X788063Y199880D01*
X788134Y199930D01*
X788204Y199983D01*
X788271Y200039D01*
X788335Y200098D01*
X788397Y200160D01*
X788456Y200224D01*
X788512Y200291D01*
X788565Y200361D01*
X788615Y200432D01*
X788661Y200506D01*
X788705Y200582D01*
X788744Y200660D01*
X788780Y200740D01*
X788813Y200821D01*
X788842Y200903D01*
X788867Y200987D01*
X788888Y201072D01*
X788906Y201157D01*
X788919Y201244D01*
X788929Y201330D01*
X788935Y201418D01*
X788937Y201505D01*
X788937Y204751D01*
X788936Y204751D02*
X788934Y204852D01*
X788928Y204952D01*
X788918Y205052D01*
X788905Y205152D01*
X788887Y205251D01*
X788866Y205350D01*
X788841Y205447D01*
X788812Y205544D01*
X788779Y205639D01*
X788743Y205733D01*
X788703Y205825D01*
X788660Y205916D01*
X788613Y206005D01*
X788563Y206092D01*
X788509Y206178D01*
X788452Y206261D01*
X788392Y206341D01*
X788329Y206420D01*
X788262Y206496D01*
X788193Y206569D01*
X788121Y206639D01*
X788047Y206707D01*
X787970Y206772D01*
X787890Y206833D01*
X787808Y206892D01*
X787724Y206947D01*
X787638Y206999D01*
X787550Y207048D01*
X787460Y207093D01*
X787368Y207135D01*
X787275Y207173D01*
X787180Y207207D01*
X787085Y207238D01*
X786988Y207265D01*
X786890Y207288D01*
X786791Y207308D01*
X786691Y207323D01*
X786591Y207335D01*
X786491Y207343D01*
X786390Y207347D01*
X786290Y207347D01*
X786189Y207343D01*
X786089Y207335D01*
X785989Y207323D01*
X785889Y207308D01*
X785790Y207288D01*
X785692Y207265D01*
X785595Y207238D01*
X785500Y207207D01*
X785405Y207173D01*
X785312Y207135D01*
X785220Y207093D01*
X785130Y207048D01*
X785042Y206999D01*
X784956Y206947D01*
X784872Y206892D01*
X784790Y206833D01*
X784710Y206772D01*
X784633Y206707D01*
X784559Y206639D01*
X784487Y206569D01*
X784418Y206496D01*
X784351Y206420D01*
X784288Y206341D01*
X784228Y206261D01*
X784171Y206178D01*
X784117Y206092D01*
X784067Y206005D01*
X784020Y205916D01*
X783977Y205825D01*
X783937Y205733D01*
X783901Y205639D01*
X783868Y205544D01*
X783839Y205447D01*
X783814Y205350D01*
X783793Y205251D01*
X783775Y205152D01*
X783762Y205052D01*
X783752Y204952D01*
X783746Y204852D01*
X783744Y204751D01*
X783744Y203453D01*
X788937Y203453D01*
X778881Y201505D02*
X778881Y211242D01*
X778881Y201505D02*
X778879Y201418D01*
X778873Y201330D01*
X778863Y201244D01*
X778850Y201157D01*
X778832Y201072D01*
X778811Y200987D01*
X778786Y200903D01*
X778757Y200821D01*
X778724Y200740D01*
X778688Y200660D01*
X778649Y200582D01*
X778605Y200506D01*
X778559Y200432D01*
X778509Y200361D01*
X778456Y200291D01*
X778400Y200224D01*
X778341Y200160D01*
X778279Y200098D01*
X778215Y200039D01*
X778148Y199983D01*
X778078Y199930D01*
X778007Y199880D01*
X777933Y199834D01*
X777857Y199790D01*
X777779Y199751D01*
X777699Y199715D01*
X777618Y199682D01*
X777536Y199653D01*
X777452Y199628D01*
X777367Y199607D01*
X777282Y199589D01*
X777195Y199576D01*
X777109Y199566D01*
X777021Y199560D01*
X776934Y199558D01*
X770988Y199558D02*
X767742Y199558D01*
X770988Y199558D02*
X771075Y199560D01*
X771163Y199566D01*
X771249Y199576D01*
X771336Y199589D01*
X771421Y199607D01*
X771506Y199628D01*
X771590Y199653D01*
X771672Y199682D01*
X771753Y199715D01*
X771833Y199751D01*
X771911Y199790D01*
X771987Y199834D01*
X772061Y199880D01*
X772132Y199930D01*
X772202Y199983D01*
X772269Y200039D01*
X772333Y200098D01*
X772395Y200160D01*
X772454Y200224D01*
X772510Y200291D01*
X772563Y200361D01*
X772613Y200432D01*
X772659Y200506D01*
X772703Y200582D01*
X772742Y200660D01*
X772778Y200740D01*
X772811Y200821D01*
X772840Y200903D01*
X772865Y200987D01*
X772886Y201072D01*
X772904Y201157D01*
X772917Y201244D01*
X772927Y201330D01*
X772933Y201418D01*
X772935Y201505D01*
X772935Y204751D01*
X772933Y204852D01*
X772927Y204952D01*
X772917Y205052D01*
X772904Y205152D01*
X772886Y205251D01*
X772865Y205350D01*
X772840Y205447D01*
X772811Y205544D01*
X772778Y205639D01*
X772742Y205733D01*
X772702Y205825D01*
X772659Y205916D01*
X772612Y206005D01*
X772562Y206092D01*
X772508Y206178D01*
X772451Y206261D01*
X772391Y206341D01*
X772328Y206420D01*
X772261Y206496D01*
X772192Y206569D01*
X772120Y206639D01*
X772046Y206707D01*
X771969Y206772D01*
X771889Y206833D01*
X771807Y206892D01*
X771723Y206947D01*
X771637Y206999D01*
X771549Y207048D01*
X771459Y207093D01*
X771367Y207135D01*
X771274Y207173D01*
X771179Y207207D01*
X771084Y207238D01*
X770987Y207265D01*
X770889Y207288D01*
X770790Y207308D01*
X770690Y207323D01*
X770590Y207335D01*
X770490Y207343D01*
X770389Y207347D01*
X770289Y207347D01*
X770188Y207343D01*
X770088Y207335D01*
X769988Y207323D01*
X769888Y207308D01*
X769789Y207288D01*
X769691Y207265D01*
X769594Y207238D01*
X769499Y207207D01*
X769404Y207173D01*
X769311Y207135D01*
X769219Y207093D01*
X769129Y207048D01*
X769041Y206999D01*
X768955Y206947D01*
X768871Y206892D01*
X768789Y206833D01*
X768709Y206772D01*
X768632Y206707D01*
X768558Y206639D01*
X768486Y206569D01*
X768417Y206496D01*
X768350Y206420D01*
X768287Y206341D01*
X768227Y206261D01*
X768170Y206178D01*
X768116Y206092D01*
X768066Y206005D01*
X768019Y205916D01*
X767976Y205825D01*
X767936Y205733D01*
X767900Y205639D01*
X767867Y205544D01*
X767838Y205447D01*
X767813Y205350D01*
X767792Y205251D01*
X767774Y205152D01*
X767761Y205052D01*
X767751Y204952D01*
X767745Y204852D01*
X767743Y204751D01*
X767742Y204751D02*
X767742Y203453D01*
X772935Y203453D01*
X762422Y207347D02*
X762422Y199558D01*
X762422Y207347D02*
X756580Y207347D01*
X756493Y207345D01*
X756405Y207339D01*
X756319Y207329D01*
X756232Y207316D01*
X756147Y207298D01*
X756062Y207277D01*
X755978Y207252D01*
X755896Y207223D01*
X755815Y207190D01*
X755735Y207154D01*
X755657Y207115D01*
X755581Y207071D01*
X755507Y207025D01*
X755436Y206975D01*
X755366Y206922D01*
X755299Y206866D01*
X755235Y206807D01*
X755173Y206745D01*
X755114Y206681D01*
X755058Y206614D01*
X755005Y206544D01*
X754955Y206473D01*
X754909Y206399D01*
X754865Y206323D01*
X754826Y206245D01*
X754790Y206165D01*
X754757Y206084D01*
X754728Y206002D01*
X754703Y205918D01*
X754682Y205833D01*
X754664Y205748D01*
X754651Y205661D01*
X754641Y205575D01*
X754635Y205487D01*
X754633Y205400D01*
X754633Y199558D01*
X758528Y199558D02*
X758528Y207347D01*
X747366Y199558D02*
X744120Y199558D01*
X747366Y199558D02*
X747453Y199560D01*
X747541Y199566D01*
X747627Y199576D01*
X747714Y199589D01*
X747799Y199607D01*
X747884Y199628D01*
X747968Y199653D01*
X748050Y199682D01*
X748131Y199715D01*
X748211Y199751D01*
X748289Y199790D01*
X748365Y199834D01*
X748439Y199880D01*
X748510Y199930D01*
X748580Y199983D01*
X748647Y200039D01*
X748711Y200098D01*
X748773Y200160D01*
X748832Y200224D01*
X748888Y200291D01*
X748941Y200361D01*
X748991Y200432D01*
X749037Y200506D01*
X749081Y200582D01*
X749120Y200660D01*
X749156Y200740D01*
X749189Y200821D01*
X749218Y200903D01*
X749243Y200987D01*
X749264Y201072D01*
X749282Y201157D01*
X749295Y201244D01*
X749305Y201330D01*
X749311Y201418D01*
X749313Y201505D01*
X749313Y204751D01*
X749311Y204852D01*
X749305Y204952D01*
X749295Y205052D01*
X749282Y205152D01*
X749264Y205251D01*
X749243Y205350D01*
X749218Y205447D01*
X749189Y205544D01*
X749156Y205639D01*
X749120Y205733D01*
X749080Y205825D01*
X749037Y205916D01*
X748990Y206005D01*
X748940Y206092D01*
X748886Y206178D01*
X748829Y206261D01*
X748769Y206341D01*
X748706Y206420D01*
X748639Y206496D01*
X748570Y206569D01*
X748498Y206639D01*
X748424Y206707D01*
X748347Y206772D01*
X748267Y206833D01*
X748185Y206892D01*
X748101Y206947D01*
X748015Y206999D01*
X747927Y207048D01*
X747837Y207093D01*
X747745Y207135D01*
X747652Y207173D01*
X747557Y207207D01*
X747462Y207238D01*
X747365Y207265D01*
X747267Y207288D01*
X747168Y207308D01*
X747068Y207323D01*
X746968Y207335D01*
X746868Y207343D01*
X746767Y207347D01*
X746667Y207347D01*
X746566Y207343D01*
X746466Y207335D01*
X746366Y207323D01*
X746266Y207308D01*
X746167Y207288D01*
X746069Y207265D01*
X745972Y207238D01*
X745877Y207207D01*
X745782Y207173D01*
X745689Y207135D01*
X745597Y207093D01*
X745507Y207048D01*
X745419Y206999D01*
X745333Y206947D01*
X745249Y206892D01*
X745167Y206833D01*
X745087Y206772D01*
X745010Y206707D01*
X744936Y206639D01*
X744864Y206569D01*
X744795Y206496D01*
X744728Y206420D01*
X744665Y206341D01*
X744605Y206261D01*
X744548Y206178D01*
X744494Y206092D01*
X744444Y206005D01*
X744397Y205916D01*
X744354Y205825D01*
X744314Y205733D01*
X744278Y205639D01*
X744245Y205544D01*
X744216Y205447D01*
X744191Y205350D01*
X744170Y205251D01*
X744152Y205152D01*
X744139Y205052D01*
X744129Y204952D01*
X744123Y204852D01*
X744121Y204751D01*
X744120Y204751D02*
X744120Y203453D01*
X749313Y203453D01*
X740374Y207347D02*
X736480Y207347D01*
X739076Y211242D02*
X739076Y201505D01*
X739074Y201418D01*
X739068Y201330D01*
X739058Y201244D01*
X739045Y201157D01*
X739027Y201072D01*
X739006Y200987D01*
X738981Y200903D01*
X738952Y200821D01*
X738919Y200740D01*
X738883Y200660D01*
X738844Y200582D01*
X738800Y200506D01*
X738754Y200432D01*
X738704Y200361D01*
X738651Y200291D01*
X738595Y200224D01*
X738536Y200160D01*
X738474Y200098D01*
X738410Y200039D01*
X738343Y199983D01*
X738273Y199930D01*
X738202Y199880D01*
X738128Y199834D01*
X738052Y199790D01*
X737974Y199751D01*
X737894Y199715D01*
X737813Y199682D01*
X737731Y199653D01*
X737647Y199628D01*
X737562Y199607D01*
X737477Y199589D01*
X737390Y199576D01*
X737304Y199566D01*
X737216Y199560D01*
X737129Y199558D01*
X736480Y199558D01*
X731721Y199558D02*
X731721Y207347D01*
X727826Y207347D01*
X727826Y206049D01*
X724238Y207347D02*
X724238Y199558D01*
X724562Y210593D02*
X724562Y211242D01*
X723913Y211242D01*
X723913Y210593D01*
X724562Y210593D01*
X717382Y204102D02*
X714461Y204102D01*
X717382Y204102D02*
X717476Y204100D01*
X717570Y204094D01*
X717663Y204085D01*
X717756Y204071D01*
X717848Y204054D01*
X717940Y204032D01*
X718030Y204008D01*
X718120Y203979D01*
X718208Y203947D01*
X718295Y203911D01*
X718380Y203871D01*
X718463Y203828D01*
X718545Y203782D01*
X718625Y203732D01*
X718702Y203679D01*
X718777Y203623D01*
X718850Y203564D01*
X718921Y203502D01*
X718989Y203437D01*
X719054Y203369D01*
X719116Y203298D01*
X719175Y203225D01*
X719231Y203150D01*
X719284Y203073D01*
X719334Y202993D01*
X719380Y202911D01*
X719423Y202828D01*
X719463Y202743D01*
X719499Y202656D01*
X719531Y202568D01*
X719560Y202478D01*
X719584Y202388D01*
X719606Y202296D01*
X719623Y202204D01*
X719637Y202111D01*
X719646Y202018D01*
X719652Y201924D01*
X719654Y201830D01*
X719652Y201736D01*
X719646Y201642D01*
X719637Y201549D01*
X719623Y201456D01*
X719606Y201364D01*
X719584Y201272D01*
X719560Y201182D01*
X719531Y201092D01*
X719499Y201004D01*
X719463Y200917D01*
X719423Y200832D01*
X719380Y200749D01*
X719334Y200667D01*
X719284Y200587D01*
X719231Y200510D01*
X719175Y200435D01*
X719116Y200362D01*
X719054Y200291D01*
X718989Y200223D01*
X718921Y200158D01*
X718850Y200096D01*
X718777Y200037D01*
X718702Y199981D01*
X718625Y199928D01*
X718545Y199878D01*
X718463Y199832D01*
X718380Y199789D01*
X718295Y199749D01*
X718208Y199713D01*
X718120Y199681D01*
X718030Y199652D01*
X717940Y199628D01*
X717848Y199606D01*
X717756Y199589D01*
X717663Y199575D01*
X717570Y199566D01*
X717476Y199560D01*
X717382Y199558D01*
X714461Y199558D01*
X714461Y205400D01*
X714463Y205487D01*
X714469Y205575D01*
X714479Y205661D01*
X714492Y205748D01*
X714510Y205833D01*
X714531Y205918D01*
X714556Y206002D01*
X714585Y206084D01*
X714618Y206165D01*
X714654Y206245D01*
X714693Y206323D01*
X714737Y206399D01*
X714783Y206473D01*
X714833Y206544D01*
X714886Y206614D01*
X714942Y206681D01*
X715001Y206746D01*
X715063Y206807D01*
X715127Y206866D01*
X715194Y206922D01*
X715264Y206975D01*
X715335Y207025D01*
X715409Y207071D01*
X715485Y207115D01*
X715563Y207154D01*
X715643Y207190D01*
X715724Y207223D01*
X715806Y207252D01*
X715890Y207277D01*
X715975Y207298D01*
X716060Y207316D01*
X716147Y207329D01*
X716234Y207339D01*
X716321Y207345D01*
X716408Y207347D01*
X719005Y207347D01*
X701265Y199558D02*
X698019Y199558D01*
X701265Y199558D02*
X701352Y199560D01*
X701440Y199566D01*
X701526Y199576D01*
X701613Y199589D01*
X701698Y199607D01*
X701783Y199628D01*
X701867Y199653D01*
X701949Y199682D01*
X702030Y199715D01*
X702110Y199751D01*
X702188Y199790D01*
X702264Y199834D01*
X702338Y199880D01*
X702409Y199930D01*
X702479Y199983D01*
X702546Y200039D01*
X702610Y200098D01*
X702672Y200160D01*
X702731Y200224D01*
X702787Y200291D01*
X702840Y200361D01*
X702890Y200432D01*
X702936Y200506D01*
X702980Y200582D01*
X703019Y200660D01*
X703055Y200740D01*
X703088Y200821D01*
X703117Y200903D01*
X703142Y200987D01*
X703163Y201072D01*
X703181Y201157D01*
X703194Y201244D01*
X703204Y201330D01*
X703210Y201418D01*
X703212Y201505D01*
X703212Y204751D01*
X703210Y204852D01*
X703204Y204952D01*
X703194Y205052D01*
X703181Y205152D01*
X703163Y205251D01*
X703142Y205350D01*
X703117Y205447D01*
X703088Y205544D01*
X703055Y205639D01*
X703019Y205733D01*
X702979Y205825D01*
X702936Y205916D01*
X702889Y206005D01*
X702839Y206092D01*
X702785Y206178D01*
X702728Y206261D01*
X702668Y206341D01*
X702605Y206420D01*
X702538Y206496D01*
X702469Y206569D01*
X702397Y206639D01*
X702323Y206707D01*
X702246Y206772D01*
X702166Y206833D01*
X702084Y206892D01*
X702000Y206947D01*
X701914Y206999D01*
X701826Y207048D01*
X701736Y207093D01*
X701644Y207135D01*
X701551Y207173D01*
X701456Y207207D01*
X701361Y207238D01*
X701264Y207265D01*
X701166Y207288D01*
X701067Y207308D01*
X700967Y207323D01*
X700867Y207335D01*
X700767Y207343D01*
X700666Y207347D01*
X700566Y207347D01*
X700465Y207343D01*
X700365Y207335D01*
X700265Y207323D01*
X700165Y207308D01*
X700066Y207288D01*
X699968Y207265D01*
X699871Y207238D01*
X699776Y207207D01*
X699681Y207173D01*
X699588Y207135D01*
X699496Y207093D01*
X699406Y207048D01*
X699318Y206999D01*
X699232Y206947D01*
X699148Y206892D01*
X699066Y206833D01*
X698986Y206772D01*
X698909Y206707D01*
X698835Y206639D01*
X698763Y206569D01*
X698694Y206496D01*
X698627Y206420D01*
X698564Y206341D01*
X698504Y206261D01*
X698447Y206178D01*
X698393Y206092D01*
X698343Y206005D01*
X698296Y205916D01*
X698253Y205825D01*
X698213Y205733D01*
X698177Y205639D01*
X698144Y205544D01*
X698115Y205447D01*
X698090Y205350D01*
X698069Y205251D01*
X698051Y205152D01*
X698038Y205052D01*
X698028Y204952D01*
X698022Y204852D01*
X698020Y204751D01*
X698019Y204751D02*
X698019Y203453D01*
X703212Y203453D01*
X682172Y206049D02*
X680225Y206049D01*
X680225Y199558D01*
X684120Y199558D01*
X684219Y199560D01*
X684319Y199566D01*
X684418Y199575D01*
X684516Y199588D01*
X684614Y199605D01*
X684712Y199626D01*
X684808Y199651D01*
X684903Y199679D01*
X684997Y199711D01*
X685090Y199746D01*
X685182Y199785D01*
X685272Y199828D01*
X685360Y199873D01*
X685447Y199923D01*
X685531Y199975D01*
X685614Y200031D01*
X685694Y200089D01*
X685772Y200151D01*
X685847Y200216D01*
X685920Y200284D01*
X685990Y200354D01*
X686058Y200427D01*
X686123Y200502D01*
X686185Y200580D01*
X686243Y200660D01*
X686299Y200743D01*
X686351Y200827D01*
X686401Y200914D01*
X686446Y201002D01*
X686489Y201092D01*
X686528Y201184D01*
X686563Y201277D01*
X686595Y201371D01*
X686623Y201466D01*
X686648Y201562D01*
X686669Y201660D01*
X686686Y201758D01*
X686699Y201856D01*
X686708Y201955D01*
X686714Y202055D01*
X686716Y202154D01*
X686716Y208646D01*
X686714Y208745D01*
X686708Y208845D01*
X686699Y208944D01*
X686686Y209042D01*
X686669Y209140D01*
X686648Y209238D01*
X686623Y209334D01*
X686595Y209429D01*
X686563Y209523D01*
X686528Y209616D01*
X686489Y209708D01*
X686446Y209798D01*
X686401Y209886D01*
X686351Y209973D01*
X686299Y210057D01*
X686243Y210140D01*
X686185Y210220D01*
X686123Y210298D01*
X686058Y210373D01*
X685990Y210446D01*
X685920Y210516D01*
X685847Y210584D01*
X685772Y210649D01*
X685694Y210711D01*
X685614Y210769D01*
X685531Y210825D01*
X685447Y210877D01*
X685360Y210927D01*
X685272Y210972D01*
X685182Y211015D01*
X685090Y211054D01*
X684997Y211089D01*
X684903Y211121D01*
X684808Y211149D01*
X684712Y211174D01*
X684614Y211195D01*
X684516Y211212D01*
X684418Y211225D01*
X684319Y211234D01*
X684219Y211240D01*
X684120Y211242D01*
X680225Y211242D01*
X673071Y199558D02*
X669825Y199558D01*
X673071Y199558D02*
X673158Y199560D01*
X673246Y199566D01*
X673332Y199576D01*
X673419Y199589D01*
X673504Y199607D01*
X673589Y199628D01*
X673673Y199653D01*
X673755Y199682D01*
X673836Y199715D01*
X673916Y199751D01*
X673994Y199790D01*
X674070Y199834D01*
X674144Y199880D01*
X674215Y199930D01*
X674285Y199983D01*
X674352Y200039D01*
X674416Y200098D01*
X674478Y200160D01*
X674537Y200224D01*
X674593Y200291D01*
X674646Y200361D01*
X674696Y200432D01*
X674742Y200506D01*
X674786Y200582D01*
X674825Y200660D01*
X674861Y200740D01*
X674894Y200821D01*
X674923Y200903D01*
X674948Y200987D01*
X674969Y201072D01*
X674987Y201157D01*
X675000Y201244D01*
X675010Y201330D01*
X675016Y201418D01*
X675018Y201505D01*
X675018Y204751D01*
X675016Y204852D01*
X675010Y204952D01*
X675000Y205052D01*
X674987Y205152D01*
X674969Y205251D01*
X674948Y205350D01*
X674923Y205447D01*
X674894Y205544D01*
X674861Y205639D01*
X674825Y205733D01*
X674785Y205825D01*
X674742Y205916D01*
X674695Y206005D01*
X674645Y206092D01*
X674591Y206178D01*
X674534Y206261D01*
X674474Y206341D01*
X674411Y206420D01*
X674344Y206496D01*
X674275Y206569D01*
X674203Y206639D01*
X674129Y206707D01*
X674052Y206772D01*
X673972Y206833D01*
X673890Y206892D01*
X673806Y206947D01*
X673720Y206999D01*
X673632Y207048D01*
X673542Y207093D01*
X673450Y207135D01*
X673357Y207173D01*
X673262Y207207D01*
X673167Y207238D01*
X673070Y207265D01*
X672972Y207288D01*
X672873Y207308D01*
X672773Y207323D01*
X672673Y207335D01*
X672573Y207343D01*
X672472Y207347D01*
X672372Y207347D01*
X672271Y207343D01*
X672171Y207335D01*
X672071Y207323D01*
X671971Y207308D01*
X671872Y207288D01*
X671774Y207265D01*
X671677Y207238D01*
X671582Y207207D01*
X671487Y207173D01*
X671394Y207135D01*
X671302Y207093D01*
X671212Y207048D01*
X671124Y206999D01*
X671038Y206947D01*
X670954Y206892D01*
X670872Y206833D01*
X670792Y206772D01*
X670715Y206707D01*
X670641Y206639D01*
X670569Y206569D01*
X670500Y206496D01*
X670433Y206420D01*
X670370Y206341D01*
X670310Y206261D01*
X670253Y206178D01*
X670199Y206092D01*
X670149Y206005D01*
X670102Y205916D01*
X670059Y205825D01*
X670019Y205733D01*
X669983Y205639D01*
X669950Y205544D01*
X669921Y205447D01*
X669896Y205350D01*
X669875Y205251D01*
X669857Y205152D01*
X669844Y205052D01*
X669834Y204952D01*
X669828Y204852D01*
X669826Y204751D01*
X669825Y204751D02*
X669825Y203453D01*
X675018Y203453D01*
X664665Y199558D02*
X664665Y207347D01*
X660770Y207347D01*
X660770Y206049D01*
X655164Y199558D02*
X651918Y199558D01*
X655164Y199558D02*
X655251Y199560D01*
X655339Y199566D01*
X655425Y199576D01*
X655512Y199589D01*
X655597Y199607D01*
X655682Y199628D01*
X655766Y199653D01*
X655848Y199682D01*
X655929Y199715D01*
X656009Y199751D01*
X656087Y199790D01*
X656163Y199834D01*
X656237Y199880D01*
X656308Y199930D01*
X656378Y199983D01*
X656445Y200039D01*
X656509Y200098D01*
X656571Y200160D01*
X656630Y200224D01*
X656686Y200291D01*
X656739Y200361D01*
X656789Y200432D01*
X656835Y200506D01*
X656879Y200582D01*
X656918Y200660D01*
X656954Y200740D01*
X656987Y200821D01*
X657016Y200903D01*
X657041Y200987D01*
X657062Y201072D01*
X657080Y201157D01*
X657093Y201244D01*
X657103Y201330D01*
X657109Y201418D01*
X657111Y201505D01*
X657111Y204751D01*
X657109Y204852D01*
X657103Y204952D01*
X657093Y205052D01*
X657080Y205152D01*
X657062Y205251D01*
X657041Y205350D01*
X657016Y205447D01*
X656987Y205544D01*
X656954Y205639D01*
X656918Y205733D01*
X656878Y205825D01*
X656835Y205916D01*
X656788Y206005D01*
X656738Y206092D01*
X656684Y206178D01*
X656627Y206261D01*
X656567Y206341D01*
X656504Y206420D01*
X656437Y206496D01*
X656368Y206569D01*
X656296Y206639D01*
X656222Y206707D01*
X656145Y206772D01*
X656065Y206833D01*
X655983Y206892D01*
X655899Y206947D01*
X655813Y206999D01*
X655725Y207048D01*
X655635Y207093D01*
X655543Y207135D01*
X655450Y207173D01*
X655355Y207207D01*
X655260Y207238D01*
X655163Y207265D01*
X655065Y207288D01*
X654966Y207308D01*
X654866Y207323D01*
X654766Y207335D01*
X654666Y207343D01*
X654565Y207347D01*
X654465Y207347D01*
X654364Y207343D01*
X654264Y207335D01*
X654164Y207323D01*
X654064Y207308D01*
X653965Y207288D01*
X653867Y207265D01*
X653770Y207238D01*
X653675Y207207D01*
X653580Y207173D01*
X653487Y207135D01*
X653395Y207093D01*
X653305Y207048D01*
X653217Y206999D01*
X653131Y206947D01*
X653047Y206892D01*
X652965Y206833D01*
X652885Y206772D01*
X652808Y206707D01*
X652734Y206639D01*
X652662Y206569D01*
X652593Y206496D01*
X652526Y206420D01*
X652463Y206341D01*
X652403Y206261D01*
X652346Y206178D01*
X652292Y206092D01*
X652242Y206005D01*
X652195Y205916D01*
X652152Y205825D01*
X652112Y205733D01*
X652076Y205639D01*
X652043Y205544D01*
X652014Y205447D01*
X651989Y205350D01*
X651968Y205251D01*
X651950Y205152D01*
X651937Y205052D01*
X651927Y204952D01*
X651921Y204852D01*
X651919Y204751D01*
X651918Y204751D02*
X651918Y203453D01*
X657111Y203453D01*
X646824Y199558D02*
X646824Y207347D01*
X643579Y207347D01*
X643492Y207345D01*
X643404Y207339D01*
X643318Y207329D01*
X643231Y207316D01*
X643146Y207298D01*
X643061Y207277D01*
X642977Y207252D01*
X642895Y207223D01*
X642814Y207190D01*
X642734Y207154D01*
X642656Y207115D01*
X642580Y207071D01*
X642506Y207025D01*
X642435Y206975D01*
X642365Y206922D01*
X642298Y206866D01*
X642234Y206807D01*
X642172Y206746D01*
X642113Y206681D01*
X642057Y206614D01*
X642004Y206544D01*
X641954Y206473D01*
X641908Y206399D01*
X641865Y206323D01*
X641825Y206245D01*
X641789Y206165D01*
X641756Y206084D01*
X641727Y206002D01*
X641702Y205918D01*
X641681Y205833D01*
X641663Y205748D01*
X641650Y205661D01*
X641640Y205575D01*
X641634Y205487D01*
X641632Y205400D01*
X641631Y205400D02*
X641631Y199558D01*
X634576Y199558D02*
X631980Y199558D01*
X634576Y199558D02*
X634663Y199560D01*
X634751Y199566D01*
X634837Y199576D01*
X634924Y199589D01*
X635009Y199607D01*
X635094Y199628D01*
X635178Y199653D01*
X635260Y199682D01*
X635341Y199715D01*
X635421Y199751D01*
X635499Y199790D01*
X635575Y199834D01*
X635649Y199880D01*
X635720Y199930D01*
X635790Y199983D01*
X635857Y200039D01*
X635921Y200098D01*
X635983Y200160D01*
X636042Y200224D01*
X636098Y200291D01*
X636151Y200361D01*
X636201Y200432D01*
X636247Y200506D01*
X636291Y200582D01*
X636330Y200660D01*
X636366Y200740D01*
X636399Y200821D01*
X636428Y200903D01*
X636453Y200987D01*
X636474Y201072D01*
X636492Y201157D01*
X636505Y201244D01*
X636515Y201330D01*
X636521Y201418D01*
X636523Y201505D01*
X636524Y201505D02*
X636524Y205400D01*
X636523Y205400D02*
X636521Y205487D01*
X636515Y205575D01*
X636505Y205661D01*
X636492Y205748D01*
X636474Y205833D01*
X636453Y205918D01*
X636428Y206002D01*
X636399Y206084D01*
X636366Y206165D01*
X636330Y206245D01*
X636291Y206323D01*
X636247Y206399D01*
X636201Y206473D01*
X636151Y206544D01*
X636098Y206614D01*
X636042Y206681D01*
X635983Y206745D01*
X635921Y206807D01*
X635857Y206866D01*
X635790Y206922D01*
X635720Y206975D01*
X635649Y207025D01*
X635575Y207071D01*
X635499Y207115D01*
X635421Y207154D01*
X635341Y207190D01*
X635260Y207223D01*
X635178Y207252D01*
X635094Y207277D01*
X635009Y207298D01*
X634924Y207316D01*
X634837Y207329D01*
X634751Y207339D01*
X634663Y207345D01*
X634576Y207347D01*
X631980Y207347D01*
X627845Y207347D02*
X627845Y199558D01*
X628169Y210593D02*
X628169Y211242D01*
X627520Y211242D01*
X627520Y210593D01*
X628169Y210593D01*
X620989Y204102D02*
X618068Y204102D01*
X620989Y204102D02*
X621083Y204100D01*
X621177Y204094D01*
X621270Y204085D01*
X621363Y204071D01*
X621455Y204054D01*
X621547Y204032D01*
X621637Y204008D01*
X621727Y203979D01*
X621815Y203947D01*
X621902Y203911D01*
X621987Y203871D01*
X622070Y203828D01*
X622152Y203782D01*
X622232Y203732D01*
X622309Y203679D01*
X622384Y203623D01*
X622457Y203564D01*
X622528Y203502D01*
X622596Y203437D01*
X622661Y203369D01*
X622723Y203298D01*
X622782Y203225D01*
X622838Y203150D01*
X622891Y203073D01*
X622941Y202993D01*
X622987Y202911D01*
X623030Y202828D01*
X623070Y202743D01*
X623106Y202656D01*
X623138Y202568D01*
X623167Y202478D01*
X623191Y202388D01*
X623213Y202296D01*
X623230Y202204D01*
X623244Y202111D01*
X623253Y202018D01*
X623259Y201924D01*
X623261Y201830D01*
X623259Y201736D01*
X623253Y201642D01*
X623244Y201549D01*
X623230Y201456D01*
X623213Y201364D01*
X623191Y201272D01*
X623167Y201182D01*
X623138Y201092D01*
X623106Y201004D01*
X623070Y200917D01*
X623030Y200832D01*
X622987Y200749D01*
X622941Y200667D01*
X622891Y200587D01*
X622838Y200510D01*
X622782Y200435D01*
X622723Y200362D01*
X622661Y200291D01*
X622596Y200223D01*
X622528Y200158D01*
X622457Y200096D01*
X622384Y200037D01*
X622309Y199981D01*
X622232Y199928D01*
X622152Y199878D01*
X622070Y199832D01*
X621987Y199789D01*
X621902Y199749D01*
X621815Y199713D01*
X621727Y199681D01*
X621637Y199652D01*
X621547Y199628D01*
X621455Y199606D01*
X621363Y199589D01*
X621270Y199575D01*
X621177Y199566D01*
X621083Y199560D01*
X620989Y199558D01*
X618068Y199558D01*
X618068Y205400D01*
X618070Y205487D01*
X618076Y205575D01*
X618086Y205661D01*
X618099Y205748D01*
X618117Y205833D01*
X618138Y205918D01*
X618163Y206002D01*
X618192Y206084D01*
X618225Y206165D01*
X618261Y206245D01*
X618300Y206323D01*
X618344Y206399D01*
X618390Y206473D01*
X618440Y206544D01*
X618493Y206614D01*
X618549Y206681D01*
X618608Y206746D01*
X618670Y206807D01*
X618734Y206866D01*
X618801Y206922D01*
X618871Y206975D01*
X618942Y207025D01*
X619016Y207071D01*
X619092Y207115D01*
X619170Y207154D01*
X619250Y207190D01*
X619331Y207223D01*
X619413Y207252D01*
X619497Y207277D01*
X619582Y207298D01*
X619667Y207316D01*
X619754Y207329D01*
X619841Y207339D01*
X619928Y207345D01*
X620015Y207347D01*
X620016Y207347D02*
X622612Y207347D01*
X612308Y207347D02*
X612308Y199558D01*
X612308Y207347D02*
X606466Y207347D01*
X606379Y207345D01*
X606291Y207339D01*
X606205Y207329D01*
X606118Y207316D01*
X606033Y207298D01*
X605948Y207277D01*
X605864Y207252D01*
X605782Y207223D01*
X605701Y207190D01*
X605621Y207154D01*
X605543Y207115D01*
X605467Y207071D01*
X605393Y207025D01*
X605322Y206975D01*
X605252Y206922D01*
X605185Y206866D01*
X605121Y206807D01*
X605059Y206745D01*
X605000Y206681D01*
X604944Y206614D01*
X604891Y206544D01*
X604841Y206473D01*
X604795Y206399D01*
X604751Y206323D01*
X604712Y206245D01*
X604676Y206165D01*
X604643Y206084D01*
X604614Y206002D01*
X604589Y205918D01*
X604568Y205833D01*
X604550Y205748D01*
X604537Y205661D01*
X604527Y205575D01*
X604521Y205487D01*
X604519Y205400D01*
X604519Y199558D01*
X608414Y199558D02*
X608414Y207347D01*
X597252Y199558D02*
X594006Y199558D01*
X597252Y199558D02*
X597339Y199560D01*
X597427Y199566D01*
X597513Y199576D01*
X597600Y199589D01*
X597685Y199607D01*
X597770Y199628D01*
X597854Y199653D01*
X597936Y199682D01*
X598017Y199715D01*
X598097Y199751D01*
X598175Y199790D01*
X598251Y199834D01*
X598325Y199880D01*
X598396Y199930D01*
X598466Y199983D01*
X598533Y200039D01*
X598597Y200098D01*
X598659Y200160D01*
X598718Y200224D01*
X598774Y200291D01*
X598827Y200361D01*
X598877Y200432D01*
X598923Y200506D01*
X598967Y200582D01*
X599006Y200660D01*
X599042Y200740D01*
X599075Y200821D01*
X599104Y200903D01*
X599129Y200987D01*
X599150Y201072D01*
X599168Y201157D01*
X599181Y201244D01*
X599191Y201330D01*
X599197Y201418D01*
X599199Y201505D01*
X599199Y204751D01*
X599197Y204852D01*
X599191Y204952D01*
X599181Y205052D01*
X599168Y205152D01*
X599150Y205251D01*
X599129Y205350D01*
X599104Y205447D01*
X599075Y205544D01*
X599042Y205639D01*
X599006Y205733D01*
X598966Y205825D01*
X598923Y205916D01*
X598876Y206005D01*
X598826Y206092D01*
X598772Y206178D01*
X598715Y206261D01*
X598655Y206341D01*
X598592Y206420D01*
X598525Y206496D01*
X598456Y206569D01*
X598384Y206639D01*
X598310Y206707D01*
X598233Y206772D01*
X598153Y206833D01*
X598071Y206892D01*
X597987Y206947D01*
X597901Y206999D01*
X597813Y207048D01*
X597723Y207093D01*
X597631Y207135D01*
X597538Y207173D01*
X597443Y207207D01*
X597348Y207238D01*
X597251Y207265D01*
X597153Y207288D01*
X597054Y207308D01*
X596954Y207323D01*
X596854Y207335D01*
X596754Y207343D01*
X596653Y207347D01*
X596553Y207347D01*
X596452Y207343D01*
X596352Y207335D01*
X596252Y207323D01*
X596152Y207308D01*
X596053Y207288D01*
X595955Y207265D01*
X595858Y207238D01*
X595763Y207207D01*
X595668Y207173D01*
X595575Y207135D01*
X595483Y207093D01*
X595393Y207048D01*
X595305Y206999D01*
X595219Y206947D01*
X595135Y206892D01*
X595053Y206833D01*
X594973Y206772D01*
X594896Y206707D01*
X594822Y206639D01*
X594750Y206569D01*
X594681Y206496D01*
X594614Y206420D01*
X594551Y206341D01*
X594491Y206261D01*
X594434Y206178D01*
X594380Y206092D01*
X594330Y206005D01*
X594283Y205916D01*
X594240Y205825D01*
X594200Y205733D01*
X594164Y205639D01*
X594131Y205544D01*
X594102Y205447D01*
X594077Y205350D01*
X594056Y205251D01*
X594038Y205152D01*
X594025Y205052D01*
X594015Y204952D01*
X594009Y204852D01*
X594007Y204751D01*
X594006Y204751D02*
X594006Y203453D01*
X599199Y203453D01*
X588912Y199558D02*
X588912Y207347D01*
X585667Y207347D01*
X585580Y207345D01*
X585492Y207339D01*
X585406Y207329D01*
X585319Y207316D01*
X585234Y207298D01*
X585149Y207277D01*
X585065Y207252D01*
X584983Y207223D01*
X584902Y207190D01*
X584822Y207154D01*
X584744Y207115D01*
X584668Y207071D01*
X584594Y207025D01*
X584523Y206975D01*
X584453Y206922D01*
X584386Y206866D01*
X584322Y206807D01*
X584260Y206746D01*
X584201Y206681D01*
X584145Y206614D01*
X584092Y206544D01*
X584042Y206473D01*
X583996Y206399D01*
X583953Y206323D01*
X583913Y206245D01*
X583877Y206165D01*
X583844Y206084D01*
X583815Y206002D01*
X583790Y205918D01*
X583769Y205833D01*
X583751Y205748D01*
X583738Y205661D01*
X583728Y205575D01*
X583722Y205487D01*
X583720Y205400D01*
X583719Y205400D02*
X583719Y199558D01*
X579592Y207347D02*
X575698Y207347D01*
X578294Y211242D02*
X578294Y201505D01*
X578292Y201418D01*
X578286Y201330D01*
X578276Y201244D01*
X578263Y201157D01*
X578245Y201072D01*
X578224Y200987D01*
X578199Y200903D01*
X578170Y200821D01*
X578137Y200740D01*
X578101Y200660D01*
X578062Y200582D01*
X578018Y200506D01*
X577972Y200432D01*
X577922Y200361D01*
X577869Y200291D01*
X577813Y200224D01*
X577754Y200160D01*
X577692Y200098D01*
X577628Y200039D01*
X577561Y199983D01*
X577491Y199930D01*
X577420Y199880D01*
X577346Y199834D01*
X577270Y199790D01*
X577192Y199751D01*
X577112Y199715D01*
X577031Y199682D01*
X576949Y199653D01*
X576865Y199628D01*
X576780Y199607D01*
X576695Y199589D01*
X576608Y199576D01*
X576522Y199566D01*
X576434Y199560D01*
X576347Y199558D01*
X575698Y199558D01*
X571386Y202154D02*
X571386Y204751D01*
X571384Y204852D01*
X571378Y204952D01*
X571368Y205052D01*
X571355Y205152D01*
X571337Y205251D01*
X571316Y205350D01*
X571291Y205447D01*
X571262Y205544D01*
X571229Y205639D01*
X571193Y205733D01*
X571153Y205825D01*
X571110Y205916D01*
X571063Y206005D01*
X571013Y206092D01*
X570959Y206178D01*
X570902Y206261D01*
X570842Y206341D01*
X570779Y206420D01*
X570712Y206496D01*
X570643Y206569D01*
X570571Y206639D01*
X570497Y206707D01*
X570420Y206772D01*
X570340Y206833D01*
X570258Y206892D01*
X570174Y206947D01*
X570088Y206999D01*
X570000Y207048D01*
X569910Y207093D01*
X569818Y207135D01*
X569725Y207173D01*
X569630Y207207D01*
X569535Y207238D01*
X569438Y207265D01*
X569340Y207288D01*
X569241Y207308D01*
X569141Y207323D01*
X569041Y207335D01*
X568941Y207343D01*
X568840Y207347D01*
X568740Y207347D01*
X568639Y207343D01*
X568539Y207335D01*
X568439Y207323D01*
X568339Y207308D01*
X568240Y207288D01*
X568142Y207265D01*
X568045Y207238D01*
X567950Y207207D01*
X567855Y207173D01*
X567762Y207135D01*
X567670Y207093D01*
X567580Y207048D01*
X567492Y206999D01*
X567406Y206947D01*
X567322Y206892D01*
X567240Y206833D01*
X567160Y206772D01*
X567083Y206707D01*
X567009Y206639D01*
X566937Y206569D01*
X566868Y206496D01*
X566801Y206420D01*
X566738Y206341D01*
X566678Y206261D01*
X566621Y206178D01*
X566567Y206092D01*
X566517Y206005D01*
X566470Y205916D01*
X566427Y205825D01*
X566387Y205733D01*
X566351Y205639D01*
X566318Y205544D01*
X566289Y205447D01*
X566264Y205350D01*
X566243Y205251D01*
X566225Y205152D01*
X566212Y205052D01*
X566202Y204952D01*
X566196Y204852D01*
X566194Y204751D01*
X566193Y204751D02*
X566193Y202154D01*
X566194Y202154D02*
X566196Y202053D01*
X566202Y201953D01*
X566212Y201853D01*
X566225Y201753D01*
X566243Y201654D01*
X566264Y201555D01*
X566289Y201458D01*
X566318Y201361D01*
X566351Y201266D01*
X566387Y201172D01*
X566427Y201080D01*
X566470Y200989D01*
X566517Y200900D01*
X566567Y200813D01*
X566621Y200727D01*
X566678Y200644D01*
X566738Y200564D01*
X566801Y200485D01*
X566868Y200409D01*
X566937Y200336D01*
X567009Y200266D01*
X567083Y200198D01*
X567160Y200133D01*
X567240Y200072D01*
X567322Y200013D01*
X567406Y199958D01*
X567492Y199906D01*
X567580Y199857D01*
X567670Y199812D01*
X567762Y199770D01*
X567855Y199732D01*
X567950Y199698D01*
X568045Y199667D01*
X568142Y199640D01*
X568240Y199617D01*
X568339Y199597D01*
X568439Y199582D01*
X568539Y199570D01*
X568639Y199562D01*
X568740Y199558D01*
X568840Y199558D01*
X568941Y199562D01*
X569041Y199570D01*
X569141Y199582D01*
X569241Y199597D01*
X569340Y199617D01*
X569438Y199640D01*
X569535Y199667D01*
X569630Y199698D01*
X569725Y199732D01*
X569818Y199770D01*
X569910Y199812D01*
X570000Y199857D01*
X570088Y199906D01*
X570174Y199958D01*
X570258Y200013D01*
X570340Y200072D01*
X570420Y200133D01*
X570497Y200198D01*
X570571Y200266D01*
X570643Y200336D01*
X570712Y200409D01*
X570779Y200485D01*
X570842Y200564D01*
X570902Y200644D01*
X570959Y200727D01*
X571013Y200813D01*
X571063Y200900D01*
X571110Y200989D01*
X571153Y201080D01*
X571193Y201172D01*
X571229Y201266D01*
X571262Y201361D01*
X571291Y201458D01*
X571316Y201555D01*
X571337Y201654D01*
X571355Y201753D01*
X571368Y201853D01*
X571378Y201953D01*
X571384Y202053D01*
X571386Y202154D01*
X554868Y199558D02*
X549675Y199558D01*
X554868Y199558D02*
X554868Y211242D01*
X549675Y211242D01*
X550973Y206049D02*
X554868Y206049D01*
X545097Y207347D02*
X545097Y199558D01*
X545097Y207347D02*
X541852Y207347D01*
X541765Y207345D01*
X541677Y207339D01*
X541591Y207329D01*
X541504Y207316D01*
X541419Y207298D01*
X541334Y207277D01*
X541250Y207252D01*
X541168Y207223D01*
X541087Y207190D01*
X541007Y207154D01*
X540929Y207115D01*
X540853Y207071D01*
X540779Y207025D01*
X540708Y206975D01*
X540638Y206922D01*
X540571Y206866D01*
X540507Y206807D01*
X540445Y206746D01*
X540386Y206681D01*
X540330Y206614D01*
X540277Y206544D01*
X540227Y206473D01*
X540181Y206399D01*
X540138Y206323D01*
X540098Y206245D01*
X540062Y206165D01*
X540029Y206084D01*
X540000Y206002D01*
X539975Y205918D01*
X539954Y205833D01*
X539936Y205748D01*
X539923Y205661D01*
X539913Y205575D01*
X539907Y205487D01*
X539905Y205400D01*
X539904Y205400D02*
X539904Y199558D01*
X532863Y199558D02*
X529617Y199558D01*
X532863Y199558D02*
X532950Y199560D01*
X533038Y199566D01*
X533124Y199576D01*
X533211Y199589D01*
X533296Y199607D01*
X533381Y199628D01*
X533465Y199653D01*
X533547Y199682D01*
X533628Y199715D01*
X533708Y199751D01*
X533786Y199790D01*
X533862Y199834D01*
X533936Y199880D01*
X534007Y199930D01*
X534077Y199983D01*
X534144Y200039D01*
X534208Y200098D01*
X534270Y200160D01*
X534329Y200224D01*
X534385Y200291D01*
X534438Y200361D01*
X534488Y200432D01*
X534534Y200506D01*
X534578Y200582D01*
X534617Y200660D01*
X534653Y200740D01*
X534686Y200821D01*
X534715Y200903D01*
X534740Y200987D01*
X534761Y201072D01*
X534779Y201157D01*
X534792Y201244D01*
X534802Y201330D01*
X534808Y201418D01*
X534810Y201505D01*
X534810Y204751D01*
X534808Y204852D01*
X534802Y204952D01*
X534792Y205052D01*
X534779Y205152D01*
X534761Y205251D01*
X534740Y205350D01*
X534715Y205447D01*
X534686Y205544D01*
X534653Y205639D01*
X534617Y205733D01*
X534577Y205825D01*
X534534Y205916D01*
X534487Y206005D01*
X534437Y206092D01*
X534383Y206178D01*
X534326Y206261D01*
X534266Y206341D01*
X534203Y206420D01*
X534136Y206496D01*
X534067Y206569D01*
X533995Y206639D01*
X533921Y206707D01*
X533844Y206772D01*
X533764Y206833D01*
X533682Y206892D01*
X533598Y206947D01*
X533512Y206999D01*
X533424Y207048D01*
X533334Y207093D01*
X533242Y207135D01*
X533149Y207173D01*
X533054Y207207D01*
X532959Y207238D01*
X532862Y207265D01*
X532764Y207288D01*
X532665Y207308D01*
X532565Y207323D01*
X532465Y207335D01*
X532365Y207343D01*
X532264Y207347D01*
X532164Y207347D01*
X532063Y207343D01*
X531963Y207335D01*
X531863Y207323D01*
X531763Y207308D01*
X531664Y207288D01*
X531566Y207265D01*
X531469Y207238D01*
X531374Y207207D01*
X531279Y207173D01*
X531186Y207135D01*
X531094Y207093D01*
X531004Y207048D01*
X530916Y206999D01*
X530830Y206947D01*
X530746Y206892D01*
X530664Y206833D01*
X530584Y206772D01*
X530507Y206707D01*
X530433Y206639D01*
X530361Y206569D01*
X530292Y206496D01*
X530225Y206420D01*
X530162Y206341D01*
X530102Y206261D01*
X530045Y206178D01*
X529991Y206092D01*
X529941Y206005D01*
X529894Y205916D01*
X529851Y205825D01*
X529811Y205733D01*
X529775Y205639D01*
X529742Y205544D01*
X529713Y205447D01*
X529688Y205350D01*
X529667Y205251D01*
X529649Y205152D01*
X529636Y205052D01*
X529626Y204952D01*
X529620Y204852D01*
X529618Y204751D01*
X529617Y204751D02*
X529617Y203453D01*
X534810Y203453D01*
X524457Y199558D02*
X524457Y207347D01*
X520562Y207347D01*
X520562Y206049D01*
X515015Y199558D02*
X511769Y199558D01*
X515015Y199558D02*
X515102Y199560D01*
X515190Y199566D01*
X515276Y199576D01*
X515363Y199589D01*
X515448Y199607D01*
X515533Y199628D01*
X515617Y199653D01*
X515699Y199682D01*
X515780Y199715D01*
X515860Y199751D01*
X515938Y199790D01*
X516014Y199834D01*
X516088Y199880D01*
X516159Y199930D01*
X516229Y199983D01*
X516296Y200039D01*
X516360Y200098D01*
X516422Y200160D01*
X516481Y200224D01*
X516537Y200291D01*
X516590Y200361D01*
X516640Y200432D01*
X516686Y200506D01*
X516730Y200582D01*
X516769Y200660D01*
X516805Y200740D01*
X516838Y200821D01*
X516867Y200903D01*
X516892Y200987D01*
X516913Y201072D01*
X516931Y201157D01*
X516944Y201244D01*
X516954Y201330D01*
X516960Y201418D01*
X516962Y201505D01*
X516962Y205400D01*
X516960Y205487D01*
X516954Y205575D01*
X516944Y205661D01*
X516931Y205748D01*
X516913Y205833D01*
X516892Y205918D01*
X516867Y206002D01*
X516838Y206084D01*
X516805Y206165D01*
X516769Y206245D01*
X516730Y206323D01*
X516686Y206399D01*
X516640Y206473D01*
X516590Y206544D01*
X516537Y206614D01*
X516481Y206681D01*
X516422Y206745D01*
X516360Y206807D01*
X516296Y206866D01*
X516229Y206922D01*
X516159Y206975D01*
X516088Y207025D01*
X516014Y207071D01*
X515938Y207115D01*
X515860Y207154D01*
X515780Y207190D01*
X515699Y207223D01*
X515617Y207252D01*
X515533Y207277D01*
X515448Y207298D01*
X515363Y207316D01*
X515276Y207329D01*
X515190Y207339D01*
X515102Y207345D01*
X515015Y207347D01*
X511769Y207347D01*
X511769Y197611D01*
X511770Y197611D02*
X511772Y197524D01*
X511778Y197436D01*
X511788Y197350D01*
X511801Y197263D01*
X511819Y197178D01*
X511840Y197093D01*
X511865Y197009D01*
X511894Y196927D01*
X511927Y196846D01*
X511963Y196766D01*
X512002Y196688D01*
X512046Y196612D01*
X512092Y196538D01*
X512142Y196467D01*
X512195Y196397D01*
X512251Y196330D01*
X512310Y196266D01*
X512372Y196204D01*
X512436Y196145D01*
X512503Y196089D01*
X512573Y196036D01*
X512644Y195986D01*
X512718Y195940D01*
X512794Y195896D01*
X512872Y195857D01*
X512952Y195821D01*
X513033Y195788D01*
X513115Y195759D01*
X513199Y195734D01*
X513284Y195713D01*
X513369Y195695D01*
X513456Y195682D01*
X513542Y195672D01*
X513630Y195666D01*
X513717Y195664D01*
X513717Y195663D02*
X516313Y195663D01*
X504669Y199558D02*
X501423Y199558D01*
X504669Y199558D02*
X504756Y199560D01*
X504844Y199566D01*
X504930Y199576D01*
X505017Y199589D01*
X505102Y199607D01*
X505187Y199628D01*
X505271Y199653D01*
X505353Y199682D01*
X505434Y199715D01*
X505514Y199751D01*
X505592Y199790D01*
X505668Y199834D01*
X505742Y199880D01*
X505813Y199930D01*
X505883Y199983D01*
X505950Y200039D01*
X506014Y200098D01*
X506076Y200160D01*
X506135Y200224D01*
X506191Y200291D01*
X506244Y200361D01*
X506294Y200432D01*
X506340Y200506D01*
X506384Y200582D01*
X506423Y200660D01*
X506459Y200740D01*
X506492Y200821D01*
X506521Y200903D01*
X506546Y200987D01*
X506567Y201072D01*
X506585Y201157D01*
X506598Y201244D01*
X506608Y201330D01*
X506614Y201418D01*
X506616Y201505D01*
X506616Y204751D01*
X506614Y204852D01*
X506608Y204952D01*
X506598Y205052D01*
X506585Y205152D01*
X506567Y205251D01*
X506546Y205350D01*
X506521Y205447D01*
X506492Y205544D01*
X506459Y205639D01*
X506423Y205733D01*
X506383Y205825D01*
X506340Y205916D01*
X506293Y206005D01*
X506243Y206092D01*
X506189Y206178D01*
X506132Y206261D01*
X506072Y206341D01*
X506009Y206420D01*
X505942Y206496D01*
X505873Y206569D01*
X505801Y206639D01*
X505727Y206707D01*
X505650Y206772D01*
X505570Y206833D01*
X505488Y206892D01*
X505404Y206947D01*
X505318Y206999D01*
X505230Y207048D01*
X505140Y207093D01*
X505048Y207135D01*
X504955Y207173D01*
X504860Y207207D01*
X504765Y207238D01*
X504668Y207265D01*
X504570Y207288D01*
X504471Y207308D01*
X504371Y207323D01*
X504271Y207335D01*
X504171Y207343D01*
X504070Y207347D01*
X503970Y207347D01*
X503869Y207343D01*
X503769Y207335D01*
X503669Y207323D01*
X503569Y207308D01*
X503470Y207288D01*
X503372Y207265D01*
X503275Y207238D01*
X503180Y207207D01*
X503085Y207173D01*
X502992Y207135D01*
X502900Y207093D01*
X502810Y207048D01*
X502722Y206999D01*
X502636Y206947D01*
X502552Y206892D01*
X502470Y206833D01*
X502390Y206772D01*
X502313Y206707D01*
X502239Y206639D01*
X502167Y206569D01*
X502098Y206496D01*
X502031Y206420D01*
X501968Y206341D01*
X501908Y206261D01*
X501851Y206178D01*
X501797Y206092D01*
X501747Y206005D01*
X501700Y205916D01*
X501657Y205825D01*
X501617Y205733D01*
X501581Y205639D01*
X501548Y205544D01*
X501519Y205447D01*
X501494Y205350D01*
X501473Y205251D01*
X501455Y205152D01*
X501442Y205052D01*
X501432Y204952D01*
X501426Y204852D01*
X501424Y204751D01*
X501423Y204751D02*
X501423Y203453D01*
X506616Y203453D01*
X504669Y210268D02*
X502722Y212540D01*
X497678Y207347D02*
X493783Y207347D01*
X496379Y211242D02*
X496379Y201505D01*
X496377Y201418D01*
X496371Y201330D01*
X496361Y201244D01*
X496348Y201157D01*
X496330Y201072D01*
X496309Y200987D01*
X496284Y200903D01*
X496255Y200821D01*
X496222Y200740D01*
X496186Y200660D01*
X496147Y200582D01*
X496103Y200506D01*
X496057Y200432D01*
X496007Y200361D01*
X495954Y200291D01*
X495898Y200224D01*
X495839Y200160D01*
X495777Y200098D01*
X495713Y200039D01*
X495646Y199983D01*
X495576Y199930D01*
X495505Y199880D01*
X495431Y199834D01*
X495355Y199790D01*
X495277Y199751D01*
X495197Y199715D01*
X495116Y199682D01*
X495034Y199653D01*
X494950Y199628D01*
X494865Y199607D01*
X494780Y199589D01*
X494693Y199576D01*
X494607Y199566D01*
X494519Y199560D01*
X494432Y199558D01*
X493783Y199558D01*
X489542Y199558D02*
X489542Y207347D01*
X489866Y210593D02*
X489866Y211242D01*
X489217Y211242D01*
X489217Y210593D01*
X489866Y210593D01*
X482939Y199558D02*
X480342Y199558D01*
X482939Y199558D02*
X483026Y199560D01*
X483114Y199566D01*
X483200Y199576D01*
X483287Y199589D01*
X483372Y199607D01*
X483457Y199628D01*
X483541Y199653D01*
X483623Y199682D01*
X483704Y199715D01*
X483784Y199751D01*
X483862Y199790D01*
X483938Y199834D01*
X484012Y199880D01*
X484083Y199930D01*
X484153Y199983D01*
X484220Y200039D01*
X484284Y200098D01*
X484346Y200160D01*
X484405Y200224D01*
X484461Y200291D01*
X484514Y200361D01*
X484564Y200432D01*
X484610Y200506D01*
X484654Y200582D01*
X484693Y200660D01*
X484729Y200740D01*
X484762Y200821D01*
X484791Y200903D01*
X484816Y200987D01*
X484837Y201072D01*
X484855Y201157D01*
X484868Y201244D01*
X484878Y201330D01*
X484884Y201418D01*
X484886Y201505D01*
X484886Y205400D01*
X484884Y205487D01*
X484878Y205575D01*
X484868Y205661D01*
X484855Y205748D01*
X484837Y205833D01*
X484816Y205918D01*
X484791Y206002D01*
X484762Y206084D01*
X484729Y206165D01*
X484693Y206245D01*
X484654Y206323D01*
X484610Y206399D01*
X484564Y206473D01*
X484514Y206544D01*
X484461Y206614D01*
X484405Y206681D01*
X484346Y206745D01*
X484284Y206807D01*
X484220Y206866D01*
X484153Y206922D01*
X484083Y206975D01*
X484012Y207025D01*
X483938Y207071D01*
X483862Y207115D01*
X483784Y207154D01*
X483704Y207190D01*
X483623Y207223D01*
X483541Y207252D01*
X483457Y207277D01*
X483372Y207298D01*
X483287Y207316D01*
X483200Y207329D01*
X483114Y207339D01*
X483026Y207345D01*
X482939Y207347D01*
X480342Y207347D01*
X476136Y204751D02*
X476136Y202154D01*
X476136Y204751D02*
X476134Y204852D01*
X476128Y204952D01*
X476118Y205052D01*
X476105Y205152D01*
X476087Y205251D01*
X476066Y205350D01*
X476041Y205447D01*
X476012Y205544D01*
X475979Y205639D01*
X475943Y205733D01*
X475903Y205825D01*
X475860Y205916D01*
X475813Y206005D01*
X475763Y206092D01*
X475709Y206178D01*
X475652Y206261D01*
X475592Y206341D01*
X475529Y206420D01*
X475462Y206496D01*
X475393Y206569D01*
X475321Y206639D01*
X475247Y206707D01*
X475170Y206772D01*
X475090Y206833D01*
X475008Y206892D01*
X474924Y206947D01*
X474838Y206999D01*
X474750Y207048D01*
X474660Y207093D01*
X474568Y207135D01*
X474475Y207173D01*
X474380Y207207D01*
X474285Y207238D01*
X474188Y207265D01*
X474090Y207288D01*
X473991Y207308D01*
X473891Y207323D01*
X473791Y207335D01*
X473691Y207343D01*
X473590Y207347D01*
X473490Y207347D01*
X473389Y207343D01*
X473289Y207335D01*
X473189Y207323D01*
X473089Y207308D01*
X472990Y207288D01*
X472892Y207265D01*
X472795Y207238D01*
X472700Y207207D01*
X472605Y207173D01*
X472512Y207135D01*
X472420Y207093D01*
X472330Y207048D01*
X472242Y206999D01*
X472156Y206947D01*
X472072Y206892D01*
X471990Y206833D01*
X471910Y206772D01*
X471833Y206707D01*
X471759Y206639D01*
X471687Y206569D01*
X471618Y206496D01*
X471551Y206420D01*
X471488Y206341D01*
X471428Y206261D01*
X471371Y206178D01*
X471317Y206092D01*
X471267Y206005D01*
X471220Y205916D01*
X471177Y205825D01*
X471137Y205733D01*
X471101Y205639D01*
X471068Y205544D01*
X471039Y205447D01*
X471014Y205350D01*
X470993Y205251D01*
X470975Y205152D01*
X470962Y205052D01*
X470952Y204952D01*
X470946Y204852D01*
X470944Y204751D01*
X470943Y204751D02*
X470943Y202154D01*
X470944Y202154D02*
X470946Y202053D01*
X470952Y201953D01*
X470962Y201853D01*
X470975Y201753D01*
X470993Y201654D01*
X471014Y201555D01*
X471039Y201458D01*
X471068Y201361D01*
X471101Y201266D01*
X471137Y201172D01*
X471177Y201080D01*
X471220Y200989D01*
X471267Y200900D01*
X471317Y200813D01*
X471371Y200727D01*
X471428Y200644D01*
X471488Y200564D01*
X471551Y200485D01*
X471618Y200409D01*
X471687Y200336D01*
X471759Y200266D01*
X471833Y200198D01*
X471910Y200133D01*
X471990Y200072D01*
X472072Y200013D01*
X472156Y199958D01*
X472242Y199906D01*
X472330Y199857D01*
X472420Y199812D01*
X472512Y199770D01*
X472605Y199732D01*
X472700Y199698D01*
X472795Y199667D01*
X472892Y199640D01*
X472990Y199617D01*
X473089Y199597D01*
X473189Y199582D01*
X473289Y199570D01*
X473389Y199562D01*
X473490Y199558D01*
X473590Y199558D01*
X473691Y199562D01*
X473791Y199570D01*
X473891Y199582D01*
X473991Y199597D01*
X474090Y199617D01*
X474188Y199640D01*
X474285Y199667D01*
X474380Y199698D01*
X474475Y199732D01*
X474568Y199770D01*
X474660Y199812D01*
X474750Y199857D01*
X474838Y199906D01*
X474924Y199958D01*
X475008Y200013D01*
X475090Y200072D01*
X475170Y200133D01*
X475247Y200198D01*
X475321Y200266D01*
X475393Y200336D01*
X475462Y200409D01*
X475529Y200485D01*
X475592Y200564D01*
X475652Y200644D01*
X475709Y200727D01*
X475763Y200813D01*
X475813Y200900D01*
X475860Y200989D01*
X475903Y201080D01*
X475943Y201172D01*
X475979Y201266D01*
X476012Y201361D01*
X476041Y201458D01*
X476066Y201555D01*
X476087Y201654D01*
X476105Y201753D01*
X476118Y201853D01*
X476128Y201953D01*
X476134Y202053D01*
X476136Y202154D01*
X799492Y192192D02*
X799492Y180508D01*
X799492Y192192D02*
X796246Y192192D01*
X796133Y192190D01*
X796020Y192184D01*
X795907Y192174D01*
X795794Y192160D01*
X795682Y192143D01*
X795571Y192121D01*
X795461Y192096D01*
X795351Y192066D01*
X795243Y192033D01*
X795136Y191996D01*
X795030Y191956D01*
X794926Y191911D01*
X794823Y191863D01*
X794722Y191812D01*
X794623Y191757D01*
X794526Y191699D01*
X794431Y191637D01*
X794338Y191572D01*
X794248Y191504D01*
X794160Y191433D01*
X794074Y191358D01*
X793991Y191281D01*
X793911Y191201D01*
X793834Y191118D01*
X793759Y191032D01*
X793688Y190944D01*
X793620Y190854D01*
X793555Y190761D01*
X793493Y190666D01*
X793435Y190569D01*
X793380Y190470D01*
X793329Y190369D01*
X793281Y190266D01*
X793236Y190162D01*
X793196Y190056D01*
X793159Y189949D01*
X793126Y189841D01*
X793096Y189731D01*
X793071Y189621D01*
X793049Y189510D01*
X793032Y189398D01*
X793018Y189285D01*
X793008Y189172D01*
X793002Y189059D01*
X793000Y188946D01*
X793002Y188833D01*
X793008Y188720D01*
X793018Y188607D01*
X793032Y188494D01*
X793049Y188382D01*
X793071Y188271D01*
X793096Y188161D01*
X793126Y188051D01*
X793159Y187943D01*
X793196Y187836D01*
X793236Y187730D01*
X793281Y187626D01*
X793329Y187523D01*
X793380Y187422D01*
X793435Y187323D01*
X793493Y187226D01*
X793555Y187131D01*
X793620Y187038D01*
X793688Y186948D01*
X793759Y186860D01*
X793834Y186774D01*
X793911Y186691D01*
X793991Y186611D01*
X794074Y186534D01*
X794160Y186459D01*
X794248Y186388D01*
X794338Y186320D01*
X794431Y186255D01*
X794526Y186193D01*
X794623Y186135D01*
X794722Y186080D01*
X794823Y186029D01*
X794926Y185981D01*
X795030Y185936D01*
X795136Y185896D01*
X795243Y185859D01*
X795351Y185826D01*
X795461Y185796D01*
X795571Y185771D01*
X795682Y185749D01*
X795794Y185732D01*
X795907Y185718D01*
X796020Y185708D01*
X796133Y185702D01*
X796246Y185700D01*
X796246Y185701D02*
X799492Y185701D01*
X788278Y188297D02*
X788278Y180508D01*
X788278Y188297D02*
X784383Y188297D01*
X784383Y186999D01*
X780724Y185701D02*
X780724Y183104D01*
X780724Y185701D02*
X780722Y185802D01*
X780716Y185902D01*
X780706Y186002D01*
X780693Y186102D01*
X780675Y186201D01*
X780654Y186300D01*
X780629Y186397D01*
X780600Y186494D01*
X780567Y186589D01*
X780531Y186683D01*
X780491Y186775D01*
X780448Y186866D01*
X780401Y186955D01*
X780351Y187042D01*
X780297Y187128D01*
X780240Y187211D01*
X780180Y187291D01*
X780117Y187370D01*
X780050Y187446D01*
X779981Y187519D01*
X779909Y187589D01*
X779835Y187657D01*
X779758Y187722D01*
X779678Y187783D01*
X779596Y187842D01*
X779512Y187897D01*
X779426Y187949D01*
X779338Y187998D01*
X779248Y188043D01*
X779156Y188085D01*
X779063Y188123D01*
X778968Y188157D01*
X778873Y188188D01*
X778776Y188215D01*
X778678Y188238D01*
X778579Y188258D01*
X778479Y188273D01*
X778379Y188285D01*
X778279Y188293D01*
X778178Y188297D01*
X778078Y188297D01*
X777977Y188293D01*
X777877Y188285D01*
X777777Y188273D01*
X777677Y188258D01*
X777578Y188238D01*
X777480Y188215D01*
X777383Y188188D01*
X777288Y188157D01*
X777193Y188123D01*
X777100Y188085D01*
X777008Y188043D01*
X776918Y187998D01*
X776830Y187949D01*
X776744Y187897D01*
X776660Y187842D01*
X776578Y187783D01*
X776498Y187722D01*
X776421Y187657D01*
X776347Y187589D01*
X776275Y187519D01*
X776206Y187446D01*
X776139Y187370D01*
X776076Y187291D01*
X776016Y187211D01*
X775959Y187128D01*
X775905Y187042D01*
X775855Y186955D01*
X775808Y186866D01*
X775765Y186775D01*
X775725Y186683D01*
X775689Y186589D01*
X775656Y186494D01*
X775627Y186397D01*
X775602Y186300D01*
X775581Y186201D01*
X775563Y186102D01*
X775550Y186002D01*
X775540Y185902D01*
X775534Y185802D01*
X775532Y185701D01*
X775531Y185701D02*
X775531Y183104D01*
X775532Y183104D02*
X775534Y183003D01*
X775540Y182903D01*
X775550Y182803D01*
X775563Y182703D01*
X775581Y182604D01*
X775602Y182505D01*
X775627Y182408D01*
X775656Y182311D01*
X775689Y182216D01*
X775725Y182122D01*
X775765Y182030D01*
X775808Y181939D01*
X775855Y181850D01*
X775905Y181763D01*
X775959Y181677D01*
X776016Y181594D01*
X776076Y181514D01*
X776139Y181435D01*
X776206Y181359D01*
X776275Y181286D01*
X776347Y181216D01*
X776421Y181148D01*
X776498Y181083D01*
X776578Y181022D01*
X776660Y180963D01*
X776744Y180908D01*
X776830Y180856D01*
X776918Y180807D01*
X777008Y180762D01*
X777100Y180720D01*
X777193Y180682D01*
X777288Y180648D01*
X777383Y180617D01*
X777480Y180590D01*
X777578Y180567D01*
X777677Y180547D01*
X777777Y180532D01*
X777877Y180520D01*
X777977Y180512D01*
X778078Y180508D01*
X778178Y180508D01*
X778279Y180512D01*
X778379Y180520D01*
X778479Y180532D01*
X778579Y180547D01*
X778678Y180567D01*
X778776Y180590D01*
X778873Y180617D01*
X778968Y180648D01*
X779063Y180682D01*
X779156Y180720D01*
X779248Y180762D01*
X779338Y180807D01*
X779426Y180856D01*
X779512Y180908D01*
X779596Y180963D01*
X779678Y181022D01*
X779758Y181083D01*
X779835Y181148D01*
X779909Y181216D01*
X779981Y181286D01*
X780050Y181359D01*
X780117Y181435D01*
X780180Y181514D01*
X780240Y181594D01*
X780297Y181677D01*
X780351Y181763D01*
X780401Y181850D01*
X780448Y181939D01*
X780491Y182030D01*
X780531Y182122D01*
X780567Y182216D01*
X780600Y182311D01*
X780629Y182408D01*
X780654Y182505D01*
X780675Y182604D01*
X780693Y182703D01*
X780706Y182803D01*
X780716Y182903D01*
X780722Y183003D01*
X780724Y183104D01*
X771086Y178561D02*
X771086Y188297D01*
X771087Y178561D02*
X771089Y178474D01*
X771095Y178386D01*
X771105Y178300D01*
X771118Y178213D01*
X771136Y178128D01*
X771157Y178043D01*
X771182Y177959D01*
X771211Y177877D01*
X771244Y177796D01*
X771280Y177716D01*
X771319Y177638D01*
X771363Y177562D01*
X771409Y177488D01*
X771459Y177417D01*
X771512Y177347D01*
X771568Y177280D01*
X771627Y177216D01*
X771689Y177154D01*
X771753Y177095D01*
X771820Y177039D01*
X771890Y176986D01*
X771961Y176936D01*
X772035Y176890D01*
X772111Y176846D01*
X772189Y176807D01*
X772269Y176771D01*
X772350Y176738D01*
X772432Y176709D01*
X772516Y176684D01*
X772601Y176663D01*
X772686Y176645D01*
X772773Y176632D01*
X772859Y176622D01*
X772947Y176616D01*
X773034Y176614D01*
X773034Y176613D02*
X773683Y176613D01*
X771411Y191543D02*
X771411Y192192D01*
X770762Y192192D01*
X770762Y191543D01*
X771411Y191543D01*
X764299Y180508D02*
X761053Y180508D01*
X764299Y180508D02*
X764386Y180510D01*
X764474Y180516D01*
X764560Y180526D01*
X764647Y180539D01*
X764732Y180557D01*
X764817Y180578D01*
X764901Y180603D01*
X764983Y180632D01*
X765064Y180665D01*
X765144Y180701D01*
X765222Y180740D01*
X765298Y180784D01*
X765372Y180830D01*
X765443Y180880D01*
X765513Y180933D01*
X765580Y180989D01*
X765644Y181048D01*
X765706Y181110D01*
X765765Y181174D01*
X765821Y181241D01*
X765874Y181311D01*
X765924Y181382D01*
X765970Y181456D01*
X766014Y181532D01*
X766053Y181610D01*
X766089Y181690D01*
X766122Y181771D01*
X766151Y181853D01*
X766176Y181937D01*
X766197Y182022D01*
X766215Y182107D01*
X766228Y182194D01*
X766238Y182280D01*
X766244Y182368D01*
X766246Y182455D01*
X766246Y185701D01*
X766244Y185802D01*
X766238Y185902D01*
X766228Y186002D01*
X766215Y186102D01*
X766197Y186201D01*
X766176Y186300D01*
X766151Y186397D01*
X766122Y186494D01*
X766089Y186589D01*
X766053Y186683D01*
X766013Y186775D01*
X765970Y186866D01*
X765923Y186955D01*
X765873Y187042D01*
X765819Y187128D01*
X765762Y187211D01*
X765702Y187291D01*
X765639Y187370D01*
X765572Y187446D01*
X765503Y187519D01*
X765431Y187589D01*
X765357Y187657D01*
X765280Y187722D01*
X765200Y187783D01*
X765118Y187842D01*
X765034Y187897D01*
X764948Y187949D01*
X764860Y187998D01*
X764770Y188043D01*
X764678Y188085D01*
X764585Y188123D01*
X764490Y188157D01*
X764395Y188188D01*
X764298Y188215D01*
X764200Y188238D01*
X764101Y188258D01*
X764001Y188273D01*
X763901Y188285D01*
X763801Y188293D01*
X763700Y188297D01*
X763600Y188297D01*
X763499Y188293D01*
X763399Y188285D01*
X763299Y188273D01*
X763199Y188258D01*
X763100Y188238D01*
X763002Y188215D01*
X762905Y188188D01*
X762810Y188157D01*
X762715Y188123D01*
X762622Y188085D01*
X762530Y188043D01*
X762440Y187998D01*
X762352Y187949D01*
X762266Y187897D01*
X762182Y187842D01*
X762100Y187783D01*
X762020Y187722D01*
X761943Y187657D01*
X761869Y187589D01*
X761797Y187519D01*
X761728Y187446D01*
X761661Y187370D01*
X761598Y187291D01*
X761538Y187211D01*
X761481Y187128D01*
X761427Y187042D01*
X761377Y186955D01*
X761330Y186866D01*
X761287Y186775D01*
X761247Y186683D01*
X761211Y186589D01*
X761178Y186494D01*
X761149Y186397D01*
X761124Y186300D01*
X761103Y186201D01*
X761085Y186102D01*
X761072Y186002D01*
X761062Y185902D01*
X761056Y185802D01*
X761054Y185701D01*
X761053Y185701D02*
X761053Y184403D01*
X766246Y184403D01*
X757308Y188297D02*
X753413Y188297D01*
X756009Y192192D02*
X756009Y182455D01*
X756007Y182368D01*
X756001Y182280D01*
X755991Y182194D01*
X755978Y182107D01*
X755960Y182022D01*
X755939Y181937D01*
X755914Y181853D01*
X755885Y181771D01*
X755852Y181690D01*
X755816Y181610D01*
X755777Y181532D01*
X755733Y181456D01*
X755687Y181382D01*
X755637Y181311D01*
X755584Y181241D01*
X755528Y181174D01*
X755469Y181110D01*
X755407Y181048D01*
X755343Y180989D01*
X755276Y180933D01*
X755206Y180880D01*
X755135Y180830D01*
X755061Y180784D01*
X754985Y180740D01*
X754907Y180701D01*
X754827Y180665D01*
X754746Y180632D01*
X754664Y180603D01*
X754580Y180578D01*
X754495Y180557D01*
X754410Y180539D01*
X754323Y180526D01*
X754237Y180516D01*
X754149Y180510D01*
X754062Y180508D01*
X753413Y180508D01*
X749101Y183104D02*
X749101Y185701D01*
X749099Y185802D01*
X749093Y185902D01*
X749083Y186002D01*
X749070Y186102D01*
X749052Y186201D01*
X749031Y186300D01*
X749006Y186397D01*
X748977Y186494D01*
X748944Y186589D01*
X748908Y186683D01*
X748868Y186775D01*
X748825Y186866D01*
X748778Y186955D01*
X748728Y187042D01*
X748674Y187128D01*
X748617Y187211D01*
X748557Y187291D01*
X748494Y187370D01*
X748427Y187446D01*
X748358Y187519D01*
X748286Y187589D01*
X748212Y187657D01*
X748135Y187722D01*
X748055Y187783D01*
X747973Y187842D01*
X747889Y187897D01*
X747803Y187949D01*
X747715Y187998D01*
X747625Y188043D01*
X747533Y188085D01*
X747440Y188123D01*
X747345Y188157D01*
X747250Y188188D01*
X747153Y188215D01*
X747055Y188238D01*
X746956Y188258D01*
X746856Y188273D01*
X746756Y188285D01*
X746656Y188293D01*
X746555Y188297D01*
X746455Y188297D01*
X746354Y188293D01*
X746254Y188285D01*
X746154Y188273D01*
X746054Y188258D01*
X745955Y188238D01*
X745857Y188215D01*
X745760Y188188D01*
X745665Y188157D01*
X745570Y188123D01*
X745477Y188085D01*
X745385Y188043D01*
X745295Y187998D01*
X745207Y187949D01*
X745121Y187897D01*
X745037Y187842D01*
X744955Y187783D01*
X744875Y187722D01*
X744798Y187657D01*
X744724Y187589D01*
X744652Y187519D01*
X744583Y187446D01*
X744516Y187370D01*
X744453Y187291D01*
X744393Y187211D01*
X744336Y187128D01*
X744282Y187042D01*
X744232Y186955D01*
X744185Y186866D01*
X744142Y186775D01*
X744102Y186683D01*
X744066Y186589D01*
X744033Y186494D01*
X744004Y186397D01*
X743979Y186300D01*
X743958Y186201D01*
X743940Y186102D01*
X743927Y186002D01*
X743917Y185902D01*
X743911Y185802D01*
X743909Y185701D01*
X743908Y185701D02*
X743908Y183104D01*
X743909Y183104D02*
X743911Y183003D01*
X743917Y182903D01*
X743927Y182803D01*
X743940Y182703D01*
X743958Y182604D01*
X743979Y182505D01*
X744004Y182408D01*
X744033Y182311D01*
X744066Y182216D01*
X744102Y182122D01*
X744142Y182030D01*
X744185Y181939D01*
X744232Y181850D01*
X744282Y181763D01*
X744336Y181677D01*
X744393Y181594D01*
X744453Y181514D01*
X744516Y181435D01*
X744583Y181359D01*
X744652Y181286D01*
X744724Y181216D01*
X744798Y181148D01*
X744875Y181083D01*
X744955Y181022D01*
X745037Y180963D01*
X745121Y180908D01*
X745207Y180856D01*
X745295Y180807D01*
X745385Y180762D01*
X745477Y180720D01*
X745570Y180682D01*
X745665Y180648D01*
X745760Y180617D01*
X745857Y180590D01*
X745955Y180567D01*
X746054Y180547D01*
X746154Y180532D01*
X746254Y180520D01*
X746354Y180512D01*
X746455Y180508D01*
X746555Y180508D01*
X746656Y180512D01*
X746756Y180520D01*
X746856Y180532D01*
X746956Y180547D01*
X747055Y180567D01*
X747153Y180590D01*
X747250Y180617D01*
X747345Y180648D01*
X747440Y180682D01*
X747533Y180720D01*
X747625Y180762D01*
X747715Y180807D01*
X747803Y180856D01*
X747889Y180908D01*
X747973Y180963D01*
X748055Y181022D01*
X748135Y181083D01*
X748212Y181148D01*
X748286Y181216D01*
X748358Y181286D01*
X748427Y181359D01*
X748494Y181435D01*
X748557Y181514D01*
X748617Y181594D01*
X748674Y181677D01*
X748728Y181763D01*
X748778Y181850D01*
X748825Y181939D01*
X748868Y182030D01*
X748908Y182122D01*
X748944Y182216D01*
X748977Y182311D01*
X749006Y182408D01*
X749031Y182505D01*
X749052Y182604D01*
X749070Y182703D01*
X749083Y182803D01*
X749093Y182903D01*
X749099Y183003D01*
X749101Y183104D01*
X729473Y180508D02*
X729374Y180510D01*
X729274Y180516D01*
X729175Y180525D01*
X729077Y180538D01*
X728979Y180555D01*
X728881Y180576D01*
X728785Y180601D01*
X728690Y180629D01*
X728596Y180661D01*
X728503Y180696D01*
X728411Y180735D01*
X728321Y180778D01*
X728233Y180823D01*
X728146Y180873D01*
X728062Y180925D01*
X727979Y180981D01*
X727899Y181039D01*
X727821Y181101D01*
X727746Y181166D01*
X727673Y181234D01*
X727603Y181304D01*
X727535Y181377D01*
X727470Y181452D01*
X727408Y181530D01*
X727350Y181610D01*
X727294Y181693D01*
X727242Y181777D01*
X727192Y181864D01*
X727147Y181952D01*
X727104Y182042D01*
X727065Y182134D01*
X727030Y182227D01*
X726998Y182321D01*
X726970Y182416D01*
X726945Y182512D01*
X726924Y182610D01*
X726907Y182708D01*
X726894Y182806D01*
X726885Y182905D01*
X726879Y183005D01*
X726877Y183104D01*
X729473Y180508D02*
X729617Y180510D01*
X729762Y180516D01*
X729906Y180525D01*
X730049Y180538D01*
X730193Y180555D01*
X730336Y180576D01*
X730478Y180601D01*
X730619Y180629D01*
X730760Y180661D01*
X730900Y180697D01*
X731039Y180736D01*
X731177Y180779D01*
X731313Y180826D01*
X731449Y180876D01*
X731583Y180930D01*
X731715Y180987D01*
X731846Y181048D01*
X731975Y181112D01*
X732103Y181180D01*
X732229Y181251D01*
X732353Y181325D01*
X732474Y181402D01*
X732594Y181483D01*
X732712Y181566D01*
X732827Y181653D01*
X732940Y181743D01*
X733051Y181836D01*
X733159Y181931D01*
X733265Y182030D01*
X733368Y182131D01*
X733042Y189596D02*
X733040Y189695D01*
X733034Y189795D01*
X733025Y189894D01*
X733012Y189992D01*
X732995Y190090D01*
X732974Y190188D01*
X732949Y190284D01*
X732921Y190379D01*
X732889Y190473D01*
X732854Y190566D01*
X732815Y190658D01*
X732772Y190748D01*
X732727Y190836D01*
X732677Y190923D01*
X732625Y191007D01*
X732569Y191090D01*
X732511Y191170D01*
X732449Y191248D01*
X732384Y191323D01*
X732316Y191396D01*
X732246Y191466D01*
X732173Y191534D01*
X732098Y191599D01*
X732020Y191661D01*
X731940Y191719D01*
X731857Y191775D01*
X731773Y191827D01*
X731686Y191877D01*
X731598Y191922D01*
X731508Y191965D01*
X731416Y192004D01*
X731323Y192039D01*
X731229Y192071D01*
X731134Y192099D01*
X731038Y192124D01*
X730940Y192145D01*
X730842Y192162D01*
X730744Y192175D01*
X730645Y192184D01*
X730545Y192190D01*
X730446Y192192D01*
X730310Y192190D01*
X730174Y192184D01*
X730038Y192175D01*
X729902Y192162D01*
X729767Y192144D01*
X729633Y192124D01*
X729499Y192099D01*
X729365Y192071D01*
X729233Y192038D01*
X729102Y192003D01*
X728971Y191963D01*
X728842Y191920D01*
X728714Y191874D01*
X728588Y191823D01*
X728462Y191770D01*
X728339Y191712D01*
X728217Y191652D01*
X728097Y191588D01*
X727978Y191520D01*
X727862Y191450D01*
X727748Y191376D01*
X727635Y191299D01*
X727525Y191218D01*
X731745Y187324D02*
X731831Y187377D01*
X731915Y187434D01*
X731997Y187493D01*
X732077Y187556D01*
X732154Y187622D01*
X732229Y187690D01*
X732301Y187762D01*
X732370Y187836D01*
X732436Y187913D01*
X732499Y187992D01*
X732559Y188074D01*
X732616Y188158D01*
X732670Y188244D01*
X732720Y188332D01*
X732767Y188422D01*
X732811Y188513D01*
X732850Y188607D01*
X732887Y188701D01*
X732919Y188797D01*
X732948Y188895D01*
X732973Y188993D01*
X732994Y189092D01*
X733012Y189192D01*
X733025Y189292D01*
X733035Y189393D01*
X733041Y189495D01*
X733043Y189596D01*
X728174Y185376D02*
X728088Y185323D01*
X728004Y185266D01*
X727922Y185207D01*
X727842Y185144D01*
X727765Y185078D01*
X727690Y185010D01*
X727618Y184938D01*
X727549Y184864D01*
X727483Y184787D01*
X727420Y184708D01*
X727360Y184626D01*
X727303Y184542D01*
X727249Y184456D01*
X727199Y184368D01*
X727152Y184278D01*
X727108Y184187D01*
X727069Y184093D01*
X727032Y183999D01*
X727000Y183903D01*
X726971Y183805D01*
X726946Y183707D01*
X726925Y183608D01*
X726907Y183508D01*
X726894Y183408D01*
X726884Y183307D01*
X726878Y183205D01*
X726876Y183104D01*
X728175Y185376D02*
X731745Y187324D01*
X722431Y185701D02*
X722431Y183104D01*
X722431Y185701D02*
X722429Y185802D01*
X722423Y185902D01*
X722413Y186002D01*
X722400Y186102D01*
X722382Y186201D01*
X722361Y186300D01*
X722336Y186397D01*
X722307Y186494D01*
X722274Y186589D01*
X722238Y186683D01*
X722198Y186775D01*
X722155Y186866D01*
X722108Y186955D01*
X722058Y187042D01*
X722004Y187128D01*
X721947Y187211D01*
X721887Y187291D01*
X721824Y187370D01*
X721757Y187446D01*
X721688Y187519D01*
X721616Y187589D01*
X721542Y187657D01*
X721465Y187722D01*
X721385Y187783D01*
X721303Y187842D01*
X721219Y187897D01*
X721133Y187949D01*
X721045Y187998D01*
X720955Y188043D01*
X720863Y188085D01*
X720770Y188123D01*
X720675Y188157D01*
X720580Y188188D01*
X720483Y188215D01*
X720385Y188238D01*
X720286Y188258D01*
X720186Y188273D01*
X720086Y188285D01*
X719986Y188293D01*
X719885Y188297D01*
X719785Y188297D01*
X719684Y188293D01*
X719584Y188285D01*
X719484Y188273D01*
X719384Y188258D01*
X719285Y188238D01*
X719187Y188215D01*
X719090Y188188D01*
X718995Y188157D01*
X718900Y188123D01*
X718807Y188085D01*
X718715Y188043D01*
X718625Y187998D01*
X718537Y187949D01*
X718451Y187897D01*
X718367Y187842D01*
X718285Y187783D01*
X718205Y187722D01*
X718128Y187657D01*
X718054Y187589D01*
X717982Y187519D01*
X717913Y187446D01*
X717846Y187370D01*
X717783Y187291D01*
X717723Y187211D01*
X717666Y187128D01*
X717612Y187042D01*
X717562Y186955D01*
X717515Y186866D01*
X717472Y186775D01*
X717432Y186683D01*
X717396Y186589D01*
X717363Y186494D01*
X717334Y186397D01*
X717309Y186300D01*
X717288Y186201D01*
X717270Y186102D01*
X717257Y186002D01*
X717247Y185902D01*
X717241Y185802D01*
X717239Y185701D01*
X717238Y185701D02*
X717238Y183104D01*
X717239Y183104D02*
X717241Y183003D01*
X717247Y182903D01*
X717257Y182803D01*
X717270Y182703D01*
X717288Y182604D01*
X717309Y182505D01*
X717334Y182408D01*
X717363Y182311D01*
X717396Y182216D01*
X717432Y182122D01*
X717472Y182030D01*
X717515Y181939D01*
X717562Y181850D01*
X717612Y181763D01*
X717666Y181677D01*
X717723Y181594D01*
X717783Y181514D01*
X717846Y181435D01*
X717913Y181359D01*
X717982Y181286D01*
X718054Y181216D01*
X718128Y181148D01*
X718205Y181083D01*
X718285Y181022D01*
X718367Y180963D01*
X718451Y180908D01*
X718537Y180856D01*
X718625Y180807D01*
X718715Y180762D01*
X718807Y180720D01*
X718900Y180682D01*
X718995Y180648D01*
X719090Y180617D01*
X719187Y180590D01*
X719285Y180567D01*
X719384Y180547D01*
X719484Y180532D01*
X719584Y180520D01*
X719684Y180512D01*
X719785Y180508D01*
X719885Y180508D01*
X719986Y180512D01*
X720086Y180520D01*
X720186Y180532D01*
X720286Y180547D01*
X720385Y180567D01*
X720483Y180590D01*
X720580Y180617D01*
X720675Y180648D01*
X720770Y180682D01*
X720863Y180720D01*
X720955Y180762D01*
X721045Y180807D01*
X721133Y180856D01*
X721219Y180908D01*
X721303Y180963D01*
X721385Y181022D01*
X721465Y181083D01*
X721542Y181148D01*
X721616Y181216D01*
X721688Y181286D01*
X721757Y181359D01*
X721824Y181435D01*
X721887Y181514D01*
X721947Y181594D01*
X722004Y181677D01*
X722058Y181763D01*
X722108Y181850D01*
X722155Y181939D01*
X722198Y182030D01*
X722238Y182122D01*
X722274Y182216D01*
X722307Y182311D01*
X722336Y182408D01*
X722361Y182505D01*
X722382Y182604D01*
X722400Y182703D01*
X722413Y182803D01*
X722423Y182903D01*
X722429Y183003D01*
X722431Y183104D01*
X712376Y182455D02*
X712376Y192192D01*
X712375Y182455D02*
X712373Y182368D01*
X712367Y182280D01*
X712357Y182194D01*
X712344Y182107D01*
X712326Y182022D01*
X712305Y181937D01*
X712280Y181853D01*
X712251Y181771D01*
X712218Y181690D01*
X712182Y181610D01*
X712143Y181532D01*
X712099Y181456D01*
X712053Y181382D01*
X712003Y181311D01*
X711950Y181241D01*
X711894Y181174D01*
X711835Y181110D01*
X711773Y181048D01*
X711709Y180989D01*
X711642Y180933D01*
X711572Y180880D01*
X711501Y180830D01*
X711427Y180784D01*
X711351Y180740D01*
X711273Y180701D01*
X711193Y180665D01*
X711112Y180632D01*
X711030Y180603D01*
X710946Y180578D01*
X710861Y180557D01*
X710776Y180539D01*
X710689Y180526D01*
X710603Y180516D01*
X710515Y180510D01*
X710428Y180508D01*
X704216Y185052D02*
X701295Y185052D01*
X704216Y185052D02*
X704310Y185050D01*
X704404Y185044D01*
X704497Y185035D01*
X704590Y185021D01*
X704682Y185004D01*
X704774Y184982D01*
X704864Y184958D01*
X704954Y184929D01*
X705042Y184897D01*
X705129Y184861D01*
X705214Y184821D01*
X705297Y184778D01*
X705379Y184732D01*
X705459Y184682D01*
X705536Y184629D01*
X705611Y184573D01*
X705684Y184514D01*
X705755Y184452D01*
X705823Y184387D01*
X705888Y184319D01*
X705950Y184248D01*
X706009Y184175D01*
X706065Y184100D01*
X706118Y184023D01*
X706168Y183943D01*
X706214Y183861D01*
X706257Y183778D01*
X706297Y183693D01*
X706333Y183606D01*
X706365Y183518D01*
X706394Y183428D01*
X706418Y183338D01*
X706440Y183246D01*
X706457Y183154D01*
X706471Y183061D01*
X706480Y182968D01*
X706486Y182874D01*
X706488Y182780D01*
X706486Y182686D01*
X706480Y182592D01*
X706471Y182499D01*
X706457Y182406D01*
X706440Y182314D01*
X706418Y182222D01*
X706394Y182132D01*
X706365Y182042D01*
X706333Y181954D01*
X706297Y181867D01*
X706257Y181782D01*
X706214Y181699D01*
X706168Y181617D01*
X706118Y181537D01*
X706065Y181460D01*
X706009Y181385D01*
X705950Y181312D01*
X705888Y181241D01*
X705823Y181173D01*
X705755Y181108D01*
X705684Y181046D01*
X705611Y180987D01*
X705536Y180931D01*
X705459Y180878D01*
X705379Y180828D01*
X705297Y180782D01*
X705214Y180739D01*
X705129Y180699D01*
X705042Y180663D01*
X704954Y180631D01*
X704864Y180602D01*
X704774Y180578D01*
X704682Y180556D01*
X704590Y180539D01*
X704497Y180525D01*
X704404Y180516D01*
X704310Y180510D01*
X704216Y180508D01*
X701295Y180508D01*
X701295Y186350D01*
X701296Y186350D02*
X701298Y186437D01*
X701304Y186525D01*
X701314Y186611D01*
X701327Y186698D01*
X701345Y186783D01*
X701366Y186868D01*
X701391Y186952D01*
X701420Y187034D01*
X701453Y187115D01*
X701489Y187195D01*
X701528Y187273D01*
X701572Y187349D01*
X701618Y187423D01*
X701668Y187494D01*
X701721Y187564D01*
X701777Y187631D01*
X701836Y187696D01*
X701898Y187757D01*
X701962Y187816D01*
X702029Y187872D01*
X702099Y187925D01*
X702170Y187975D01*
X702244Y188021D01*
X702320Y188065D01*
X702398Y188104D01*
X702478Y188140D01*
X702559Y188173D01*
X702641Y188202D01*
X702725Y188227D01*
X702810Y188248D01*
X702895Y188266D01*
X702982Y188279D01*
X703069Y188289D01*
X703156Y188295D01*
X703243Y188297D01*
X705839Y188297D01*
X695695Y188297D02*
X695695Y180508D01*
X695695Y188297D02*
X691800Y188297D01*
X691800Y186999D01*
X686194Y180508D02*
X682949Y180508D01*
X686194Y180508D02*
X686281Y180510D01*
X686369Y180516D01*
X686455Y180526D01*
X686542Y180539D01*
X686627Y180557D01*
X686712Y180578D01*
X686796Y180603D01*
X686878Y180632D01*
X686959Y180665D01*
X687039Y180701D01*
X687117Y180740D01*
X687193Y180784D01*
X687267Y180830D01*
X687338Y180880D01*
X687408Y180933D01*
X687475Y180989D01*
X687539Y181048D01*
X687601Y181110D01*
X687660Y181174D01*
X687716Y181241D01*
X687769Y181311D01*
X687819Y181382D01*
X687865Y181456D01*
X687909Y181532D01*
X687948Y181610D01*
X687984Y181690D01*
X688017Y181771D01*
X688046Y181853D01*
X688071Y181937D01*
X688092Y182022D01*
X688110Y182107D01*
X688123Y182194D01*
X688133Y182280D01*
X688139Y182368D01*
X688141Y182455D01*
X688141Y185701D01*
X688139Y185802D01*
X688133Y185902D01*
X688123Y186002D01*
X688110Y186102D01*
X688092Y186201D01*
X688071Y186300D01*
X688046Y186397D01*
X688017Y186494D01*
X687984Y186589D01*
X687948Y186683D01*
X687908Y186775D01*
X687865Y186866D01*
X687818Y186955D01*
X687768Y187042D01*
X687714Y187128D01*
X687657Y187211D01*
X687597Y187291D01*
X687534Y187370D01*
X687467Y187446D01*
X687398Y187519D01*
X687326Y187589D01*
X687252Y187657D01*
X687175Y187722D01*
X687095Y187783D01*
X687013Y187842D01*
X686929Y187897D01*
X686843Y187949D01*
X686755Y187998D01*
X686665Y188043D01*
X686573Y188085D01*
X686480Y188123D01*
X686385Y188157D01*
X686290Y188188D01*
X686193Y188215D01*
X686095Y188238D01*
X685996Y188258D01*
X685896Y188273D01*
X685796Y188285D01*
X685696Y188293D01*
X685595Y188297D01*
X685495Y188297D01*
X685394Y188293D01*
X685294Y188285D01*
X685194Y188273D01*
X685094Y188258D01*
X684995Y188238D01*
X684897Y188215D01*
X684800Y188188D01*
X684705Y188157D01*
X684610Y188123D01*
X684517Y188085D01*
X684425Y188043D01*
X684335Y187998D01*
X684247Y187949D01*
X684161Y187897D01*
X684077Y187842D01*
X683995Y187783D01*
X683915Y187722D01*
X683838Y187657D01*
X683764Y187589D01*
X683692Y187519D01*
X683623Y187446D01*
X683556Y187370D01*
X683493Y187291D01*
X683433Y187211D01*
X683376Y187128D01*
X683322Y187042D01*
X683272Y186955D01*
X683225Y186866D01*
X683182Y186775D01*
X683142Y186683D01*
X683106Y186589D01*
X683073Y186494D01*
X683044Y186397D01*
X683019Y186300D01*
X682998Y186201D01*
X682980Y186102D01*
X682967Y186002D01*
X682957Y185902D01*
X682951Y185802D01*
X682949Y185701D01*
X682949Y184403D01*
X688141Y184403D01*
X677262Y185052D02*
X674016Y183754D01*
X677262Y185051D02*
X677337Y185084D01*
X677411Y185120D01*
X677483Y185159D01*
X677553Y185202D01*
X677620Y185248D01*
X677686Y185298D01*
X677748Y185350D01*
X677809Y185406D01*
X677866Y185464D01*
X677921Y185525D01*
X677972Y185589D01*
X678020Y185655D01*
X678065Y185724D01*
X678107Y185794D01*
X678145Y185867D01*
X678180Y185941D01*
X678211Y186017D01*
X678238Y186094D01*
X678261Y186173D01*
X678281Y186252D01*
X678296Y186333D01*
X678308Y186414D01*
X678316Y186496D01*
X678320Y186577D01*
X678319Y186659D01*
X678315Y186741D01*
X678307Y186823D01*
X678295Y186904D01*
X678279Y186984D01*
X678259Y187064D01*
X678235Y187142D01*
X678207Y187219D01*
X678176Y187295D01*
X678141Y187369D01*
X678103Y187441D01*
X678061Y187512D01*
X678015Y187580D01*
X677967Y187646D01*
X677915Y187709D01*
X677860Y187770D01*
X677802Y187828D01*
X677742Y187884D01*
X677679Y187936D01*
X677613Y187985D01*
X677545Y188031D01*
X677475Y188073D01*
X677403Y188113D01*
X677329Y188148D01*
X677254Y188180D01*
X677177Y188208D01*
X677099Y188232D01*
X677019Y188253D01*
X676939Y188270D01*
X676858Y188282D01*
X676777Y188291D01*
X676695Y188296D01*
X676613Y188297D01*
X676436Y188293D01*
X676259Y188284D01*
X676082Y188270D01*
X675905Y188253D01*
X675730Y188231D01*
X675554Y188206D01*
X675380Y188175D01*
X675206Y188141D01*
X675033Y188103D01*
X674861Y188060D01*
X674690Y188013D01*
X674520Y187963D01*
X674351Y187908D01*
X674184Y187849D01*
X674019Y187786D01*
X673854Y187719D01*
X673692Y187648D01*
X674016Y183754D02*
X673941Y183721D01*
X673867Y183685D01*
X673795Y183646D01*
X673725Y183603D01*
X673658Y183557D01*
X673592Y183507D01*
X673530Y183455D01*
X673469Y183399D01*
X673412Y183341D01*
X673357Y183280D01*
X673306Y183216D01*
X673258Y183150D01*
X673213Y183081D01*
X673171Y183011D01*
X673133Y182938D01*
X673098Y182864D01*
X673067Y182788D01*
X673040Y182711D01*
X673017Y182632D01*
X672997Y182553D01*
X672982Y182472D01*
X672970Y182391D01*
X672962Y182309D01*
X672958Y182228D01*
X672959Y182146D01*
X672963Y182064D01*
X672971Y181982D01*
X672983Y181901D01*
X672999Y181821D01*
X673019Y181741D01*
X673043Y181663D01*
X673071Y181586D01*
X673102Y181510D01*
X673137Y181436D01*
X673175Y181364D01*
X673217Y181293D01*
X673263Y181225D01*
X673311Y181159D01*
X673363Y181096D01*
X673418Y181035D01*
X673476Y180977D01*
X673536Y180921D01*
X673599Y180869D01*
X673665Y180820D01*
X673733Y180774D01*
X673803Y180732D01*
X673875Y180692D01*
X673949Y180657D01*
X674024Y180625D01*
X674101Y180597D01*
X674179Y180573D01*
X674259Y180552D01*
X674339Y180535D01*
X674420Y180523D01*
X674501Y180514D01*
X674583Y180509D01*
X674665Y180508D01*
X674925Y180515D01*
X675185Y180528D01*
X675445Y180547D01*
X675704Y180572D01*
X675963Y180604D01*
X676220Y180641D01*
X676477Y180685D01*
X676733Y180734D01*
X676987Y180790D01*
X677240Y180851D01*
X677491Y180919D01*
X677741Y180993D01*
X677989Y181072D01*
X678235Y181157D01*
X796246Y151242D02*
X796246Y139558D01*
X799492Y151242D02*
X793001Y151242D01*
X783899Y146049D02*
X781952Y146049D01*
X781952Y139558D01*
X785847Y139558D01*
X785946Y139560D01*
X786046Y139566D01*
X786145Y139575D01*
X786243Y139588D01*
X786341Y139605D01*
X786439Y139626D01*
X786535Y139651D01*
X786630Y139679D01*
X786724Y139711D01*
X786817Y139746D01*
X786909Y139785D01*
X786999Y139828D01*
X787087Y139873D01*
X787174Y139923D01*
X787258Y139975D01*
X787341Y140031D01*
X787421Y140089D01*
X787499Y140151D01*
X787574Y140216D01*
X787647Y140284D01*
X787717Y140354D01*
X787785Y140427D01*
X787850Y140502D01*
X787912Y140580D01*
X787970Y140660D01*
X788026Y140743D01*
X788078Y140827D01*
X788128Y140914D01*
X788173Y141002D01*
X788216Y141092D01*
X788255Y141184D01*
X788290Y141277D01*
X788322Y141371D01*
X788350Y141466D01*
X788375Y141562D01*
X788396Y141660D01*
X788413Y141758D01*
X788426Y141856D01*
X788435Y141955D01*
X788441Y142055D01*
X788443Y142154D01*
X788443Y148646D01*
X788441Y148745D01*
X788435Y148845D01*
X788426Y148944D01*
X788413Y149042D01*
X788396Y149140D01*
X788375Y149238D01*
X788350Y149334D01*
X788322Y149429D01*
X788290Y149523D01*
X788255Y149616D01*
X788216Y149708D01*
X788173Y149798D01*
X788128Y149886D01*
X788078Y149973D01*
X788026Y150057D01*
X787970Y150140D01*
X787912Y150220D01*
X787850Y150298D01*
X787785Y150373D01*
X787717Y150446D01*
X787647Y150516D01*
X787574Y150584D01*
X787499Y150649D01*
X787421Y150711D01*
X787341Y150769D01*
X787258Y150825D01*
X787174Y150877D01*
X787087Y150927D01*
X786999Y150972D01*
X786909Y151015D01*
X786817Y151054D01*
X786724Y151089D01*
X786630Y151121D01*
X786535Y151149D01*
X786439Y151174D01*
X786341Y151195D01*
X786243Y151212D01*
X786145Y151225D01*
X786046Y151234D01*
X785946Y151240D01*
X785847Y151242D01*
X781952Y151242D01*
X776228Y139558D02*
X771036Y139558D01*
X776228Y139558D02*
X776228Y151242D01*
X771036Y151242D01*
X772334Y146049D02*
X776228Y146049D01*
X760249Y151242D02*
X760249Y139558D01*
X753758Y139558D02*
X760249Y151242D01*
X753758Y151242D02*
X753758Y139558D01*
X748035Y139558D02*
X742842Y139558D01*
X748035Y139558D02*
X748035Y151242D01*
X742842Y151242D01*
X744140Y146049D02*
X748035Y146049D01*
X737573Y151242D02*
X737573Y139558D01*
X738871Y139558D02*
X736274Y139558D01*
X736274Y151242D02*
X738871Y151242D01*
X731271Y151242D02*
X731271Y139558D01*
X726078Y139558D01*
X713570Y139558D02*
X716166Y147347D01*
X710973Y147347D02*
X713570Y139558D01*
X706528Y148646D02*
X703283Y151242D01*
X703283Y139558D01*
X706528Y139558D02*
X700037Y139558D01*
X695606Y139558D02*
X695606Y140207D01*
X694957Y140207D01*
X694957Y139558D01*
X695606Y139558D01*
X690527Y145400D02*
X690524Y145630D01*
X690516Y145860D01*
X690502Y146089D01*
X690483Y146318D01*
X690458Y146547D01*
X690428Y146775D01*
X690393Y147002D01*
X690352Y147228D01*
X690306Y147453D01*
X690254Y147677D01*
X690197Y147900D01*
X690135Y148121D01*
X690067Y148341D01*
X689994Y148559D01*
X689916Y148775D01*
X689833Y148989D01*
X689745Y149202D01*
X689652Y149412D01*
X689553Y149619D01*
X689520Y149709D01*
X689484Y149798D01*
X689444Y149886D01*
X689400Y149971D01*
X689353Y150055D01*
X689303Y150137D01*
X689249Y150217D01*
X689193Y150294D01*
X689133Y150370D01*
X689070Y150443D01*
X689005Y150513D01*
X688936Y150581D01*
X688865Y150645D01*
X688792Y150707D01*
X688716Y150766D01*
X688638Y150822D01*
X688557Y150875D01*
X688475Y150924D01*
X688391Y150970D01*
X688304Y151013D01*
X688217Y151052D01*
X688127Y151088D01*
X688037Y151120D01*
X687945Y151148D01*
X687852Y151173D01*
X687758Y151194D01*
X687664Y151211D01*
X687569Y151225D01*
X687473Y151234D01*
X687377Y151240D01*
X687281Y151242D01*
X687185Y151240D01*
X687089Y151234D01*
X686993Y151225D01*
X686898Y151211D01*
X686804Y151194D01*
X686710Y151173D01*
X686617Y151148D01*
X686525Y151120D01*
X686435Y151088D01*
X686345Y151052D01*
X686258Y151013D01*
X686171Y150970D01*
X686087Y150924D01*
X686005Y150875D01*
X685924Y150822D01*
X685846Y150766D01*
X685770Y150707D01*
X685697Y150645D01*
X685626Y150581D01*
X685557Y150513D01*
X685492Y150443D01*
X685429Y150370D01*
X685369Y150295D01*
X685313Y150217D01*
X685259Y150137D01*
X685209Y150055D01*
X685162Y149971D01*
X685119Y149886D01*
X685078Y149798D01*
X685042Y149709D01*
X685009Y149619D01*
X685010Y149619D02*
X684911Y149411D01*
X684818Y149201D01*
X684730Y148989D01*
X684647Y148775D01*
X684569Y148558D01*
X684496Y148340D01*
X684428Y148121D01*
X684366Y147899D01*
X684309Y147677D01*
X684257Y147453D01*
X684211Y147228D01*
X684170Y147002D01*
X684135Y146774D01*
X684105Y146547D01*
X684080Y146318D01*
X684061Y146089D01*
X684047Y145860D01*
X684039Y145630D01*
X684036Y145400D01*
X690526Y145400D02*
X690523Y145170D01*
X690515Y144940D01*
X690501Y144711D01*
X690482Y144482D01*
X690457Y144253D01*
X690427Y144025D01*
X690392Y143798D01*
X690351Y143572D01*
X690305Y143347D01*
X690253Y143123D01*
X690196Y142900D01*
X690134Y142679D01*
X690066Y142459D01*
X689993Y142241D01*
X689915Y142025D01*
X689832Y141811D01*
X689744Y141599D01*
X689651Y141388D01*
X689552Y141181D01*
X689553Y141181D02*
X689520Y141091D01*
X689484Y141002D01*
X689443Y140914D01*
X689400Y140829D01*
X689353Y140745D01*
X689303Y140663D01*
X689249Y140583D01*
X689193Y140506D01*
X689133Y140430D01*
X689070Y140357D01*
X689005Y140287D01*
X688936Y140219D01*
X688865Y140155D01*
X688792Y140093D01*
X688716Y140034D01*
X688638Y139978D01*
X688557Y139925D01*
X688475Y139876D01*
X688391Y139830D01*
X688304Y139787D01*
X688217Y139748D01*
X688127Y139712D01*
X688037Y139680D01*
X687945Y139652D01*
X687852Y139627D01*
X687758Y139606D01*
X687664Y139589D01*
X687569Y139575D01*
X687473Y139566D01*
X687377Y139560D01*
X687281Y139558D01*
X685009Y141181D02*
X684910Y141388D01*
X684817Y141599D01*
X684729Y141811D01*
X684646Y142025D01*
X684568Y142241D01*
X684495Y142459D01*
X684427Y142679D01*
X684365Y142900D01*
X684308Y143123D01*
X684256Y143347D01*
X684210Y143572D01*
X684169Y143798D01*
X684134Y144025D01*
X684104Y144253D01*
X684079Y144482D01*
X684060Y144711D01*
X684046Y144940D01*
X684038Y145170D01*
X684035Y145400D01*
X685009Y141181D02*
X685042Y141091D01*
X685078Y141002D01*
X685119Y140914D01*
X685162Y140829D01*
X685209Y140745D01*
X685259Y140663D01*
X685313Y140583D01*
X685369Y140505D01*
X685429Y140430D01*
X685492Y140357D01*
X685557Y140287D01*
X685626Y140219D01*
X685697Y140155D01*
X685770Y140093D01*
X685846Y140034D01*
X685924Y139978D01*
X686005Y139925D01*
X686087Y139876D01*
X686171Y139830D01*
X686258Y139787D01*
X686345Y139748D01*
X686435Y139712D01*
X686525Y139680D01*
X686617Y139652D01*
X686710Y139627D01*
X686804Y139606D01*
X686898Y139589D01*
X686993Y139575D01*
X687089Y139566D01*
X687185Y139560D01*
X687281Y139558D01*
X689877Y142154D02*
X684684Y148646D01*
X793001Y129271D02*
X793003Y129378D01*
X793009Y129484D01*
X793019Y129590D01*
X793032Y129696D01*
X793050Y129802D01*
X793071Y129906D01*
X793096Y130010D01*
X793125Y130113D01*
X793157Y130214D01*
X793194Y130314D01*
X793234Y130413D01*
X793277Y130511D01*
X793324Y130607D01*
X793375Y130701D01*
X793429Y130793D01*
X793486Y130883D01*
X793546Y130971D01*
X793610Y131056D01*
X793677Y131139D01*
X793747Y131220D01*
X793819Y131298D01*
X793895Y131374D01*
X793973Y131446D01*
X794054Y131516D01*
X794137Y131583D01*
X794222Y131647D01*
X794310Y131707D01*
X794400Y131764D01*
X794492Y131818D01*
X794586Y131869D01*
X794682Y131916D01*
X794780Y131959D01*
X794879Y131999D01*
X794979Y132036D01*
X795080Y132068D01*
X795183Y132097D01*
X795287Y132122D01*
X795391Y132143D01*
X795497Y132161D01*
X795603Y132174D01*
X795709Y132184D01*
X795815Y132190D01*
X795922Y132192D01*
X796043Y132190D01*
X796164Y132184D01*
X796284Y132174D01*
X796405Y132161D01*
X796524Y132143D01*
X796644Y132122D01*
X796762Y132097D01*
X796879Y132068D01*
X796996Y132035D01*
X797111Y131999D01*
X797225Y131958D01*
X797338Y131915D01*
X797450Y131867D01*
X797559Y131816D01*
X797667Y131761D01*
X797774Y131703D01*
X797878Y131642D01*
X797980Y131577D01*
X798080Y131509D01*
X798178Y131438D01*
X798274Y131364D01*
X798367Y131287D01*
X798457Y131206D01*
X798545Y131123D01*
X798630Y131037D01*
X798713Y130948D01*
X798792Y130857D01*
X798869Y130763D01*
X798942Y130667D01*
X799012Y130569D01*
X799079Y130468D01*
X799143Y130365D01*
X799204Y130260D01*
X799261Y130153D01*
X799314Y130045D01*
X799364Y129935D01*
X799410Y129823D01*
X799453Y129710D01*
X799492Y129595D01*
X793975Y126999D02*
X793896Y127077D01*
X793820Y127157D01*
X793747Y127240D01*
X793677Y127326D01*
X793610Y127413D01*
X793546Y127504D01*
X793486Y127596D01*
X793428Y127690D01*
X793374Y127787D01*
X793324Y127885D01*
X793277Y127985D01*
X793233Y128086D01*
X793193Y128189D01*
X793157Y128294D01*
X793125Y128399D01*
X793096Y128506D01*
X793071Y128613D01*
X793049Y128722D01*
X793032Y128831D01*
X793018Y128940D01*
X793009Y129050D01*
X793003Y129161D01*
X793001Y129271D01*
X793975Y126999D02*
X799492Y120508D01*
X793001Y120508D01*
X788062Y130894D02*
X788062Y132192D01*
X781571Y132192D01*
X784817Y120508D01*
X777126Y119210D02*
X771933Y133490D01*
X766515Y130569D02*
X766614Y130362D01*
X766707Y130152D01*
X766795Y129939D01*
X766878Y129725D01*
X766956Y129509D01*
X767029Y129291D01*
X767097Y129071D01*
X767159Y128850D01*
X767216Y128627D01*
X767268Y128403D01*
X767314Y128178D01*
X767355Y127952D01*
X767390Y127725D01*
X767420Y127497D01*
X767445Y127268D01*
X767464Y127039D01*
X767478Y126810D01*
X767486Y126580D01*
X767489Y126350D01*
X766515Y130569D02*
X766482Y130659D01*
X766446Y130748D01*
X766406Y130836D01*
X766362Y130921D01*
X766315Y131005D01*
X766265Y131087D01*
X766211Y131167D01*
X766155Y131244D01*
X766095Y131320D01*
X766032Y131393D01*
X765967Y131463D01*
X765898Y131531D01*
X765827Y131595D01*
X765754Y131657D01*
X765678Y131716D01*
X765600Y131772D01*
X765519Y131825D01*
X765437Y131874D01*
X765353Y131920D01*
X765266Y131963D01*
X765179Y132002D01*
X765089Y132038D01*
X764999Y132070D01*
X764907Y132098D01*
X764814Y132123D01*
X764720Y132144D01*
X764626Y132161D01*
X764531Y132175D01*
X764435Y132184D01*
X764339Y132190D01*
X764243Y132192D01*
X764147Y132190D01*
X764051Y132184D01*
X763955Y132175D01*
X763860Y132161D01*
X763766Y132144D01*
X763672Y132123D01*
X763579Y132098D01*
X763487Y132070D01*
X763397Y132038D01*
X763307Y132002D01*
X763220Y131963D01*
X763133Y131920D01*
X763049Y131874D01*
X762967Y131825D01*
X762886Y131772D01*
X762808Y131716D01*
X762732Y131657D01*
X762659Y131595D01*
X762588Y131531D01*
X762519Y131463D01*
X762454Y131393D01*
X762391Y131320D01*
X762331Y131245D01*
X762275Y131167D01*
X762221Y131087D01*
X762171Y131005D01*
X762124Y130921D01*
X762081Y130836D01*
X762040Y130748D01*
X762004Y130659D01*
X761971Y130569D01*
X761872Y130361D01*
X761779Y130151D01*
X761691Y129939D01*
X761608Y129725D01*
X761530Y129508D01*
X761457Y129290D01*
X761389Y129071D01*
X761327Y128849D01*
X761270Y128627D01*
X761218Y128403D01*
X761172Y128178D01*
X761131Y127952D01*
X761096Y127724D01*
X761066Y127497D01*
X761041Y127268D01*
X761022Y127039D01*
X761008Y126810D01*
X761000Y126580D01*
X760997Y126350D01*
X767488Y126350D02*
X767485Y126120D01*
X767477Y125890D01*
X767463Y125661D01*
X767444Y125432D01*
X767419Y125203D01*
X767389Y124975D01*
X767354Y124748D01*
X767313Y124522D01*
X767267Y124297D01*
X767215Y124073D01*
X767158Y123850D01*
X767096Y123629D01*
X767028Y123409D01*
X766955Y123191D01*
X766877Y122975D01*
X766794Y122761D01*
X766706Y122549D01*
X766613Y122338D01*
X766514Y122131D01*
X766515Y122131D02*
X766482Y122041D01*
X766446Y121952D01*
X766405Y121864D01*
X766362Y121779D01*
X766315Y121695D01*
X766265Y121613D01*
X766211Y121533D01*
X766155Y121456D01*
X766095Y121380D01*
X766032Y121307D01*
X765967Y121237D01*
X765898Y121169D01*
X765827Y121105D01*
X765754Y121043D01*
X765678Y120984D01*
X765600Y120928D01*
X765519Y120875D01*
X765437Y120826D01*
X765353Y120780D01*
X765266Y120737D01*
X765179Y120698D01*
X765089Y120662D01*
X764999Y120630D01*
X764907Y120602D01*
X764814Y120577D01*
X764720Y120556D01*
X764626Y120539D01*
X764531Y120525D01*
X764435Y120516D01*
X764339Y120510D01*
X764243Y120508D01*
X761971Y122131D02*
X761872Y122338D01*
X761779Y122549D01*
X761691Y122761D01*
X761608Y122975D01*
X761530Y123191D01*
X761457Y123409D01*
X761389Y123629D01*
X761327Y123850D01*
X761270Y124073D01*
X761218Y124297D01*
X761172Y124522D01*
X761131Y124748D01*
X761096Y124975D01*
X761066Y125203D01*
X761041Y125432D01*
X761022Y125661D01*
X761008Y125890D01*
X761000Y126120D01*
X760997Y126350D01*
X761971Y122131D02*
X762004Y122041D01*
X762040Y121952D01*
X762081Y121864D01*
X762124Y121779D01*
X762171Y121695D01*
X762221Y121613D01*
X762275Y121533D01*
X762331Y121455D01*
X762391Y121380D01*
X762454Y121307D01*
X762519Y121237D01*
X762588Y121169D01*
X762659Y121105D01*
X762732Y121043D01*
X762808Y120984D01*
X762886Y120928D01*
X762967Y120875D01*
X763049Y120826D01*
X763133Y120780D01*
X763220Y120737D01*
X763307Y120698D01*
X763397Y120662D01*
X763487Y120630D01*
X763579Y120602D01*
X763672Y120577D01*
X763766Y120556D01*
X763860Y120539D01*
X763955Y120525D01*
X764051Y120516D01*
X764147Y120510D01*
X764243Y120508D01*
X766839Y123104D02*
X761646Y129596D01*
X752488Y132192D02*
X752381Y132190D01*
X752275Y132184D01*
X752169Y132174D01*
X752063Y132161D01*
X751957Y132143D01*
X751853Y132122D01*
X751749Y132097D01*
X751646Y132068D01*
X751545Y132036D01*
X751445Y131999D01*
X751346Y131959D01*
X751248Y131916D01*
X751152Y131869D01*
X751058Y131818D01*
X750966Y131764D01*
X750876Y131707D01*
X750788Y131647D01*
X750703Y131583D01*
X750620Y131516D01*
X750539Y131446D01*
X750461Y131374D01*
X750385Y131298D01*
X750313Y131220D01*
X750243Y131139D01*
X750176Y131056D01*
X750112Y130971D01*
X750052Y130883D01*
X749995Y130793D01*
X749941Y130701D01*
X749890Y130607D01*
X749843Y130511D01*
X749800Y130413D01*
X749760Y130314D01*
X749723Y130214D01*
X749691Y130113D01*
X749662Y130010D01*
X749637Y129906D01*
X749616Y129802D01*
X749598Y129696D01*
X749585Y129590D01*
X749575Y129484D01*
X749569Y129378D01*
X749567Y129271D01*
X752488Y132192D02*
X752609Y132190D01*
X752730Y132184D01*
X752850Y132174D01*
X752971Y132161D01*
X753090Y132143D01*
X753210Y132122D01*
X753328Y132097D01*
X753445Y132068D01*
X753562Y132035D01*
X753677Y131999D01*
X753791Y131958D01*
X753904Y131915D01*
X754016Y131867D01*
X754125Y131816D01*
X754233Y131761D01*
X754340Y131703D01*
X754444Y131642D01*
X754546Y131577D01*
X754646Y131509D01*
X754744Y131438D01*
X754840Y131364D01*
X754933Y131287D01*
X755023Y131206D01*
X755111Y131123D01*
X755196Y131037D01*
X755279Y130948D01*
X755358Y130857D01*
X755435Y130763D01*
X755508Y130667D01*
X755578Y130569D01*
X755645Y130468D01*
X755709Y130365D01*
X755770Y130260D01*
X755827Y130153D01*
X755880Y130045D01*
X755930Y129935D01*
X755976Y129823D01*
X756019Y129710D01*
X756058Y129595D01*
X750541Y126999D02*
X750462Y127077D01*
X750386Y127157D01*
X750313Y127240D01*
X750243Y127326D01*
X750176Y127413D01*
X750112Y127504D01*
X750052Y127596D01*
X749994Y127690D01*
X749940Y127787D01*
X749890Y127885D01*
X749843Y127985D01*
X749799Y128086D01*
X749759Y128189D01*
X749723Y128294D01*
X749691Y128399D01*
X749662Y128506D01*
X749637Y128613D01*
X749615Y128722D01*
X749598Y128831D01*
X749584Y128940D01*
X749575Y129050D01*
X749569Y129161D01*
X749567Y129271D01*
X750541Y126999D02*
X756058Y120508D01*
X749567Y120508D01*
X745122Y119210D02*
X739929Y133490D01*
X731914Y132192D02*
X731807Y132190D01*
X731701Y132184D01*
X731595Y132174D01*
X731489Y132161D01*
X731383Y132143D01*
X731279Y132122D01*
X731175Y132097D01*
X731072Y132068D01*
X730971Y132036D01*
X730871Y131999D01*
X730772Y131959D01*
X730674Y131916D01*
X730578Y131869D01*
X730484Y131818D01*
X730392Y131764D01*
X730302Y131707D01*
X730214Y131647D01*
X730129Y131583D01*
X730046Y131516D01*
X729965Y131446D01*
X729887Y131374D01*
X729811Y131298D01*
X729739Y131220D01*
X729669Y131139D01*
X729602Y131056D01*
X729538Y130971D01*
X729478Y130883D01*
X729421Y130793D01*
X729367Y130701D01*
X729316Y130607D01*
X729269Y130511D01*
X729226Y130413D01*
X729186Y130314D01*
X729149Y130214D01*
X729117Y130113D01*
X729088Y130010D01*
X729063Y129906D01*
X729042Y129802D01*
X729024Y129696D01*
X729011Y129590D01*
X729001Y129484D01*
X728995Y129378D01*
X728993Y129271D01*
X731914Y132192D02*
X732035Y132190D01*
X732156Y132184D01*
X732276Y132174D01*
X732397Y132161D01*
X732516Y132143D01*
X732636Y132122D01*
X732754Y132097D01*
X732871Y132068D01*
X732988Y132035D01*
X733103Y131999D01*
X733217Y131958D01*
X733330Y131915D01*
X733442Y131867D01*
X733551Y131816D01*
X733659Y131761D01*
X733766Y131703D01*
X733870Y131642D01*
X733972Y131577D01*
X734072Y131509D01*
X734170Y131438D01*
X734266Y131364D01*
X734359Y131287D01*
X734449Y131206D01*
X734537Y131123D01*
X734622Y131037D01*
X734705Y130948D01*
X734784Y130857D01*
X734861Y130763D01*
X734934Y130667D01*
X735004Y130569D01*
X735071Y130468D01*
X735135Y130365D01*
X735196Y130260D01*
X735253Y130153D01*
X735306Y130045D01*
X735356Y129935D01*
X735402Y129823D01*
X735445Y129710D01*
X735484Y129595D01*
X729968Y126999D02*
X729889Y127077D01*
X729813Y127157D01*
X729740Y127240D01*
X729670Y127326D01*
X729603Y127413D01*
X729539Y127504D01*
X729479Y127596D01*
X729421Y127690D01*
X729367Y127787D01*
X729317Y127885D01*
X729270Y127985D01*
X729226Y128086D01*
X729186Y128189D01*
X729150Y128294D01*
X729118Y128399D01*
X729089Y128506D01*
X729064Y128613D01*
X729042Y128722D01*
X729025Y128831D01*
X729011Y128940D01*
X729002Y129050D01*
X728996Y129161D01*
X728994Y129271D01*
X729967Y126999D02*
X735484Y120508D01*
X728993Y120508D01*
X724055Y126350D02*
X724052Y126580D01*
X724044Y126810D01*
X724030Y127039D01*
X724011Y127268D01*
X723986Y127497D01*
X723956Y127725D01*
X723921Y127952D01*
X723880Y128178D01*
X723834Y128403D01*
X723782Y128627D01*
X723725Y128850D01*
X723663Y129071D01*
X723595Y129291D01*
X723522Y129509D01*
X723444Y129725D01*
X723361Y129939D01*
X723273Y130152D01*
X723180Y130362D01*
X723081Y130569D01*
X723048Y130659D01*
X723012Y130748D01*
X722972Y130836D01*
X722928Y130921D01*
X722881Y131005D01*
X722831Y131087D01*
X722777Y131167D01*
X722721Y131244D01*
X722661Y131320D01*
X722598Y131393D01*
X722533Y131463D01*
X722464Y131531D01*
X722393Y131595D01*
X722320Y131657D01*
X722244Y131716D01*
X722166Y131772D01*
X722085Y131825D01*
X722003Y131874D01*
X721919Y131920D01*
X721832Y131963D01*
X721745Y132002D01*
X721655Y132038D01*
X721565Y132070D01*
X721473Y132098D01*
X721380Y132123D01*
X721286Y132144D01*
X721192Y132161D01*
X721097Y132175D01*
X721001Y132184D01*
X720905Y132190D01*
X720809Y132192D01*
X720713Y132190D01*
X720617Y132184D01*
X720521Y132175D01*
X720426Y132161D01*
X720332Y132144D01*
X720238Y132123D01*
X720145Y132098D01*
X720053Y132070D01*
X719963Y132038D01*
X719873Y132002D01*
X719786Y131963D01*
X719699Y131920D01*
X719615Y131874D01*
X719533Y131825D01*
X719452Y131772D01*
X719374Y131716D01*
X719298Y131657D01*
X719225Y131595D01*
X719154Y131531D01*
X719085Y131463D01*
X719020Y131393D01*
X718957Y131320D01*
X718897Y131245D01*
X718841Y131167D01*
X718787Y131087D01*
X718737Y131005D01*
X718690Y130921D01*
X718647Y130836D01*
X718606Y130748D01*
X718570Y130659D01*
X718537Y130569D01*
X718538Y130569D02*
X718439Y130361D01*
X718346Y130151D01*
X718258Y129939D01*
X718175Y129725D01*
X718097Y129508D01*
X718024Y129290D01*
X717956Y129071D01*
X717894Y128849D01*
X717837Y128627D01*
X717785Y128403D01*
X717739Y128178D01*
X717698Y127952D01*
X717663Y127724D01*
X717633Y127497D01*
X717608Y127268D01*
X717589Y127039D01*
X717575Y126810D01*
X717567Y126580D01*
X717564Y126350D01*
X724054Y126350D02*
X724051Y126120D01*
X724043Y125890D01*
X724029Y125661D01*
X724010Y125432D01*
X723985Y125203D01*
X723955Y124975D01*
X723920Y124748D01*
X723879Y124522D01*
X723833Y124297D01*
X723781Y124073D01*
X723724Y123850D01*
X723662Y123629D01*
X723594Y123409D01*
X723521Y123191D01*
X723443Y122975D01*
X723360Y122761D01*
X723272Y122549D01*
X723179Y122338D01*
X723080Y122131D01*
X723081Y122131D02*
X723048Y122041D01*
X723012Y121952D01*
X722971Y121864D01*
X722928Y121779D01*
X722881Y121695D01*
X722831Y121613D01*
X722777Y121533D01*
X722721Y121456D01*
X722661Y121380D01*
X722598Y121307D01*
X722533Y121237D01*
X722464Y121169D01*
X722393Y121105D01*
X722320Y121043D01*
X722244Y120984D01*
X722166Y120928D01*
X722085Y120875D01*
X722003Y120826D01*
X721919Y120780D01*
X721832Y120737D01*
X721745Y120698D01*
X721655Y120662D01*
X721565Y120630D01*
X721473Y120602D01*
X721380Y120577D01*
X721286Y120556D01*
X721192Y120539D01*
X721097Y120525D01*
X721001Y120516D01*
X720905Y120510D01*
X720809Y120508D01*
X718537Y122131D02*
X718438Y122338D01*
X718345Y122549D01*
X718257Y122761D01*
X718174Y122975D01*
X718096Y123191D01*
X718023Y123409D01*
X717955Y123629D01*
X717893Y123850D01*
X717836Y124073D01*
X717784Y124297D01*
X717738Y124522D01*
X717697Y124748D01*
X717662Y124975D01*
X717632Y125203D01*
X717607Y125432D01*
X717588Y125661D01*
X717574Y125890D01*
X717566Y126120D01*
X717563Y126350D01*
X718537Y122131D02*
X718570Y122041D01*
X718606Y121952D01*
X718647Y121864D01*
X718690Y121779D01*
X718737Y121695D01*
X718787Y121613D01*
X718841Y121533D01*
X718897Y121455D01*
X718957Y121380D01*
X719020Y121307D01*
X719085Y121237D01*
X719154Y121169D01*
X719225Y121105D01*
X719298Y121043D01*
X719374Y120984D01*
X719452Y120928D01*
X719533Y120875D01*
X719615Y120826D01*
X719699Y120780D01*
X719786Y120737D01*
X719873Y120698D01*
X719963Y120662D01*
X720053Y120630D01*
X720145Y120602D01*
X720238Y120577D01*
X720332Y120556D01*
X720426Y120539D01*
X720521Y120525D01*
X720617Y120516D01*
X720713Y120510D01*
X720809Y120508D01*
X723405Y123104D02*
X718212Y129596D01*
X709054Y132192D02*
X708947Y132190D01*
X708841Y132184D01*
X708735Y132174D01*
X708629Y132161D01*
X708523Y132143D01*
X708419Y132122D01*
X708315Y132097D01*
X708212Y132068D01*
X708111Y132036D01*
X708011Y131999D01*
X707912Y131959D01*
X707814Y131916D01*
X707718Y131869D01*
X707624Y131818D01*
X707532Y131764D01*
X707442Y131707D01*
X707354Y131647D01*
X707269Y131583D01*
X707186Y131516D01*
X707105Y131446D01*
X707027Y131374D01*
X706951Y131298D01*
X706879Y131220D01*
X706809Y131139D01*
X706742Y131056D01*
X706678Y130971D01*
X706618Y130883D01*
X706561Y130793D01*
X706507Y130701D01*
X706456Y130607D01*
X706409Y130511D01*
X706366Y130413D01*
X706326Y130314D01*
X706289Y130214D01*
X706257Y130113D01*
X706228Y130010D01*
X706203Y129906D01*
X706182Y129802D01*
X706164Y129696D01*
X706151Y129590D01*
X706141Y129484D01*
X706135Y129378D01*
X706133Y129271D01*
X709054Y132192D02*
X709175Y132190D01*
X709296Y132184D01*
X709416Y132174D01*
X709537Y132161D01*
X709656Y132143D01*
X709776Y132122D01*
X709894Y132097D01*
X710011Y132068D01*
X710128Y132035D01*
X710243Y131999D01*
X710357Y131958D01*
X710470Y131915D01*
X710582Y131867D01*
X710691Y131816D01*
X710799Y131761D01*
X710906Y131703D01*
X711010Y131642D01*
X711112Y131577D01*
X711212Y131509D01*
X711310Y131438D01*
X711406Y131364D01*
X711499Y131287D01*
X711589Y131206D01*
X711677Y131123D01*
X711762Y131037D01*
X711845Y130948D01*
X711924Y130857D01*
X712001Y130763D01*
X712074Y130667D01*
X712144Y130569D01*
X712211Y130468D01*
X712275Y130365D01*
X712336Y130260D01*
X712393Y130153D01*
X712446Y130045D01*
X712496Y129935D01*
X712542Y129823D01*
X712585Y129710D01*
X712624Y129595D01*
X707108Y126999D02*
X707029Y127077D01*
X706953Y127157D01*
X706880Y127240D01*
X706810Y127326D01*
X706743Y127413D01*
X706679Y127504D01*
X706619Y127596D01*
X706561Y127690D01*
X706507Y127787D01*
X706457Y127885D01*
X706410Y127985D01*
X706366Y128086D01*
X706326Y128189D01*
X706290Y128294D01*
X706258Y128399D01*
X706229Y128506D01*
X706204Y128613D01*
X706182Y128722D01*
X706165Y128831D01*
X706151Y128940D01*
X706142Y129050D01*
X706136Y129161D01*
X706134Y129271D01*
X707107Y126999D02*
X712624Y120508D01*
X706133Y120508D01*
X701194Y129596D02*
X697949Y132192D01*
X697949Y120508D01*
X701194Y120508D02*
X694703Y120508D01*
M02*
