G04 EAGLE Gerber RS-274X export*
G75*
%MOMM*%
%FSLAX34Y34*%
%LPD*%
%INSolderpaste Top*%
%IPPOS*%
%AMOC8*
5,1,8,0,0,1.08239X$1,22.5*%
G01*
%ADD10R,0.650000X1.528000*%
%ADD11R,1.300000X1.500000*%
%ADD12R,0.600000X1.200000*%
%ADD13R,1.500000X1.300000*%
%ADD14R,1.850000X0.900000*%
%ADD15R,1.850000X3.200000*%
%ADD16R,1.400000X0.300000*%
%ADD17R,2.200000X0.600000*%
%ADD18R,1.528000X0.650000*%
%ADD19R,1.600000X1.300000*%
%ADD20R,1.300000X1.600000*%
%ADD21R,1.550000X2.200000*%
%ADD22R,1.200000X0.400000*%


D10*
X1416050Y382710D03*
X1403350Y382710D03*
X1390650Y382710D03*
X1377950Y382710D03*
X1377950Y328490D03*
X1390650Y328490D03*
X1403350Y328490D03*
X1416050Y328490D03*
D11*
X1388770Y299720D03*
X1407770Y299720D03*
X1388770Y274320D03*
X1407770Y274320D03*
D12*
X1292250Y330400D03*
X1301750Y330400D03*
X1311250Y330400D03*
X1311250Y355400D03*
X1292250Y355400D03*
D11*
X1296060Y269240D03*
X1315060Y269240D03*
X1296060Y300990D03*
X1315060Y300990D03*
D13*
X1346200Y377850D03*
X1346200Y396850D03*
X1256030Y394310D03*
X1256030Y375310D03*
X1343660Y330860D03*
X1343660Y349860D03*
X1343660Y309220D03*
X1343660Y290220D03*
D14*
X983500Y383400D03*
X983500Y406400D03*
X983500Y429400D03*
D15*
X921500Y406400D03*
D11*
X921410Y355600D03*
X940410Y355600D03*
D13*
X1022350Y428600D03*
X1022350Y409600D03*
D11*
X468020Y334010D03*
X487020Y334010D03*
D13*
X553720Y333350D03*
X553720Y314350D03*
D11*
X534060Y358140D03*
X553060Y358140D03*
D16*
X707800Y491650D03*
X707800Y496650D03*
X707800Y501650D03*
X707800Y506650D03*
X707800Y511650D03*
X663800Y511650D03*
X663800Y506650D03*
X663800Y501650D03*
X663800Y496650D03*
X663800Y491650D03*
D11*
X676300Y535940D03*
X695300Y535940D03*
D13*
X906780Y564490D03*
X906780Y545490D03*
D11*
X881990Y544830D03*
X862990Y544830D03*
X881990Y516890D03*
X862990Y516890D03*
D13*
X762000Y588620D03*
X762000Y569620D03*
X736600Y542900D03*
X736600Y523900D03*
X762000Y542900D03*
X762000Y523900D03*
X1162050Y669900D03*
X1162050Y650900D03*
D11*
X1133450Y609600D03*
X1114450Y609600D03*
X1133450Y641350D03*
X1114450Y641350D03*
X1374800Y476250D03*
X1393800Y476250D03*
D13*
X1297940Y513740D03*
X1297940Y532740D03*
D11*
X1343000Y514350D03*
X1324000Y514350D03*
D17*
X1429350Y514350D03*
X1377350Y514350D03*
X1429350Y501650D03*
X1429350Y527050D03*
X1429350Y539750D03*
X1377350Y501650D03*
X1377350Y527050D03*
X1377350Y539750D03*
D13*
X1377950Y581000D03*
X1377950Y562000D03*
D18*
X103310Y431800D03*
X103310Y444500D03*
X103310Y457200D03*
X103310Y469900D03*
X49090Y469900D03*
X49090Y457200D03*
X49090Y444500D03*
X49090Y431800D03*
D19*
X133350Y434950D03*
X133350Y415950D03*
X107950Y409550D03*
X107950Y390550D03*
D20*
X66700Y495300D03*
X85700Y495300D03*
D19*
X134620Y476860D03*
X134620Y457860D03*
D21*
X177800Y652600D03*
X177800Y693600D03*
X177800Y576400D03*
X177800Y617400D03*
D13*
X44450Y409550D03*
X44450Y390550D03*
D22*
X365150Y489100D03*
X365150Y482600D03*
X365150Y476100D03*
X384150Y476100D03*
X384150Y489100D03*
D11*
X390500Y457200D03*
X371500Y457200D03*
X339700Y463550D03*
X320700Y463550D03*
X320700Y488950D03*
X339700Y488950D03*
M02*
