G04 EAGLE Gerber RS-274X export*
G75*
%MOMM*%
%FSLAX34Y34*%
%LPD*%
%INSoldermask Top*%
%IPPOS*%
%AMOC8*
5,1,8,0,0,1.08239X$1,22.5*%
G01*
%ADD10R,11.430000X19.228000*%
%ADD11R,0.853200X1.731200*%
%ADD12C,1.311200*%
%ADD13R,1.503200X1.703200*%
%ADD14R,0.803200X1.403200*%
%ADD15R,1.703200X1.503200*%
%ADD16C,2.078200*%
%ADD17C,2.003200*%
%ADD18R,2.703200X2.703200*%
%ADD19C,3.203200*%
%ADD20R,2.053200X1.103200*%
%ADD21R,2.053200X3.403200*%
%ADD22C,1.211200*%
%ADD23C,4.203200*%
%ADD24C,1.703200*%
%ADD25P,6.731600X8X202.500000*%
%ADD26R,1.603200X0.503200*%
%ADD27R,2.403200X0.803200*%
%ADD28C,3.403200*%
%ADD29R,1.731200X0.853200*%
%ADD30R,1.803200X1.503200*%
%ADD31R,1.503200X1.803200*%
%ADD32C,3.703200*%
%ADD33C,1.611200*%
%ADD34R,1.753200X2.403200*%
%ADD35C,1.823200*%
%ADD36R,1.403200X0.603200*%
%ADD37C,0.959600*%


D10*
X422910Y639700D03*
X549910Y639700D03*
D11*
X1416050Y382710D03*
X1403350Y382710D03*
X1390650Y382710D03*
X1377950Y382710D03*
X1377950Y328490D03*
X1390650Y328490D03*
X1403350Y328490D03*
X1416050Y328490D03*
D12*
X391300Y66850D03*
X365300Y66850D03*
X339300Y66850D03*
X313300Y66850D03*
X287300Y66850D03*
X261300Y66850D03*
X235300Y66850D03*
X209300Y66850D03*
X183300Y66850D03*
X157300Y66850D03*
X131300Y66850D03*
X105300Y66850D03*
X79300Y66850D03*
X391300Y315850D03*
X339300Y315850D03*
X313300Y315850D03*
X287300Y315850D03*
X261300Y315850D03*
X235300Y315850D03*
X209300Y315850D03*
X183300Y315850D03*
X157300Y315850D03*
X131300Y315850D03*
X105300Y315850D03*
X79300Y315850D03*
X365300Y315850D03*
D13*
X1388770Y299720D03*
X1407770Y299720D03*
X1388770Y274320D03*
X1407770Y274320D03*
D14*
X1292250Y330400D03*
X1301750Y330400D03*
X1311250Y330400D03*
X1311250Y355400D03*
X1292250Y355400D03*
D13*
X1296060Y269240D03*
X1315060Y269240D03*
X1296060Y300990D03*
X1315060Y300990D03*
D15*
X1346200Y377850D03*
X1346200Y396850D03*
X1268730Y381610D03*
X1268730Y362610D03*
D16*
X1466450Y338100D03*
X1466450Y373100D03*
D17*
X1511450Y393600D03*
X1511450Y317600D03*
D15*
X1343660Y330860D03*
X1343660Y349860D03*
X1343660Y309220D03*
X1343660Y290220D03*
D18*
X1229360Y699770D03*
X1056640Y699770D03*
X1056640Y303530D03*
X1229360Y303530D03*
D19*
X1219200Y646430D03*
X1066800Y349250D03*
D20*
X983500Y383400D03*
X983500Y406400D03*
X983500Y429400D03*
D21*
X921500Y406400D03*
D13*
X921410Y355600D03*
X940410Y355600D03*
D15*
X1022350Y428600D03*
X1022350Y409600D03*
D22*
X397510Y580390D03*
X575310Y580390D03*
D23*
X556410Y574040D02*
X516410Y574040D01*
X456410Y574040D02*
X416410Y574040D01*
D24*
X467310Y360040D03*
X486410Y360040D03*
X505510Y360040D03*
D22*
X575310Y567690D03*
X397510Y567690D03*
X568160Y557790D03*
X556410Y554040D03*
X543160Y554040D03*
X529910Y554040D03*
X516410Y554040D03*
X504660Y557790D03*
X497410Y567790D03*
X497410Y580290D03*
X504660Y590290D03*
X516410Y594040D03*
X529910Y594040D03*
X543160Y594040D03*
X556410Y594040D03*
X568160Y590290D03*
X404660Y557790D03*
X416410Y554040D03*
X429660Y554040D03*
X443160Y554040D03*
X456410Y554040D03*
X468160Y557790D03*
X475410Y567790D03*
X475410Y580290D03*
X468160Y590290D03*
X456410Y594040D03*
X443160Y594040D03*
X429660Y594040D03*
X416410Y594040D03*
X404660Y590290D03*
D13*
X468020Y334010D03*
X487020Y334010D03*
D15*
X553720Y333350D03*
X553720Y314350D03*
D13*
X534060Y358140D03*
X553060Y358140D03*
D25*
X521420Y670560D03*
X451420Y670560D03*
D26*
X707800Y491650D03*
X707800Y496650D03*
X707800Y501650D03*
X707800Y506650D03*
X707800Y511650D03*
X663800Y511650D03*
X663800Y506650D03*
X663800Y501650D03*
X663800Y496650D03*
X663800Y491650D03*
D13*
X676300Y535940D03*
X695300Y535940D03*
D16*
X862050Y602850D03*
X827050Y602850D03*
D17*
X806550Y647850D03*
X882550Y647850D03*
D15*
X906780Y564490D03*
X906780Y545490D03*
D13*
X881990Y544830D03*
X862990Y544830D03*
X881990Y516890D03*
X862990Y516890D03*
D16*
X709650Y602850D03*
X674650Y602850D03*
D17*
X654150Y647850D03*
X730150Y647850D03*
D15*
X762000Y588620D03*
X762000Y569620D03*
X736600Y542900D03*
X736600Y523900D03*
X762000Y542900D03*
X762000Y523900D03*
X1162050Y669900D03*
X1162050Y650900D03*
D13*
X1133450Y609600D03*
X1114450Y609600D03*
X1133450Y641350D03*
X1114450Y641350D03*
X1374800Y476250D03*
X1393800Y476250D03*
D15*
X1297940Y513740D03*
X1297940Y532740D03*
D13*
X1343000Y514350D03*
X1324000Y514350D03*
D27*
X1429350Y514350D03*
X1377350Y514350D03*
X1429350Y501650D03*
X1429350Y527050D03*
X1429350Y539750D03*
X1377350Y501650D03*
X1377350Y527050D03*
X1377350Y539750D03*
D28*
X1499950Y659280D02*
X1531950Y659280D01*
X1531950Y584200D02*
X1499950Y584200D01*
X1499950Y509120D02*
X1531950Y509120D01*
D19*
X1534000Y707180D03*
X1534000Y461220D03*
D15*
X1377950Y581000D03*
X1377950Y562000D03*
D29*
X103310Y431800D03*
X103310Y444500D03*
X103310Y457200D03*
X103310Y469900D03*
X49090Y469900D03*
X49090Y457200D03*
X49090Y444500D03*
X49090Y431800D03*
D30*
X133350Y434950D03*
X133350Y415950D03*
X107950Y409550D03*
X107950Y390550D03*
D31*
X66700Y495300D03*
X85700Y495300D03*
D30*
X134620Y476860D03*
X134620Y457860D03*
D32*
X53900Y577850D03*
X126900Y577850D03*
D33*
X69850Y666800D03*
X82550Y641350D03*
X95250Y666800D03*
X107950Y641350D03*
D34*
X177800Y652600D03*
X177800Y693600D03*
X177800Y576400D03*
X177800Y617400D03*
D15*
X44450Y409550D03*
X44450Y390550D03*
D35*
X1163250Y84700D03*
X1133250Y84700D03*
X1163250Y114700D03*
X1133250Y114700D03*
X1103250Y124100D03*
X1193250Y124100D03*
X1313250Y84700D03*
X1283250Y84700D03*
X1313250Y114700D03*
X1283250Y114700D03*
X1253250Y124100D03*
X1343250Y124100D03*
X1463250Y84700D03*
X1433250Y84700D03*
X1463250Y114700D03*
X1433250Y114700D03*
X1403250Y124100D03*
X1493250Y124100D03*
D36*
X365150Y489100D03*
X365150Y482600D03*
X365150Y476100D03*
X384150Y476100D03*
X384150Y489100D03*
D13*
X390500Y457200D03*
X371500Y457200D03*
X339700Y463550D03*
X320700Y463550D03*
X320700Y488950D03*
X339700Y488950D03*
D32*
X231700Y577850D03*
X304700Y577850D03*
D33*
X247650Y666800D03*
X260350Y641350D03*
X273050Y666800D03*
X285750Y641350D03*
D37*
X34290Y469900D03*
X60198Y391160D03*
X133350Y492760D03*
X354330Y445770D03*
X571500Y304800D03*
X762000Y508000D03*
X692150Y501650D03*
X711200Y542290D03*
X1322070Y285750D03*
X1423670Y284480D03*
X1403350Y355600D03*
X1297940Y551180D03*
X1413510Y401320D03*
X1409700Y476250D03*
X1358900Y539750D03*
X158750Y628650D03*
X962660Y378460D03*
X1035050Y400050D03*
X355600Y508000D03*
X1097280Y659130D03*
X838708Y531114D03*
X101600Y368300D03*
X1358900Y476250D03*
X641350Y508000D03*
X647700Y476250D03*
X69850Y368300D03*
X1384300Y412750D03*
X1384300Y440154D03*
X1022350Y152400D03*
X1009650Y152400D03*
X1041400Y203200D03*
X1032510Y210820D03*
X514350Y711200D03*
X508000Y628650D03*
X533400Y615950D03*
X558800Y628650D03*
X577850Y609600D03*
X596900Y590550D03*
X596900Y628650D03*
X577850Y647700D03*
X558800Y666750D03*
X596900Y666750D03*
X577850Y685800D03*
X558800Y704850D03*
X539750Y723900D03*
X577850Y723900D03*
X596900Y704850D03*
X596900Y552450D03*
X374650Y552450D03*
X374650Y590550D03*
X393700Y609600D03*
X374650Y628650D03*
X412750Y628650D03*
X393700Y647700D03*
X374650Y666750D03*
X412750Y666750D03*
X393700Y685800D03*
X444500Y615950D03*
X463550Y628650D03*
X412750Y704850D03*
X393700Y723900D03*
X374650Y704850D03*
X438150Y723900D03*
X463550Y711200D03*
M02*
